<svg width="32" height="27" viewBox="0 0 32 27" fill="none" xmlns="http://www.w3.org/2000/svg">
<path d="M23.2518 27.0002H20.4968L20.2068 24.8736C19.9168 24.8252 19.6268 24.7285 19.3368 24.6319L17.9834 26.3236L15.5667 24.9219L16.3401 22.9402C16.0984 22.7469 15.9051 22.5052 15.7117 22.3119L13.7301 23.1335L12.3284 20.7169L14.0201 19.4119C13.9234 19.1219 13.8267 18.8319 13.7784 18.5419L11.7001 18.2519V15.4969L13.8267 15.2069C13.8751 14.9169 13.9717 14.6269 14.0684 14.3369L12.3767 12.9835L13.7784 10.5669L15.7601 11.3402C15.9534 11.0985 16.1951 10.9052 16.3884 10.7119L15.5667 8.73019L17.9834 7.32852L19.2884 9.02019C19.5784 8.92353 19.8684 8.82686 20.1584 8.77853L20.4484 6.65186H23.2034L23.4934 8.77853C23.7834 8.82686 24.0734 8.92353 24.3634 9.02019L25.6684 7.32852L28.0851 8.73019L27.3118 10.7119C27.5534 10.9052 27.7468 11.1469 27.9401 11.3402L29.9218 10.5669L31.3234 12.9835L29.6318 14.2885C29.7284 14.5785 29.8251 14.8685 29.8734 15.1585L32.0001 15.4485V18.2035L29.8734 18.4935C29.8251 18.7835 29.7284 19.0735 29.6318 19.3635L31.3234 20.6685L29.9218 23.0852L27.9401 22.3119C27.7468 22.5535 27.5051 22.7469 27.3118 22.9402L28.0851 24.9219L25.6684 26.3236L24.3634 24.6319C24.0734 24.7285 23.7834 24.8252 23.4934 24.8736L23.2518 27.0002ZM21.3184 26.0336H22.4301L22.7201 24.0519L23.0584 24.0036C23.5418 23.9069 23.9768 23.8102 24.4118 23.6169L24.7501 23.4719L26.0068 25.0669L26.9734 24.5352L26.2484 22.6985L26.5384 22.4569C26.9251 22.1669 27.2634 21.8285 27.5534 21.4419L27.7951 21.1519L29.6318 21.8769L30.1634 20.9102L28.5201 19.7502L28.6651 19.4119C28.8101 18.9769 28.9551 18.4935 29.0518 18.0585L29.1001 17.7202L31.0818 17.4302V16.3185L29.1001 16.0285L29.0518 15.6902C28.9551 15.2069 28.8584 14.7719 28.6651 14.3369L28.5201 13.9502L30.1151 12.6935L29.5834 11.7269L27.7468 12.4519L27.5051 12.1619C27.2151 11.7752 26.8768 11.4369 26.4901 11.1469L26.2001 10.9052L26.9251 9.06853L25.9584 8.53686L24.7501 10.1802L24.4118 10.0835C23.9768 9.93853 23.4934 9.79353 23.0584 9.69686L22.7201 9.64853L22.3818 7.66686H21.2701L20.9801 9.64853L20.6418 9.69686C20.1584 9.79353 19.7234 9.89019 19.2884 10.0835L18.9501 10.1802L17.7417 8.63353L16.7751 9.16519L17.5001 11.0019L17.2101 11.2435C16.8234 11.5335 16.4851 11.8719 16.1951 12.2585L15.9534 12.5485L14.1167 11.8235L13.5851 12.7902L15.1801 14.0469L15.0834 14.2885C14.9384 14.7235 14.7934 15.2069 14.6967 15.6419L14.6484 15.9802L12.6667 16.3185V17.4302L14.6484 17.7202L14.6967 18.0585C14.7934 18.5419 14.8901 18.9769 15.0834 19.4119L15.2284 19.7502L13.6334 20.9585L14.1651 21.9252L16.0017 21.2002L16.2434 21.4902C16.5334 21.8769 16.8717 22.2152 17.2584 22.5052L17.5484 22.7469L16.8234 24.5836L17.7901 25.1152L19.0468 23.5202L19.3851 23.6652C19.8201 23.8102 20.3034 23.9552 20.7384 24.0519L21.0768 24.1002L21.3184 26.0336Z" fill="#BCC2CE"/>
<path d="M8.12001 13.5334H5.41334L5.07501 11.7934C4.83334 11.6967 4.64001 11.6484 4.44667 11.5517L2.99667 12.5184L1.06334 10.585L2.03 9.13501C1.93334 8.94168 1.83667 8.70001 1.78834 8.50668L0 8.12001V5.41334L1.74 5.07501C1.83667 4.83334 1.885 4.64001 1.98167 4.44667L1.015 2.99667L2.94834 1.06333L4.39834 2.03C4.59167 1.93334 4.83334 1.83667 5.02668 1.78834L5.41334 0H8.12001L8.45835 1.74C8.70002 1.83667 8.89335 1.885 9.08668 1.98167L10.5367 1.015L12.47 2.94834L11.5034 4.39834C11.6 4.59167 11.6967 4.83334 11.745 5.02667L13.485 5.36501V8.07168L11.745 8.41001C11.6484 8.65168 11.6 8.84501 11.5034 9.03835L12.47 10.4884L10.5367 12.4217L9.08668 11.455C8.89335 11.5517 8.65168 11.6484 8.45835 11.6967L8.12001 13.5334ZM6.18668 12.5667H7.34668L7.63668 11.02L7.92668 10.9234C8.26501 10.8267 8.60335 10.6817 8.89335 10.5367L9.13502 10.3917L10.44 11.2617L11.2617 10.44L10.3917 9.18335L10.5367 8.94168C10.73 8.65168 10.8267 8.31335 10.9234 7.97501L11.02 7.68501L12.5667 7.39501V6.23501L11.02 5.94501L10.9234 5.65501C10.8267 5.31668 10.6817 4.97834 10.5367 4.68834L10.3917 4.35001L11.2617 3.04501L10.44 2.22334L9.18335 3.14167L8.94168 2.99667C8.65168 2.80334 8.31335 2.70667 7.97501 2.61L7.68501 2.51334L7.34668 0.966668H6.18668L5.89668 2.51334L5.60668 2.61C5.26834 2.70667 4.93001 2.85167 4.64001 2.99667L4.35001 3.14167L3.04501 2.27167L2.27167 3.04501L3.14167 4.35001L2.99667 4.59167C2.80334 4.88167 2.70667 5.22001 2.61 5.55834L2.51334 5.84834L0.966668 6.18668V7.34668L2.51334 7.63668L2.61 7.92668C2.70667 8.26501 2.85167 8.60335 2.99667 8.89335L3.14167 9.18335L2.27167 10.4884L3.09334 11.31L4.39834 10.44L4.64001 10.585C4.93001 10.7784 5.26834 10.875 5.60668 10.9717L5.89668 11.0684L6.18668 12.5667Z" fill="#BCC2CE"/>
<path d="M6.76677 9.18295C5.41343 9.18295 4.3501 8.11962 4.3501 6.76628C4.3501 5.41294 5.41343 4.34961 6.76677 4.34961C8.1201 4.34961 9.18344 5.41294 9.18344 6.76628C9.18344 8.11962 8.1201 9.18295 6.76677 9.18295ZM6.76677 5.31628C5.9451 5.31628 5.31677 5.94461 5.31677 6.76628C5.31677 7.58795 5.9451 8.21628 6.76677 8.21628C7.58844 8.21628 8.21677 7.58795 8.21677 6.76628C8.21677 5.94461 7.58844 5.31628 6.76677 5.31628Z" fill="#BCC2CE"/>
<circle cx="21.8501" cy="13.9132" r="1.91282" stroke="#BCC2CE" stroke-width="0.933335"/>
<path d="M17.9834 21.0512L18.6522 18.9096C18.708 18.452 19.0034 17.5259 19.7391 17.4819H23.8775C24.184 17.4819 24.8305 17.7016 24.9643 18.5802L25.7167 21.0512" stroke="#BCC2CE" stroke-width="0.933335"/>
</svg>
