<svg width="49" height="48" viewBox="0 0 49 48" fill="none" xmlns="http://www.w3.org/2000/svg">
<g opacity="0.6">
<path d="M7.56812 0L41.7433 0.0168185C45.6872 0.294324 48.7734 3.7253 48.7734 7.82901L48.7734 15.1367C48.7734 17.4576 46.8898 19.3413 44.5688 19.3413L35.3186 19.3413L35.3186 45.9061C35.3186 46.5872 34.915 47.2011 34.2843 47.4618C33.6536 47.7225 32.9304 47.5795 32.4511 47.1002L29.1883 43.8374C28.8603 43.5095 28.3306 43.5095 28.0026 43.8374L24.5884 47.2516C24.0923 47.7477 23.4027 48.0252 22.7048 47.9916C22.0068 47.9664 21.3425 47.6468 20.8884 47.117L18.2058 43.9888C18.0544 43.8122 17.8358 43.7029 17.6003 43.6945C17.3565 43.6945 17.1378 43.7701 16.9697 43.9383L13.648 47.26C13.1771 47.7309 12.5296 48 11.8652 48C11.8316 48 11.798 48 11.7727 48C11.0748 47.9748 10.4104 47.6552 9.95634 47.1254L7.27379 43.9972C7.12243 43.8206 6.90378 43.7113 6.66832 43.7029C6.43287 43.7029 6.20581 43.7786 6.03763 43.9467L2.86734 47.0918C2.38802 47.5795 1.66482 47.7225 1.03413 47.4534C0.403431 47.1927 -0.000209808 46.5872 -0.000209808 45.9061L-0.000209808 7.56833C-0.000209808 3.39734 3.39713 0 7.56812 0ZM35.3186 17.6594L44.5688 17.6594C45.9563 17.6594 47.0916 16.5242 47.0916 15.1367L47.0916 7.82901C47.0916 4.60827 44.695 1.9089 41.6256 1.69867C41.491 1.69026 41.3481 1.68185 41.2135 1.68185C39.6578 1.68185 38.1526 2.29573 37.0425 3.39734C35.9325 4.52418 35.3186 6.0042 35.3186 7.56833V17.6594ZM1.68164 45.9061L4.85192 42.7358C5.34807 42.2397 6.02922 41.979 6.7356 41.9958C7.43356 42.021 8.0979 42.3406 8.55199 42.8704L11.2345 45.9986C11.3859 46.1752 11.6046 46.2845 11.84 46.2929C12.0671 46.3013 12.3025 46.2172 12.4707 46.049L15.7924 42.7274C16.2633 42.2565 16.9108 41.9874 17.5751 41.9874C17.6088 41.9874 17.6424 41.9874 17.6676 41.9874C18.3656 42.0126 19.0299 42.3322 19.484 42.8619L22.1666 45.9902C22.3179 46.1668 22.5366 46.2761 22.772 46.2845C23.0075 46.2929 23.2345 46.2088 23.4027 46.0406L26.8169 42.6265C27.8008 41.6426 29.3985 41.6426 30.3824 42.6265L33.6368 45.9061L33.6368 18.5003L33.6368 7.56833C33.6368 5.5501 34.4188 3.64961 35.8568 2.21163C36.0418 2.02663 36.2352 1.85003 36.4455 1.68185L7.56812 1.68185C4.32214 1.68185 1.68164 4.32235 1.68164 7.56833L1.68164 45.9061Z" fill="#3E86E5"/>
<path d="M26.0683 10.0912L8.40883 10.0912C7.94632 10.0912 7.56791 9.71274 7.56791 9.25023C7.56791 8.78772 7.94632 8.4093 8.40883 8.4093L26.0683 8.4093C26.5308 8.4093 26.9092 8.78772 26.9092 9.25023C26.9092 9.71274 26.5308 10.0912 26.0683 10.0912Z" fill="#3E86E5"/>
<path d="M26.0683 18.5003L8.40883 18.5003C7.94632 18.5003 7.56791 18.1219 7.56791 17.6594C7.56791 17.1969 7.94632 16.8185 8.40883 16.8185L26.0683 16.8185C26.5308 16.8185 26.9092 17.1969 26.9092 17.6594C26.9092 18.1219 26.5308 18.5003 26.0683 18.5003Z" fill="#3E86E5"/>
<path d="M26.0683 26.9096L8.40883 26.9096C7.94632 26.9096 7.56791 26.5312 7.56791 26.0687C7.56791 25.6062 7.94632 25.2278 8.40883 25.2278L26.0683 25.2278C26.5308 25.2278 26.9092 25.6062 26.9092 26.0687C26.9092 26.5312 26.5308 26.9096 26.0683 26.9096Z" fill="#3E86E5"/>
<path d="M26.0683 35.3189L8.40883 35.3189C7.94632 35.3189 7.56791 34.9405 7.56791 34.478C7.56791 34.0155 7.94632 33.6371 8.40883 33.6371L26.0683 33.6371C26.5308 33.6371 26.9092 34.0155 26.9092 34.478C26.9092 34.9405 26.5308 35.3189 26.0683 35.3189Z" fill="#3E86E5"/>
</g>
</svg>
