<svg width="29" height="24" viewBox="0 0 29 24" fill="none" xmlns="http://www.w3.org/2000/svg">
<path d="M28.7509 10.7156L15.5158 0.335244C14.9463 -0.111878 14.0534 -0.111618 13.4839 0.335244L0.249044 10.7156C-0.0335954 10.9374 -0.0830443 11.3465 0.138695 11.6291C0.360435 11.9115 0.769039 11.9615 1.0522 11.7395L4.34186 9.15928V22.097C4.34186 22.8863 4.98417 23.5284 5.77327 23.5284H10.2198C11.0089 23.5284 11.6512 22.8863 11.6512 22.097V15.4292C11.6512 15.35 11.7259 15.2727 11.805 15.2696L14.4997 15.1697L17.1947 15.2696C17.2738 15.2727 17.3485 15.35 17.3485 15.4292V22.0972C17.3485 22.8866 17.9908 23.5286 18.7799 23.5286H23.2264C24.0155 23.5286 24.6578 22.8866 24.6578 22.0972V9.15928L27.948 11.7397C28.0672 11.8332 28.2088 11.8785 28.3491 11.8785C28.5422 11.8785 28.7332 11.7928 28.8615 11.6294C29.083 11.3465 29.0335 10.9374 28.7509 10.7156ZM23.3563 22.0972C23.3563 22.1677 23.2967 22.2273 23.2262 22.2273H18.7797C18.7091 22.2273 18.6495 22.1677 18.6495 22.0972V15.4292C18.6495 14.6531 18.0184 13.998 17.2428 13.9694L14.5237 13.8686C14.5153 13.8684 14.5075 13.8699 14.4992 13.8699C14.4911 13.8699 14.4833 13.8684 14.4753 13.8686L11.7566 13.9694C10.981 13.998 10.3499 14.6528 10.3499 15.4292V22.0972C10.3499 22.1677 10.2903 22.2273 10.2198 22.2273H5.77327C5.70274 22.2273 5.64315 22.1677 5.64315 22.0972V8.13881L14.2873 1.35884C14.3888 1.27946 14.6108 1.27894 14.7129 1.35884L23.3565 8.13829L23.3563 22.0972Z" fill="#BCC2CE"/>
</svg>
