<svg width="29" height="29" viewBox="0 0 29 29" fill="none" xmlns="http://www.w3.org/2000/svg">
<path d="M14.9681 17.7746V11.2198C14.9681 9.41551 13.501 7.94238 11.6913 7.94238H10.4868L7.47835 13.0983L4.47559 7.94238H3.27677C1.46713 7.94809 0 9.41551 0 11.2198V17.7689C0 19.4133 1.22165 20.778 2.80866 21.0064V29.0001H12.1594V21.0121C13.7465 20.7837 14.9681 19.419 14.9681 17.7746ZM14.0319 11.2198V17.7689C14.0319 18.8995 13.227 19.8416 12.1594 20.0585V14.1147L13.6608 9.98078C13.8949 10.3348 14.0319 10.763 14.0319 11.2198ZM0.93622 17.7746V11.2198C0.93622 10.763 1.07323 10.3348 1.30157 9.97507L2.80295 14.1089V20.0585C1.74114 19.8473 0.93622 18.8995 0.93622 17.7746ZM11.2232 28.0637H7.94646V22.9191H7.01024V28.0637H3.73917V13.9491L2.03228 9.24992C2.80295 8.74746 3.93898 8.8845 3.93898 8.8845L7.48406 14.9597L11.0291 8.8845C11.0291 8.8845 12.3935 8.77601 12.9358 9.24992L11.2289 13.9491V28.0637H11.2232Z" fill="#BCC2CE"/>
<path d="M7.48402 7.47983C9.54484 7.47983 11.2232 5.80115 11.2232 3.73992C11.2232 1.67869 9.54484 1.45227e-05 7.48402 1.45227e-05C5.42319 -0.00569526 3.73914 1.67298 3.73914 3.73421C3.73914 5.80115 5.42319 7.47983 7.48402 7.47983ZM7.48402 0.930709C9.03106 0.930709 10.2927 2.19257 10.2927 3.73992C10.2927 5.28727 9.03106 6.54914 7.48402 6.54914C5.93697 6.54914 4.67536 5.28727 4.67536 3.73421C4.67536 2.18686 5.93697 0.930709 7.48402 0.930709Z" fill="#BCC2CE"/>
<path d="M15.9043 21.0464V21.9828C20.0317 21.9828 23.3884 18.6254 23.3884 14.4972C23.3884 10.3691 20.0317 7.01172 15.9043 7.01172V7.94812C19.5179 7.94812 22.4521 10.8887 22.4521 14.4972C22.4521 18.1115 19.5122 21.0464 15.9043 21.0464Z" fill="#BCC2CE"/>
<path d="M28.9999 17.2036V11.7964L26.6366 11.2026C26.431 10.5232 26.157 9.86653 25.8259 9.23846L27.0818 7.14868L23.257 3.32312L21.1677 4.57928C20.5397 4.24811 19.8832 3.97404 19.2039 3.76849L18.6102 1.39893H13.2041L12.5476 4.02543L13.4553 4.25382L13.9291 2.33533H17.8738L18.4218 4.51647C19.7005 4.83622 20.7053 5.37864 21.1791 5.65842L23.1086 4.49934L25.9001 7.29142L24.7413 9.22133C25.2379 9.99215 25.8202 11.5052 25.883 11.9792L28.0637 12.5216V16.467L25.883 17.0152C25.6946 17.7175 25.3064 18.8709 24.7413 19.773L25.9001 21.7029L23.1086 24.495L21.1791 23.3359C20.0259 24.0268 19.2096 24.2495 18.4218 24.4779L17.8738 26.659H13.9291L13.4495 24.7405L12.5419 24.9689L13.1984 27.5954H18.6102L19.2039 25.2316C19.8832 25.026 20.5397 24.7519 21.1677 24.4208L23.257 25.6769L27.0818 21.8514L25.8259 19.7616C26.157 19.1335 26.431 18.4769 26.6366 17.7974L28.9999 17.2036Z" fill="#BCC2CE"/>
</svg>
