<svg width="70" height="60" viewBox="0 0 70 60" fill="none" xmlns="http://www.w3.org/2000/svg">
<g opacity="0.7">
<path d="M2.2357 15.9755C2.22015 15.9426 2.20517 15.9099 2.19077 15.8772C-0.190936 10.4737 20.7483 4.37427 31.5156 2L17.9697 26.7682M2.2357 15.9755C1.8238 21.51 1 34.6421 1 42.8947C1 51.1473 21.3437 56.3216 31.5156 57.8772V32.5789C27.975 31.2422 22.9103 29.147 17.9697 26.7682M2.2357 15.9755C3.75502 19.1862 10.7291 23.2819 17.9697 26.7682" stroke="#FFA338" stroke-width="1.5" stroke-linecap="round"/>
<path d="M67.1969 44.0245C67.2125 44.0574 67.2274 44.0901 67.2418 44.1228C69.6236 49.5263 48.6844 55.6257 37.917 58L51.4629 33.2318M67.1969 44.0245C67.6088 38.49 68.4326 25.3579 68.4326 17.1053C68.4326 8.85267 48.0889 3.6784 37.917 2.12285L37.917 27.4211C41.4576 28.7578 46.5223 30.853 51.4629 33.2318M67.1969 44.0245C65.6776 40.8138 58.7036 36.7181 51.4629 33.2318" stroke="#FFA338" stroke-width="1.5" stroke-linecap="round"/>
</g>
</svg>
