<svg width="57" height="56" viewBox="0 0 57 56" fill="none" xmlns="http://www.w3.org/2000/svg">
<g opacity="0.6">
<path d="M55.967 15.0261C55.4045 6.58787 49.1461 2.49759 45.4186 1.243C44.8761 1.06044 44.3051 1 43.7328 1H3C1.89543 1 1 1.89543 1 3V38.8379C1 39.929 1.87456 40.8188 2.96552 40.8376L33.9802 41.3723M55.967 15.0261C56.5271 23.4283 43.7663 26.873 35.8395 27.7488C34.7929 27.8644 33.9802 28.7331 33.9802 29.786V41.3723M55.967 15.0261C55.967 22.1023 55.967 38.3017 55.967 46.4899C55.967 54.0431 43.4944 55.2955 35.8072 54.9484C34.7703 54.9016 33.9802 54.0327 33.9802 52.9947V41.3723M10.4771 12.3725H21.8496M10.4771 16.9215H17.6796" stroke="#5850C5" stroke-width="1.5" stroke-linecap="round"/>
<circle cx="42.6997" cy="15.4051" r="4.55716" stroke="#5850C5" stroke-width="1.5"/>
</g>
</svg>
