<svg width="31" height="23" viewBox="0 0 31 23" fill="none" xmlns="http://www.w3.org/2000/svg">
<path fill-rule="evenodd" clip-rule="evenodd" d="M27.6789 5.72944C27.9874 5.65134 28.1743 5.33761 28.0962 5.02914L26.9644 0.558663C26.8863 0.2502 26.5725 0.0632374 26.2641 0.141336L0.55881 6.64953C0.250347 6.72763 0.0633842 7.04136 0.141483 7.34983L1.27334 11.8203C1.35144 12.1288 1.66517 12.3157 1.97364 12.2376C3.20749 11.9252 4.46241 12.6731 4.77481 13.9069C5.0872 15.1408 4.33935 16.3957 3.1055 16.7081C2.79703 16.7862 2.61007 17.0999 2.68817 17.4084L3.82003 21.8789C3.89813 22.1874 4.21186 22.3743 4.52032 22.2962L30.2256 15.788C30.534 15.7099 30.721 15.3962 30.6429 15.0877L29.5111 10.6172C29.433 10.3088 29.1192 10.1218 28.8108 10.1999C27.5769 10.5123 26.322 9.76446 26.0096 8.53061C25.6972 7.29675 26.445 6.04183 27.6789 5.72944ZM26.849 4.80024L25.9882 1.40044L1.40059 7.62567L2.26136 11.0255C3.9135 10.8902 5.47208 11.9638 5.89243 13.624C6.31277 15.2842 5.45283 16.9701 3.93539 17.6373L4.79617 21.0371L29.3838 14.8119L28.523 11.4121C26.8709 11.5473 25.3123 10.4738 24.892 8.81357C24.4716 7.15335 25.3316 5.46748 26.849 4.80024Z" fill="#BCC2CE"/>
<path fill-rule="evenodd" clip-rule="evenodd" d="M13.3199 19.4739L13.0369 18.3562C12.9588 18.0478 12.6451 17.8608 12.3366 17.9389C12.0281 18.017 11.8412 18.3307 11.9193 18.6392L12.2022 19.7568C12.2803 20.0653 12.5941 20.2522 12.9025 20.1741C13.211 20.096 13.3979 19.7823 13.3199 19.4739ZM12.471 16.121L12.188 15.0034C12.1099 14.6949 11.7962 14.5079 11.4877 14.586C11.1792 14.6641 10.9923 14.9779 11.0704 15.2863L11.3533 16.404C11.4314 16.7124 11.7452 16.8994 12.0536 16.8213C12.3621 16.7432 12.5491 16.4295 12.471 16.121ZM11.6221 12.7681L11.3391 11.6505C11.261 11.342 10.9473 11.1551 10.6388 11.2332C10.3303 11.3113 10.1434 11.625 10.2215 11.9335L10.5044 13.0511C10.5825 13.3596 10.8963 13.5465 11.2047 13.4684C11.5132 13.3903 11.7002 13.0766 11.6221 12.7681ZM10.7732 9.41527L10.4902 8.29765C10.4121 7.98919 10.0984 7.80222 9.78991 7.88032C9.48144 7.95842 9.29448 8.27215 9.37258 8.58062L9.65555 9.69824C9.73364 10.0067 10.0474 10.1937 10.3558 10.1156C10.6643 10.0375 10.8513 9.72373 10.7732 9.41527ZM9.92427 6.06241L9.6413 4.94479C9.56321 4.63633 9.24948 4.44936 8.94101 4.52746C8.63255 4.60556 8.44559 4.91929 8.52368 5.22776L8.80665 6.34538C8.88475 6.65384 9.19848 6.8408 9.50694 6.7627C9.81541 6.6846 10.0024 6.37087 9.92427 6.06241Z" fill="#BCC2CE"/>
<path fill-rule="evenodd" clip-rule="evenodd" d="M14.5397 6.67766C13.4601 6.95101 12.8057 8.04907 13.0791 9.12869C13.3524 10.2083 14.4505 10.8627 15.5301 10.5893C16.6097 10.316 17.2641 9.21793 16.9907 8.13831C16.7174 7.05869 15.6193 6.40432 14.5397 6.67766ZM14.8227 7.79528C15.2854 7.67814 15.756 7.95858 15.8731 8.42127C15.9902 8.88397 15.7098 9.35457 15.2471 9.47171C14.7844 9.58886 14.3138 9.30842 14.1967 8.84572C14.0795 8.38303 14.36 7.91243 14.8227 7.79528Z" fill="#BCC2CE"/>
<path fill-rule="evenodd" clip-rule="evenodd" d="M20.8424 10.434C19.7628 10.7074 19.1084 11.8054 19.3818 12.885C19.6551 13.9647 20.7532 14.619 21.8328 14.3457C22.9124 14.0723 23.5668 12.9743 23.2935 11.8947C23.0201 10.815 21.9221 10.1607 20.8424 10.434ZM21.1254 11.5516C21.5881 11.4345 22.0587 11.7149 22.1758 12.1776C22.293 12.6403 22.0125 13.1109 21.5498 13.2281C21.0871 13.3452 20.6166 13.0648 20.4994 12.6021C20.3823 12.1394 20.6627 11.6688 21.1254 11.5516Z" fill="#BCC2CE"/>
<path fill-rule="evenodd" clip-rule="evenodd" d="M16.1775 15.0082L21.1854 6.60471C21.3482 6.3316 21.2585 5.97731 20.9854 5.81455C20.7123 5.6518 20.358 5.7415 20.1952 6.01461L15.1873 14.4181C15.0245 14.6912 15.1142 15.0455 15.3874 15.2083C15.6605 15.371 16.0148 15.2813 16.1775 15.0082Z" fill="#BCC2CE"/>
</svg>
