<svg width="60" height="60" viewBox="0 0 60 60" fill="none" xmlns="http://www.w3.org/2000/svg">
<rect width="60" height="60" rx="12" fill="url(#paint0_linear_6531_3699)"/>
<path d="M40.9743 22.9033C39.3507 20.4091 36.9057 18.5462 34.053 17.6297C31.2003 16.7132 28.115 16.7994 25.3192 17.8738C22.5234 18.9482 20.1888 20.9448 18.7103 23.5257C17.2318 26.1067 16.7002 29.1135 17.2056 32.0374" stroke="white" stroke-width="0.776426" stroke-linecap="round" stroke-linejoin="round"/>
<path d="M15 31.0503L17.2852 33.1467L19.4049 30.8867" stroke="white" stroke-width="0.776426" stroke-linecap="round" stroke-linejoin="round"/>
<path d="M19.1855 37.0506C20.851 39.4878 23.3104 41.2872 26.1543 42.1491C28.9981 43.011 32.0547 42.8834 34.815 41.7876C37.5752 40.6918 39.8726 38.6939 41.3245 36.1266C42.7764 33.5593 43.2952 30.5776 42.7944 27.678" stroke="white" stroke-width="0.776426" stroke-linecap="round" stroke-linejoin="round"/>
<path d="M44.9987 28.6681L42.7135 26.5717L40.5938 28.8317" stroke="white" stroke-width="0.776426" stroke-linecap="round" stroke-linejoin="round"/>
<path d="M36.3701 25.9754V24.7055C36.3701 24.6973 36.3697 24.6894 36.3692 24.6814C36.3689 24.6767 36.3674 24.6724 36.3669 24.6677C36.2983 23.401 32.8254 22.8231 29.5942 22.8231C26.3306 22.8231 22.8181 23.4122 22.8181 24.7055V27.3301C22.8181 27.7885 23.245 28.1755 24.0859 28.4855C22.9071 28.7444 21.8075 29.1756 21.7387 29.8829C21.7336 29.9052 21.7305 29.9281 21.7305 29.9519V32.5764C21.7305 33 22.0989 33.3636 22.8181 33.6602V35.1876C22.8181 36.481 26.3306 37.0701 29.5942 37.0701C32.8577 37.0701 36.3701 36.481 36.3701 35.1876V32.5631C36.3701 32.5392 36.3669 32.5161 36.3617 32.4937C36.3254 32.1225 36.0023 31.7971 35.3914 31.5246C36.7847 31.2745 38.2735 30.808 38.2735 29.9546V27.3301C38.2735 26.7678 37.6331 26.3125 36.3701 25.9754ZM37.6372 27.3301C37.6372 27.3411 37.6345 27.3534 37.63 27.3664C37.6285 27.3706 37.6258 27.3752 37.6238 27.3796C37.6197 27.3888 37.6149 27.3983 37.6085 27.4084C37.6049 27.414 37.6003 27.42 37.596 27.4258C37.5889 27.4355 37.5809 27.4455 37.5717 27.4558C37.5659 27.4623 37.5596 27.4689 37.553 27.4756C37.5426 27.4862 37.5308 27.4971 37.5183 27.5082C37.5104 27.5152 37.5027 27.5221 37.4939 27.5293C37.4792 27.5414 37.4624 27.5539 37.4452 27.5665C37.4361 27.5732 37.4277 27.5797 37.4179 27.5865C37.3929 27.6037 37.3653 27.6214 37.3356 27.6394C37.3316 27.6418 37.3284 27.6441 37.3243 27.6465C37.2899 27.667 37.252 27.6879 37.2113 27.709C37.1987 27.7156 37.1842 27.7224 37.1709 27.729C37.1413 27.7438 37.1109 27.7586 37.0781 27.7737C37.0601 27.782 37.0406 27.7903 37.0216 27.7986C36.9902 27.8124 36.9579 27.8262 36.9238 27.84C36.902 27.8489 36.8794 27.8578 36.8564 27.8667C36.8211 27.8804 36.7841 27.8941 36.746 27.9079C36.7214 27.9168 36.6968 27.9256 36.671 27.9345C36.6296 27.9488 36.5857 27.9631 36.5412 27.9773C36.5154 27.9856 36.4905 27.9939 36.4636 28.0021C36.4082 28.0191 36.3494 28.036 36.2894 28.0529C36.2703 28.0582 36.2528 28.0636 36.2333 28.069C36.1537 28.0907 36.0698 28.1122 35.9822 28.1335C35.954 28.1403 35.9233 28.147 35.8942 28.1537C35.845 28.1652 35.7944 28.1767 35.7427 28.188C35.7464 28.1857 35.7497 28.1832 35.7534 28.181C35.7956 28.1553 35.8365 28.1292 35.8751 28.1022C35.876 28.1015 35.877 28.101 35.8779 28.1004C35.9175 28.0726 35.9546 28.0439 35.9902 28.0147C36 28.0066 36.0092 27.9983 36.0187 27.9901C36.0439 27.9684 36.068 27.9463 36.0908 27.9238C36.1006 27.9141 36.1103 27.9044 36.1196 27.8946C36.1426 27.8704 36.1639 27.8458 36.184 27.8207C36.1899 27.8133 36.1965 27.806 36.2022 27.7985C36.2269 27.766 36.249 27.7328 36.2685 27.6988C36.2728 27.6914 36.276 27.6836 36.28 27.6761C36.2945 27.6491 36.3074 27.6217 36.3184 27.5937C36.323 27.5822 36.3269 27.5705 36.3309 27.5587C36.3397 27.5329 36.3468 27.5066 36.3525 27.4799C36.355 27.4685 36.3579 27.4572 36.3598 27.4456C36.366 27.4078 36.3701 27.3695 36.3701 27.3301V26.6291C37.393 26.9267 37.6372 27.2358 37.6372 27.3301ZM29.5942 23.4524C33.5667 23.4524 35.7338 24.2803 35.7338 24.7055C35.7338 24.7139 35.7309 24.7235 35.7283 24.7329C35.7266 24.7396 35.7242 24.7459 35.7234 24.7477C35.7187 24.7592 35.7141 24.7672 35.704 24.7811C35.6893 24.8018 35.6725 24.8223 35.6655 24.8315C35.6427 24.8559 35.6184 24.8805 35.5787 24.9126C35.5714 24.919 35.5631 24.9243 35.5551 24.9302L35.5273 24.9509C35.5012 24.9702 35.471 24.9892 35.431 25.0148C35.427 25.0175 35.4233 25.0201 35.4197 25.0227C35.3867 25.0423 35.3502 25.0623 35.3113 25.0826C35.2391 25.119 35.1603 25.1552 35.0784 25.191C34.9512 25.245 34.8035 25.2999 34.6321 25.3547C34.5996 25.3653 34.5668 25.3753 34.5338 25.3853C34.476 25.4027 34.417 25.4202 34.3543 25.4375C34.3417 25.441 34.3293 25.4444 34.3169 25.4477C34.1642 25.4891 33.9962 25.5298 33.8138 25.5691C33.8072 25.5703 33.8005 25.5712 33.7939 25.5728C33.7544 25.5826 33.7132 25.5904 33.6704 25.5988C33.6392 25.6052 33.6068 25.6114 33.5747 25.6177C33.515 25.6295 33.4549 25.6411 33.3934 25.6524C33.2902 25.6711 33.1844 25.6895 33.0729 25.7072C32.038 25.8719 30.835 25.9587 29.5942 25.9587C29.3726 25.9587 29.1536 25.956 28.9322 25.9478C28.7425 25.9452 28.5582 25.9374 28.3767 25.9294L28.0814 25.9134C27.9366 25.9054 27.792 25.895 27.6537 25.8843L27.5252 25.874C27.4719 25.8696 27.4178 25.8657 27.365 25.8609C27.3448 25.8584 27.3247 25.8562 27.3047 25.8542L27.2527 25.8485C27.2444 25.8475 27.2345 25.8467 27.2247 25.8462C27.0525 25.8301 26.8811 25.8109 26.711 25.79C26.683 25.7865 26.6547 25.7832 26.6268 25.7796C26.4543 25.7576 26.2831 25.7337 26.1152 25.7072C24.1047 25.388 23.4543 24.8946 23.4543 24.7055C23.4543 24.2803 25.6214 23.4524 29.5942 23.4524ZM23.4543 27.3301V25.5687C23.4617 25.5731 23.4705 25.5769 23.4779 25.5812C23.5438 25.6196 23.6134 25.6564 23.6865 25.6919C23.7128 25.7046 23.7404 25.7167 23.7674 25.7291C23.8266 25.7561 23.887 25.7823 23.9498 25.8076C23.9809 25.8201 24.012 25.8325 24.0439 25.8446C24.1098 25.8696 24.1772 25.8935 24.246 25.9168C24.2746 25.9265 24.3024 25.9365 24.3315 25.9459C24.4291 25.9774 24.5286 26.0078 24.6304 26.0362C24.64 26.0388 24.6499 26.0411 24.6594 26.0438C24.7528 26.0695 24.8474 26.0938 24.943 26.117C24.9785 26.1257 25.0141 26.1337 25.0497 26.1419C25.1215 26.1586 25.1932 26.1747 25.2655 26.1901C25.304 26.1983 25.3422 26.2062 25.3807 26.214C25.4545 26.229 25.528 26.2432 25.6016 26.2569C25.6349 26.2631 25.668 26.2695 25.7011 26.2755C25.8063 26.2943 25.911 26.3122 26.0141 26.3286C26.1871 26.3561 26.366 26.3807 26.5473 26.4039C26.5773 26.4077 26.6071 26.4114 26.6372 26.415C27.1725 26.4811 27.7395 26.5288 28.3257 26.557L28.3457 26.558C28.3512 26.5583 28.3567 26.5583 28.3622 26.5586C28.7662 26.5774 29.1778 26.5879 29.5942 26.5879C29.9127 26.5879 30.229 26.5823 30.5409 26.5713C31.4766 26.5381 32.3731 26.4558 33.174 26.3286C33.4292 26.2881 33.6928 26.2397 33.9543 26.1835C33.9595 26.1826 33.9654 26.1818 33.9698 26.1809C34.0228 26.1697 34.076 26.1584 34.1162 26.1476C34.1305 26.1445 34.1436 26.1407 34.1578 26.1374C34.2258 26.1215 34.2933 26.1051 34.3604 26.088C34.3676 26.0861 34.3754 26.0845 34.3826 26.0826C34.3953 26.0793 34.41 26.075 34.4231 26.0715C34.4891 26.0542 34.5546 26.0365 34.6193 26.0179C34.6274 26.0156 34.6349 26.0132 34.643 26.0109C34.7336 25.9845 34.8222 25.9569 34.9092 25.928C34.9532 25.9148 34.9946 25.9008 35.0246 25.8895L35.0609 25.8774C35.1385 25.8489 35.2104 25.8204 35.2825 25.7907C35.2862 25.7892 35.2894 25.7876 35.293 25.7861C35.3311 25.7702 35.3671 25.7534 35.4038 25.7368C35.4315 25.7243 35.4595 25.7116 35.4863 25.6989C35.5135 25.6859 35.5408 25.6729 35.567 25.6595C35.5844 25.6509 35.6026 25.6426 35.6197 25.6338C35.6518 25.617 35.6839 25.5988 35.715 25.581L35.7321 25.5705C35.7328 25.5701 35.7332 25.5699 35.7338 25.5697V26.2195V27.3301C35.7338 27.3702 35.7051 27.4228 35.6425 27.4838C35.3713 27.7481 34.4633 28.17 32.4932 28.4136C31.8698 28.4921 31.2027 28.5439 30.5098 28.5672C30.2151 28.5779 29.9069 28.5832 29.5942 28.5832C28.1249 28.5832 26.7527 28.4673 25.6287 28.2483C25.4478 28.2115 25.2778 28.1746 25.1148 28.1348C23.7526 27.8075 23.4543 27.4429 23.4543 27.3301ZM24.7215 29.0009V29.9546C24.7215 30.0034 24.728 30.0511 24.7376 30.0983C24.7403 30.1116 24.7439 30.1247 24.7474 30.1378C24.7572 30.175 24.77 30.2116 24.7858 30.2478C24.7904 30.2582 24.794 30.2688 24.7991 30.2791C24.8211 30.3238 24.8477 30.3677 24.8791 30.4108C24.8859 30.4201 24.8942 30.4292 24.9014 30.4385C24.9286 30.4732 24.9589 30.5074 24.9924 30.541C25.0039 30.5527 25.0155 30.5643 25.0278 30.5758C25.0704 30.6156 25.1161 30.6549 25.1676 30.6931C25.1695 30.6945 25.171 30.6959 25.1728 30.6973C25.2266 30.737 25.2868 30.7755 25.3502 30.8135C25.3671 30.8236 25.3849 30.8336 25.4025 30.8436C25.4551 30.8734 25.5108 30.9028 25.5694 30.9315C25.5864 30.9398 25.6025 30.9483 25.6199 30.9565C25.6951 30.992 25.7747 31.0266 25.8593 31.0603C25.8627 31.0616 25.8655 31.0631 25.8689 31.0644C25.7743 31.0549 25.681 31.0442 25.5883 31.031C25.5816 31.0299 25.5744 31.0293 25.5671 31.0287C25.3824 31.0078 25.2028 30.982 25.0276 30.9535C23.0171 30.6344 22.3667 30.141 22.3667 29.9519C22.3667 29.7704 22.9521 29.3178 24.7215 29.0009ZM22.3667 32.5764V30.8153C22.3773 30.8215 22.3898 30.827 22.4005 30.8332C22.463 30.8692 22.5284 30.9041 22.5973 30.9375C22.6251 30.951 22.6544 30.9639 22.6832 30.977C22.7407 31.0032 22.7996 31.0287 22.8605 31.0533C22.8926 31.0662 22.9247 31.079 22.9575 31.0914C23.0226 31.1161 23.0892 31.1398 23.1572 31.1628C23.1862 31.1726 23.2144 31.1828 23.2439 31.1923C23.3417 31.2239 23.4414 31.2543 23.5434 31.2827C23.5505 31.2847 23.5578 31.2864 23.565 31.2884C23.6609 31.3149 23.7584 31.3399 23.8568 31.3637C23.8902 31.3718 23.9237 31.3794 23.9573 31.3872C24.0315 31.4044 24.1058 31.4211 24.1806 31.437C24.2169 31.4447 24.253 31.4523 24.2895 31.4597C24.3657 31.4751 24.4416 31.4898 24.5176 31.5039C24.5489 31.5098 24.5802 31.5158 24.6114 31.5214C24.7171 31.5404 24.8222 31.5584 24.9257 31.5748C25.1316 31.6082 25.3207 31.6344 25.504 31.6549C25.5058 31.6551 25.5079 31.6553 25.5098 31.6555C25.6222 31.6715 25.7345 31.685 25.842 31.6948C26.0719 31.7221 26.3153 31.7444 26.5499 31.7598C26.6023 31.7657 26.6545 31.769 26.6941 31.7708C26.7825 31.7796 26.8739 31.7856 26.9536 31.7878C27.0652 31.7956 27.1792 31.8007 27.2935 31.8061L27.3148 31.8071C27.3676 31.8097 27.4205 31.812 27.4735 31.814L27.7572 31.8241C27.8442 31.8265 27.9316 31.829 28.0149 31.829C28.0157 31.829 28.0165 31.829 28.0172 31.829C28.1793 31.8317 28.3415 31.8343 28.5064 31.8343C28.6715 31.8343 28.8336 31.8317 28.9952 31.829C29.1669 31.8263 29.3359 31.8212 29.5024 31.8159C29.5028 31.8159 29.5233 31.8153 29.5237 31.8153C29.639 31.8112 29.7507 31.8055 29.8582 31.7993C29.8952 31.7974 29.9334 31.796 29.97 31.794C30.2872 31.8114 30.6 31.8217 30.9093 31.8286C31.0013 31.8306 31.0919 31.8314 31.183 31.8325C31.2876 31.8337 31.3946 31.837 31.4976 31.837C31.6357 31.837 31.7716 31.8343 31.9081 31.8323C31.9699 31.8314 32.0325 31.8315 32.0938 31.8302C32.3738 31.8241 32.6486 31.8129 32.9197 31.7984C32.9936 31.7944 33.0666 31.7899 33.1397 31.7853C33.4195 31.7678 33.6957 31.7474 33.9636 31.7208C33.9677 31.7206 33.9718 31.7204 33.976 31.72C34.1386 31.7041 34.2968 31.6859 34.4525 31.6666C34.4865 31.6624 34.5203 31.6583 34.554 31.6539C34.5844 31.65 34.616 31.6465 34.6462 31.6424V31.6918V32.5764C34.6462 32.6002 34.6394 32.6255 34.6256 32.6518C34.4197 33.0472 32.6704 33.7033 29.389 33.8134C29.3821 33.8134 29.3729 33.8135 29.3699 33.8136C29.0917 33.8243 28.8011 33.8296 28.5064 33.8296C27.9756 33.8296 27.4546 33.8138 26.9533 33.7834C25.4496 33.6923 24.1238 33.4704 23.2453 33.1522C22.5505 32.9013 22.3667 32.6659 22.3667 32.5764ZM35.7338 35.1876C35.7338 35.6129 33.5667 36.4408 29.5942 36.4408C25.6214 36.4408 23.4543 35.6129 23.4543 35.1876V33.8816C23.467 33.8853 23.4806 33.8887 23.4934 33.8924C23.5292 33.9026 23.5661 33.9125 23.6028 33.9225C23.6524 33.9359 23.7023 33.9493 23.7535 33.9623C23.7929 33.9723 23.8329 33.9821 23.8732 33.9918C23.9247 34.0043 23.9768 34.0165 24.0298 34.0285C24.0713 34.0378 24.113 34.0471 24.1554 34.0562C24.2097 34.0679 24.2649 34.0793 24.3205 34.0905C24.3639 34.0992 24.4071 34.1079 24.4512 34.1164C24.5092 34.1274 24.5684 34.138 24.6277 34.1486C24.6711 34.1563 24.7139 34.1643 24.758 34.1717C24.8253 34.1831 24.8941 34.1939 24.9629 34.2047C25.0007 34.2106 25.0378 34.2168 25.0761 34.2225C25.1826 34.2384 25.2908 34.2537 25.4007 34.2681C25.4293 34.2718 25.4588 34.2751 25.4875 34.2787C25.5713 34.2893 25.6555 34.2997 25.741 34.3094C25.785 34.3144 25.8298 34.3189 25.8742 34.3237C25.9461 34.3313 26.0181 34.339 26.0912 34.3461C26.14 34.3508 26.1895 34.3551 26.2389 34.3595C26.3088 34.3658 26.3789 34.372 26.4497 34.3777C26.5016 34.3819 26.5537 34.3858 26.606 34.3896C26.6758 34.3948 26.7459 34.3997 26.8165 34.4043C26.8698 34.4078 26.9232 34.4111 26.9769 34.4143C27.0486 34.4185 27.1208 34.4223 27.1932 34.4259C27.2461 34.4285 27.2988 34.4312 27.352 34.4335C27.4279 34.4368 27.5042 34.4396 27.5808 34.4422C27.6316 34.444 27.6821 34.446 27.7331 34.4474C27.8173 34.4499 27.9021 34.4516 27.9869 34.4532C28.0307 34.4541 28.0741 34.4553 28.118 34.4559C28.2469 34.4578 28.3763 34.4588 28.5064 34.4588C28.8092 34.4588 29.1081 34.4533 29.3821 34.4427C29.3839 34.4427 29.3894 34.4427 29.3949 34.4426C29.4606 34.445 29.5259 34.4453 29.5942 34.4453C30.8696 34.4453 32.1076 34.3556 33.1738 34.186C33.2772 34.1696 33.3822 34.1516 33.4877 34.1327C33.5197 34.127 33.5517 34.1208 33.5838 34.1148C33.659 34.1009 33.7341 34.0864 33.8096 34.071C33.8466 34.0635 33.8833 34.0559 33.9203 34.048C33.9945 34.0323 34.0682 34.0157 34.1419 33.9986C34.176 33.9907 34.2099 33.9831 34.2438 33.9749C34.3423 33.951 34.4398 33.926 34.5359 33.8994C34.5428 33.8975 34.55 33.8959 34.5569 33.8939C34.6591 33.8654 34.7589 33.8351 34.8569 33.8034C34.8859 33.794 34.9136 33.784 34.9421 33.7744C35.0107 33.7512 35.078 33.7273 35.1436 33.7024C35.176 33.6901 35.2076 33.6776 35.2392 33.6648C35.3009 33.64 35.3603 33.6142 35.4185 33.5877C35.4467 33.5749 35.4754 33.5623 35.5028 33.549C35.573 33.5149 35.6397 33.4794 35.7034 33.4426C35.713 33.4371 35.7243 33.4321 35.7338 33.4265V35.1876ZM35.7338 32.5631C35.7338 32.5751 35.7311 32.5883 35.7257 32.6026C35.7241 32.6068 35.7207 32.6116 35.7186 32.6159C35.7137 32.6265 35.7088 32.6371 35.7008 32.6487C35.697 32.6543 35.691 32.6606 35.6865 32.6664C35.6778 32.6776 35.6695 32.6887 35.6581 32.7007C35.6519 32.7072 35.6434 32.7143 35.6364 32.7211C35.6238 32.7332 35.6117 32.7452 35.5964 32.7579C35.5875 32.7653 35.5762 32.7732 35.5663 32.7808C35.5499 32.7935 35.5339 32.8061 35.5147 32.8194C35.5027 32.8277 35.4881 32.8364 35.4749 32.845C35.4548 32.858 35.435 32.871 35.4122 32.8844C35.3964 32.8937 35.378 32.9033 35.3608 32.9128C35.3372 32.9259 35.314 32.9389 35.2879 32.9523C35.2677 32.9625 35.2448 32.973 35.2231 32.9835C35.1962 32.9963 35.1699 33.0092 35.1406 33.0222C35.1359 33.0243 35.1305 33.0264 35.1257 33.0285C35.1282 33.0251 35.1298 33.0216 35.1323 33.0182C35.1458 32.9991 35.1573 32.9795 35.1692 32.96C35.1784 32.9447 35.1885 32.9297 35.1966 32.9141C35.2077 32.893 35.2163 32.8712 35.2253 32.8496C35.2314 32.835 35.2385 32.8207 35.2436 32.8059C35.2521 32.7812 35.2576 32.7558 35.2633 32.7304C35.2662 32.718 35.2704 32.7059 35.2725 32.6933C35.2789 32.655 35.2825 32.6161 35.2825 32.5764V32.1698C35.6298 32.3472 35.7338 32.4963 35.7338 32.5631ZM37.6372 29.9546C37.6372 30.1467 36.9718 30.6469 34.9136 30.9671C34.6048 31.0162 34.2718 31.0586 33.9236 31.0928C33.919 31.093 33.9147 31.0934 33.9101 31.0939C33.6498 31.1198 33.3809 31.1396 33.109 31.1569C33.0355 31.1615 32.962 31.1661 32.8877 31.1701C32.6244 31.1843 32.3571 31.1952 32.0843 31.201C32.0241 31.2023 31.9626 31.2022 31.902 31.2031C31.6669 31.2065 31.4282 31.2063 31.1868 31.2033C31.1012 31.2022 31.0159 31.2015 30.9291 31.1996C30.6218 31.1928 30.3113 31.1825 29.9952 31.1651C29.9913 31.165 29.9828 31.165 29.9752 31.165C28.9567 31.1055 28.005 30.9807 27.2233 30.8044C27.2152 30.8026 27.2063 30.8009 27.1972 30.7997C26.1653 30.5706 25.6828 30.3108 25.482 30.1338C25.3908 30.0534 25.3577 29.9901 25.3577 29.9546V28.835C25.4054 28.845 25.4536 28.855 25.5029 28.8651C26.6694 29.0924 28.0843 29.2125 29.5942 29.2125C29.754 29.2125 29.9125 29.2111 30.0689 29.2084C30.0921 29.2079 30.1143 29.207 30.1374 29.2066C30.267 29.204 30.396 29.201 30.5216 29.1965C30.8367 29.2071 31.1648 29.2125 31.4976 29.2125C32.0545 29.2125 32.5974 29.1961 33.1106 29.1635C33.818 29.1201 34.4797 29.0492 35.0774 28.9531C35.1801 28.9368 35.2843 28.919 35.389 28.9003C35.4237 28.8941 35.4584 28.8873 35.4933 28.8808C35.5653 28.8674 35.6372 28.8535 35.7095 28.8389C35.7489 28.8309 35.788 28.8227 35.8274 28.8143C35.8985 28.7992 35.969 28.7834 36.0396 28.767C36.0763 28.7585 36.113 28.7502 36.1496 28.7413C36.2425 28.7188 36.3343 28.6951 36.4251 28.6702C36.4373 28.6668 36.4498 28.6638 36.462 28.6605C36.5631 28.6323 36.6618 28.6022 36.7587 28.5709C36.7894 28.561 36.8189 28.5504 36.8491 28.5401C36.9159 28.5174 36.9815 28.4942 37.0455 28.4699C37.079 28.4572 37.1116 28.4443 37.1441 28.4311C37.2045 28.4068 37.2627 28.3816 37.3196 28.3557C37.349 28.3423 37.3788 28.3292 37.4072 28.3154C37.4753 28.2823 37.5398 28.2479 37.6017 28.2123C37.6129 28.2058 37.6262 28.2 37.6372 28.1934V29.9546Z" fill="white"/>
<defs>
<linearGradient id="paint0_linear_6531_3699" x1="30" y1="0" x2="30" y2="60" gradientUnits="userSpaceOnUse">
<stop stop-color="#D641D9"/>
<stop offset="1" stop-color="#A92CAB"/>
</linearGradient>
</defs>
</svg>
