<svg width="60" height="60" viewBox="0 0 60 60" fill="none" xmlns="http://www.w3.org/2000/svg">
<rect width="60" height="60" rx="12" fill="url(#paint0_linear_6531_3792)"/>
<path d="M24.1642 35.2958V34.6632C24.9239 33.9817 25.4361 33.0536 25.6165 32.0316C25.9357 31.9802 26.2268 31.8132 26.4374 31.5604C26.6481 31.3076 26.7646 30.9857 26.766 30.6522C26.7652 30.2826 26.6227 29.9283 26.3697 29.6666C26.3094 29.6062 26.2443 29.551 26.1752 29.5015V28.9452C26.1886 27.7478 25.787 26.5848 25.0429 25.6658C24.7032 25.2365 24.2762 24.8896 23.7921 24.6495C23.3081 24.4094 22.7788 24.282 22.2418 24.2763C20.0732 24.2763 18.3033 26.372 18.3033 28.9452V29.5041C18.142 29.6153 18.0058 29.7611 17.9041 29.9317C17.8024 30.1023 17.7377 30.2935 17.7143 30.4923C17.691 30.6911 17.7095 30.8927 17.7687 31.0834C17.8278 31.2741 17.9263 31.4494 18.0572 31.5972L18.0941 31.6378C18.2976 31.8493 18.5617 31.9874 18.8473 32.0316C19.0288 33.0532 19.5408 33.981 20.2996 34.6632V35.2958C19.1107 35.4964 15 36.3957 15 38.9486V41.6793L15.1674 41.7936C15.2978 41.88 18.3895 43.9325 22.2418 43.9325C26.094 43.9325 29.1857 41.88 29.3161 41.7936L29.4835 41.6793V38.9486C29.4835 36.3957 25.3728 35.4964 24.1642 35.2958ZM28.745 41.2678C28.0632 41.6742 25.3876 43.1704 22.2418 43.1704C19.0959 43.1704 16.4203 41.6742 15.7385 41.2602V38.9486C15.7385 37.0739 19.3446 36.1798 20.7353 35.9943L21.0553 35.9511V34.2797L20.9076 34.1704C20.1443 33.5364 19.6542 32.6172 19.5439 31.6124L19.4972 31.2848H19.0664C18.9869 31.2848 18.9081 31.2687 18.8346 31.2373C18.7611 31.2059 18.6944 31.1599 18.6381 31.1019L18.6209 31.0841C18.5525 31.0103 18.5025 30.9204 18.4752 30.8223C18.4479 30.7241 18.4442 30.6206 18.4643 30.5206C18.4844 30.4207 18.5277 30.3272 18.5906 30.2484C18.6535 30.1695 18.734 30.1076 18.8252 30.068L19.0467 29.9689V28.9452C19.0467 26.7911 20.4793 25.0384 22.2467 25.0384C22.6753 25.0444 23.0975 25.1471 23.4836 25.3393C23.8697 25.5315 24.2103 25.8085 24.4817 26.151C25.114 26.9343 25.4529 27.9258 25.4368 28.9452V29.9867L25.6583 30.0858C25.7284 30.1172 25.7925 30.161 25.8479 30.2153C25.9603 30.3313 26.0246 30.4877 26.0274 30.6517C26.0301 30.8157 25.9711 30.9743 25.8626 31.0942C25.8056 31.1574 25.7367 31.2078 25.6601 31.2423C25.5834 31.2768 25.5007 31.2947 25.4171 31.2949H24.9863L24.9396 31.6226C24.829 32.6273 24.339 33.5464 23.5759 34.1806L23.4257 34.2949V35.9613L23.7482 36.0045C25.1389 36.1899 28.745 37.0815 28.745 38.9587V41.2678Z" fill="white"/>
<path d="M26.8083 23.1725C27.0228 23.3784 27.3013 23.5129 27.6024 23.5559C27.7926 24.5509 28.3326 25.4546 29.1336 26.1182V26.7266C28.3203 26.8575 27.52 27.0527 26.7408 27.3103L27.0003 28.0078C27.8353 27.7347 28.6956 27.5376 29.5695 27.4191L29.9121 27.3771V25.7546L29.7538 25.6458C28.9492 25.0283 28.4326 24.1334 28.3161 23.1552L28.272 22.8337H27.8126C27.6472 22.8332 27.4883 22.7721 27.3689 22.663L27.3481 22.6407C27.235 22.5263 27.1719 22.375 27.1716 22.2178C27.1719 22.0985 27.2089 21.982 27.2781 21.8826C27.3473 21.7832 27.4457 21.7054 27.5609 21.6589L27.7945 21.5624V20.5459C27.7945 18.4485 29.31 16.742 31.163 16.742C31.6161 16.7487 32.0622 16.8501 32.4698 17.0389C32.8774 17.2278 33.2366 17.4996 33.5219 17.8352C34.1901 18.5972 34.5484 19.5628 34.5315 20.5558V21.5698L34.765 21.6687C34.8399 21.6975 34.9079 21.7404 34.9648 21.7949C35.0525 21.8816 35.1114 21.991 35.1342 22.1094C35.157 22.2278 35.1428 22.35 35.0933 22.4608C35.0437 22.5715 34.9611 22.6659 34.8557 22.7322C34.7502 22.7986 34.6266 22.8338 34.5003 22.8337H34.054L34.0072 23.1527C33.8913 24.1318 33.3747 25.0277 32.5695 25.6458L32.4112 25.7571V27.3771L32.7512 27.4191C34.2149 27.5997 38.0167 28.4653 38.0167 30.2955V30.4835H38.7953V30.2955C38.7953 27.8074 34.464 26.9344 33.1898 26.7315V26.1231C33.9907 25.4596 34.5308 24.5559 34.7209 23.5608C35.0337 23.511 35.3207 23.3651 35.5384 23.1453C35.7845 22.8933 35.9217 22.5621 35.9225 22.2178C35.9224 21.9972 35.8656 21.7799 35.757 21.585C35.6484 21.3901 35.4914 21.2236 35.2996 21.0999V20.5459C35.3136 19.3788 34.8892 18.2455 34.1033 17.3504C33.7462 16.9345 33.298 16.5981 32.7901 16.3648C32.2821 16.1315 31.7268 16.007 31.163 16C28.8766 16 27.0107 18.0405 27.0107 20.5459V21.0999C26.841 21.2082 26.6978 21.3501 26.5909 21.516C26.484 21.6818 26.4159 21.8677 26.3912 22.0609C26.3666 22.2542 26.386 22.4502 26.4481 22.6356C26.5102 22.8211 26.6136 22.9915 26.7512 23.1354C26.7688 23.1496 26.788 23.162 26.8083 23.1725Z" fill="white"/>
<path d="M26.3809 33.2917C28.2627 34.1464 30.2984 34.6104 32.3648 34.6554V33.8372C30.4118 33.7956 28.4875 33.3586 26.7081 32.5526L26.3809 33.2917Z" fill="white"/>
<path d="M44.9998 38.4771V35.8452L43.5733 35.4279C43.4794 35.1465 43.3636 34.873 43.2269 34.6097L43.9415 33.2951L42.0896 31.4431L40.7832 32.1577C40.516 32.0193 40.2378 31.9035 39.9513 31.8113L39.5449 30.3795H36.913L36.4957 31.8059C36.2139 31.8987 35.9403 32.0146 35.6775 32.1523L34.3629 31.4377L32.5055 33.2951L33.2201 34.6015C33.0824 34.8643 32.9665 35.1379 32.8737 35.4197L31.4473 35.837V38.4771L32.8737 38.8944C32.9658 39.1809 33.0817 39.4591 33.2201 39.7263L32.5055 41.0327L34.3629 42.8737L35.6693 42.1591C35.9326 42.2957 36.2062 42.4116 36.4875 42.5055L36.913 43.932H39.5449L39.9622 42.5055C40.2482 42.4122 40.5264 42.2964 40.7941 42.1591L42.1005 42.8737L43.9524 41.0218L43.2379 39.7154C43.3751 39.4477 43.4909 39.1695 43.5842 38.8835L44.9998 38.4771ZM42.9297 40.8854L41.9423 41.8728L40.7805 41.2373L40.5841 41.3491C40.2462 41.5403 39.8862 41.6895 39.5122 41.7937L39.294 41.8537L38.9204 43.1137H37.5267L37.153 41.8428L36.9348 41.7828C36.5608 41.6786 36.2009 41.5293 35.8629 41.3382L35.6666 41.2264L34.5047 41.8619L33.5174 40.8745L34.1529 39.7127L34.041 39.5163C33.8499 39.1784 33.7006 38.8184 33.5965 38.4444L33.5365 38.2262L32.2655 37.8526V36.4589L33.5446 36.0852L33.6046 35.867C33.7088 35.493 33.8581 35.133 34.0492 34.7951L34.161 34.5988L33.5174 33.4369L34.5047 32.4496L35.6666 33.085L35.8629 32.9732C36.2009 32.7821 36.5608 32.6328 36.9348 32.5287L37.153 32.4687L37.5267 31.1977H38.9204L39.294 32.4768L39.5122 32.5368C39.8862 32.641 40.2462 32.7902 40.5841 32.9814L40.7805 33.0932L41.9423 32.4577L42.9297 33.4451L42.2942 34.6069L42.406 34.8033C42.5972 35.1412 42.7464 35.5012 42.8506 35.8752L42.9106 36.0934L44.1815 36.4589V37.8526L42.9106 38.2262L42.8506 38.4444C42.7464 38.8184 42.5972 39.1784 42.406 39.5163L42.2942 39.7127L42.9297 40.8854Z" fill="white"/>
<path d="M38.2252 33.1022C37.4227 33.1011 36.6379 33.3381 35.9702 33.7832C35.3025 34.2283 34.7818 34.8615 34.4741 35.6026C34.1664 36.3438 34.0854 37.1596 34.2415 37.9467C34.3976 38.7339 34.7837 39.457 35.351 40.0246C35.9182 40.5923 36.6411 40.9789 37.4282 41.1355C38.2152 41.2921 39.031 41.2117 39.7724 40.9045C40.5137 40.5973 41.1473 40.077 41.5928 39.4096C42.0384 38.7422 42.2759 37.9576 42.2754 37.1551C42.2739 36.0811 41.8468 35.0515 41.0877 34.2918C40.3285 33.5321 39.2992 33.1043 38.2252 33.1022ZM38.2252 40.3925C37.5846 40.3936 36.9582 40.2047 36.4251 39.8496C35.892 39.4945 35.4762 38.9893 35.2303 38.3978C34.9844 37.8063 34.9195 37.1552 35.0438 36.5269C35.1681 35.8985 35.476 35.3211 35.9286 34.8678C36.3811 34.4145 36.958 34.1056 37.5861 33.9803C38.2143 33.8549 38.8655 33.9187 39.4574 34.1636C40.0493 34.4085 40.5552 34.8234 40.9112 35.3559C41.2671 35.8884 41.4572 36.5146 41.4572 37.1551C41.455 38.0116 41.1138 38.8324 40.5081 39.4381C39.9025 40.0437 39.0817 40.3849 38.2252 40.3871V40.3925Z" fill="white"/>
<defs>
<linearGradient id="paint0_linear_6531_3792" x1="3.2112e-07" y1="3" x2="50" y2="60" gradientUnits="userSpaceOnUse">
<stop offset="0.0601093" stop-color="#EABB53"/>
<stop offset="0.493048" stop-color="#E8A955"/>
<stop offset="0.729578" stop-color="#E8A056"/>
<stop offset="1" stop-color="#E69356"/>
</linearGradient>
</defs>
</svg>
