<svg width="60" height="60" viewBox="0 0 60 60" fill="none" xmlns="http://www.w3.org/2000/svg">
<rect width="60" height="60" rx="12" fill="url(#paint0_linear_6531_3772)"/>
<path d="M34.0431 15.5552C30.8588 14.6639 27.4692 14.8498 24.4014 16.084C21.3337 17.3182 18.7597 19.5315 17.0798 22.3797C15.3999 25.2279 14.7083 28.5514 15.1125 31.8334C15.5166 35.1153 16.9939 38.1717 19.3146 40.5273C21.6353 42.8828 24.6694 44.4055 27.9449 44.8586C31.2205 45.3116 34.5539 44.6696 37.4269 43.0323C40.2998 41.3951 42.5512 38.8544 43.831 35.8054C45.1108 32.7564 45.3472 29.3699 44.5035 26.1726L43.4883 26.4406C44.2729 29.414 44.0531 32.5634 42.8629 35.399C41.6727 38.2346 39.5788 40.5974 36.907 42.1201C34.2351 43.6427 31.135 44.2398 28.0888 43.8185C25.0425 43.3971 22.2209 41.981 20.0626 39.7903C17.9044 37.5997 16.5305 34.7572 16.1546 31.705C15.7787 28.6528 16.4219 25.562 17.9842 22.9131C19.5465 20.2643 21.9403 18.2059 24.7933 17.0581C27.6463 15.9103 30.7987 15.7374 33.7601 16.5663L34.0431 15.5552Z" fill="white"/>
<path d="M33.9781 24.4722C33.9781 24.1501 33.7169 23.8889 33.3948 23.8889H25.5833C25.2612 23.8889 25 24.1501 25 24.4722C25 24.7944 25.2612 25.0556 25.5833 25.0556H28.0941C28.6378 25.0559 29.093 25.1614 29.4781 25.338C30.0542 25.6034 30.4835 26.0325 30.7808 26.5667C30.9861 26.9365 31.1184 27.358 31.183 27.7945H25.5833C25.2612 27.7945 25 28.0556 25 28.3778C25 28.7 25.2612 28.9611 25.5833 28.9611H31.1865C31.0908 29.6075 30.8373 30.2177 30.4389 30.6862C30.1802 30.9914 29.863 31.2409 29.4781 31.418C29.093 31.5945 28.6378 31.7 28.0941 31.7004L26.4202 31.7006C26.1736 31.7006 25.9538 31.8556 25.8709 32.0878C25.788 32.3201 25.86 32.5792 26.0509 32.7354L32.1884 37.757C32.4378 37.9611 32.8053 37.9243 33.0093 37.675C33.2133 37.4256 33.1766 37.0581 32.9272 36.8541L28.0541 32.867L28.0942 32.867C28.7906 32.8674 29.4202 32.7288 29.9651 32.4781C30.7841 32.1028 31.401 31.4792 31.8012 30.7547C32.1078 30.2005 32.2927 29.5872 32.3636 28.9611H33.3948C33.7169 28.9611 33.9781 28.7 33.9781 28.3778C33.9781 28.0556 33.7169 27.7945 33.3948 27.7945H32.3603C32.2585 26.8953 31.9241 26.0207 31.3293 25.3159C31.2528 25.2254 31.1697 25.1397 31.0846 25.0556H33.3948C33.7169 25.0556 33.9781 24.7944 33.9781 24.4722Z" fill="white" stroke="white" stroke-width="0.3"/>
<path d="M35.782 23.5616C35.6012 23.7424 35.6012 24.0355 35.782 24.2163C35.9628 24.3971 36.2559 24.3971 36.4367 24.2163L35.782 23.5616ZM43.462 16.9993C43.462 16.7436 43.2547 16.5363 42.999 16.5363L38.8324 16.5363C38.5767 16.5363 38.3694 16.7436 38.3694 16.9993C38.3694 17.255 38.5767 17.4622 38.8324 17.4622L42.5361 17.4622L42.5361 21.1659C42.5361 21.4216 42.7433 21.6289 42.999 21.6289C43.2547 21.6289 43.462 21.4216 43.462 21.1659L43.462 16.9993ZM36.4367 24.2163L43.3264 17.3266L42.6717 16.6719L35.782 23.5616L36.4367 24.2163Z" fill="white"/>
<defs>
<linearGradient id="paint0_linear_6531_3772" x1="30" y1="0" x2="30" y2="60" gradientUnits="userSpaceOnUse">
<stop stop-color="#1DC186"/>
<stop offset="1" stop-color="#27A066"/>
</linearGradient>
</defs>
</svg>
