<svg width="60" height="60" viewBox="0 0 60 60" fill="none" xmlns="http://www.w3.org/2000/svg">
<rect width="60" height="60" rx="12" fill="url(#paint0_linear_6531_3784)"/>
<path d="M26.9988 22.2V28.2L22.7988 32.4" stroke="white" stroke-linecap="round"/>
<path d="M38.8291 34.9819V34.2482C39.7104 33.4577 40.3045 32.3811 40.5137 31.1957C40.884 31.1361 41.2216 30.9424 41.466 30.6491C41.7103 30.3559 41.8454 29.9825 41.8471 29.5957C41.8461 29.1669 41.6809 28.756 41.3874 28.4525C41.3174 28.3823 41.242 28.3183 41.1618 28.261V27.6157C41.1773 26.2267 40.7115 24.8777 39.8484 23.8117C39.4544 23.3138 38.959 22.9114 38.3976 22.6329C37.8361 22.3544 37.2222 22.2066 36.5992 22.2C34.0838 22.2 32.0309 24.6309 32.0309 27.6157V28.2639C31.8437 28.3929 31.6857 28.5621 31.5678 28.7599C31.4499 28.9578 31.3748 29.1796 31.3477 29.4102C31.3206 29.6408 31.3421 29.8747 31.4107 30.0959C31.4793 30.3171 31.5935 30.5204 31.7454 30.6918L31.7882 30.739C32.0242 30.9843 32.3306 31.1444 32.6619 31.1957C32.8724 32.3806 33.4663 33.4568 34.3465 34.2482V34.9819C32.9674 35.2147 28.1992 36.2578 28.1992 39.219V42.3865L28.3934 42.5191C28.5447 42.6192 32.1308 45 36.5992 45C41.0676 45 44.6537 42.6192 44.8051 42.5191L44.9992 42.3865V39.219C44.9992 36.2578 40.231 35.2147 38.8291 34.9819ZM44.1427 41.9091C43.3518 42.3806 40.2482 44.1161 36.5992 44.1161C32.9503 44.1161 29.8467 42.3806 29.0558 41.9003V39.219C29.0558 37.0445 33.2386 36.0073 34.8518 35.7922L35.223 35.7421V33.8033L35.0517 33.6766C34.1663 32.9412 33.5979 31.8749 33.4699 30.7095L33.4157 30.3294H32.916C32.8238 30.3294 32.7324 30.3107 32.6472 30.2743C32.5619 30.2379 32.4845 30.1845 32.4192 30.1173L32.3992 30.0966C32.3199 30.011 32.2619 29.9068 32.2303 29.793C32.1986 29.6791 32.1943 29.559 32.2176 29.4431C32.2409 29.3271 32.2912 29.2187 32.3641 29.1272C32.437 29.0358 32.5304 28.964 32.6362 28.918L32.8932 28.8031V27.6157C32.8932 25.117 34.5549 23.084 36.6049 23.084C37.1021 23.091 37.5918 23.2101 38.0396 23.433C38.4875 23.656 38.8827 23.9773 39.1975 24.3745C39.9309 25.2832 40.324 26.4333 40.3053 27.6157V28.8237L40.5622 28.9387C40.6435 28.9751 40.7179 29.0259 40.7821 29.0889C40.9125 29.2234 40.9871 29.4049 40.9903 29.5951C40.9935 29.7853 40.925 29.9693 40.7992 30.1084C40.7331 30.1817 40.6531 30.2401 40.5642 30.2802C40.4753 30.3202 40.3794 30.341 40.2824 30.3412H39.7828L39.7285 30.7213C39.6003 31.8866 39.0319 32.9528 38.1467 33.6884L37.9726 33.821V35.7539L38.3466 35.804C39.9598 36.0191 44.1427 37.0533 44.1427 39.2308V41.9091Z" fill="white"/>
<path d="M36.9914 20.3538C35.7932 18.5526 34.1305 17.1088 32.179 16.1751C30.2276 15.2415 28.0601 14.8527 25.9058 15.05C23.7515 15.2472 21.6906 16.0232 19.9412 17.2957C18.1918 18.5682 16.8189 20.29 15.9678 22.2788C15.1166 24.2676 14.819 26.4496 15.1063 28.5937C15.3936 30.7378 16.2552 32.7644 17.5998 34.459C18.9445 36.1536 20.7222 37.4532 22.7449 38.2203C24.7677 38.9873 26.9601 39.1934 29.0903 38.8165L28.944 37.9894C26.9629 38.3398 24.9239 38.1482 23.0428 37.4349C21.1617 36.7215 19.5084 35.5128 18.2578 33.9369C17.0073 32.3609 16.206 30.4762 15.9389 28.4821C15.6717 26.4881 15.9485 24.4589 16.74 22.6093C17.5315 20.7597 18.8083 19.1584 20.4353 17.975C22.0623 16.7916 23.9789 16.0699 25.9824 15.8865C27.9859 15.703 30.0017 16.0646 31.8165 16.9329C33.6313 17.8012 35.1777 19.1439 36.292 20.819L36.9914 20.3538Z" fill="white"/>
<defs>
<linearGradient id="paint0_linear_6531_3784" x1="30" y1="0" x2="30" y2="60" gradientUnits="userSpaceOnUse">
<stop stop-color="#637EF2"/>
<stop offset="1" stop-color="#685AF1"/>
</linearGradient>
</defs>
</svg>
