<svg width="60" height="60" viewBox="0 0 60 60" fill="none" xmlns="http://www.w3.org/2000/svg">
<rect width="60" height="60" rx="12" fill="url(#paint0_linear_6531_3822)"/>
<path d="M21.9528 27.9906H21.5528V28.3906V30.0511L20.0397 30.6563L18.6553 29.9641L18.4252 29.8491L18.2251 30.0107L16.5512 31.3626L16.2839 31.5786L16.4571 31.8754L17.2587 33.2495L16.5347 35.0077H15.3219H14.9764L14.9261 35.3495L14.6043 37.5384L14.5565 37.8629L14.8655 37.9733L16.5107 38.5609L17.2528 40.151L16.4571 41.5152L16.2753 41.8268L16.5666 42.0397L18.2404 43.2629L18.4518 43.4174L18.6779 43.2854L20.0328 42.4951L21.4245 43.2167L21.8912 44.7918L21.976 45.0781H22.2747H24.206H24.538L24.5992 44.7518L24.947 42.8967L26.5216 42.1856L28.0668 43.5019L28.342 43.7363L28.6029 43.4862L30.148 42.0055L30.3842 41.7791L30.2092 41.5027L29.1134 39.7726L30.1059 37.9966H31.4163H31.8163V37.5966V35.4077V35.0979L31.5163 35.0204L29.7043 34.5528L29.1143 33.2744L30.1849 31.9221L30.3972 31.6539L30.1652 31.4025L28.6201 29.7287L28.4136 29.505L28.143 29.6444L26.1954 30.6477L24.9454 30.0477L24.5982 28.3121L24.5339 27.9906H24.206H21.9528Z" stroke="white" stroke-width="0.8"/>
<path d="M23.2405 40.0566C25.1681 40.0566 26.7306 38.4941 26.7306 36.5665C26.7306 34.639 25.1681 33.0764 23.2405 33.0764C21.313 33.0764 19.7504 34.639 19.7504 36.5665C19.7504 38.4941 21.313 40.0566 23.2405 40.0566Z" stroke="white" stroke-width="0.8"/>
<path d="M22.5974 25.6867L20.7305 24.7854L22.0824 21.5665L23.9494 22.2103L25.6232 20.4077L24.5288 17.8326L26.5888 16.2876L28.6489 17.8326L30.9021 17.2532L31.3528 15H34.2498L34.7004 17.2532L36.6961 17.8326L39.2069 16.2876L41.0738 17.8326L40.2369 20.0858L41.5245 22.2103H44.2283L45.0009 24.0773L42.7476 25.6867V28.3906L45.0009 29.8712L44.2283 31.9313L42.0395 31.4163L40.2369 33.7339L41.0738 35.9227L38.7562 37.7253L37.1468 35.9227L35.1511 36.5021L34.7004 38.8841L33.4772 39.2704" stroke="white" stroke-width="0.8"/>
<path d="M27.4256 28.0687C26.5887 26.3949 28.1981 21.5665 33.0908 21.5665C35.4728 21.8884 38.7303 23.3562 38.1123 28.4549C37.5972 30.0215 35.653 33.0644 31.9964 32.7039" stroke="white" stroke-width="0.8"/>
<path d="M21.9528 27.9906H21.5528V28.3906V30.0511L20.0397 30.6563L18.6553 29.9641L18.4252 29.8491L18.2251 30.0107L16.5512 31.3626L16.2839 31.5786L16.4571 31.8754L17.2587 33.2495L16.5347 35.0077H15.3219H14.9764L14.9261 35.3495L14.6043 37.5384L14.5565 37.8629L14.8655 37.9733L16.5107 38.5609L17.2528 40.151L16.4571 41.5152L16.2753 41.8268L16.5666 42.0397L18.2404 43.2629L18.4518 43.4174L18.6779 43.2854L20.0328 42.4951L21.4245 43.2167L21.8912 44.7918L21.976 45.0781H22.2747H24.206H24.538L24.5992 44.7518L24.947 42.8967L26.5216 42.1856L28.0668 43.5019L28.342 43.7363L28.6029 43.4862L30.148 42.0055L30.3842 41.7791L30.2092 41.5027L29.1134 39.7726L30.1059 37.9966H31.4163H31.8163V37.5966V35.4077V35.0979L31.5163 35.0204L29.7043 34.5528L29.1143 33.2744L30.1849 31.9221L30.3972 31.6539L30.1652 31.4025L28.6201 29.7287L28.4136 29.505L28.143 29.6444L26.1954 30.6477L24.9454 30.0477L24.5982 28.3121L24.5339 27.9906H24.206H21.9528Z" stroke="white" stroke-width="0.8"/>
<path d="M23.2405 40.0566C25.1681 40.0566 26.7306 38.4941 26.7306 36.5665C26.7306 34.639 25.1681 33.0764 23.2405 33.0764C21.313 33.0764 19.7504 34.639 19.7504 36.5665C19.7504 38.4941 21.313 40.0566 23.2405 40.0566Z" stroke="white" stroke-width="0.8"/>
<path d="M22.5974 25.6867L20.7305 24.7854L22.0824 21.5665L23.9494 22.2103L25.6232 20.4077L24.5288 17.8326L26.5888 16.2876L28.6489 17.8326L30.9021 17.2532L31.3528 15H34.2498L34.7004 17.2532L36.6961 17.8326L39.2069 16.2876L41.0738 17.8326L40.2369 20.0858L41.5245 22.2103H44.2283L45.0009 24.0773L42.7476 25.6867V28.3906L45.0009 29.8712L44.2283 31.9313L42.0395 31.4163L40.2369 33.7339L41.0738 35.9227L38.7562 37.7253L37.1468 35.9227L35.1511 36.5021L34.7004 38.8841L33.4772 39.2704" stroke="white" stroke-width="0.8"/>
<path d="M27.4256 28.0687C26.5887 26.3949 28.1981 21.5665 33.0908 21.5665C35.4728 21.8884 38.7303 23.3562 38.1123 28.4549C37.5972 30.0215 35.653 33.0644 31.9964 32.7039" stroke="white" stroke-width="0.8"/>
<defs>
<linearGradient id="paint0_linear_6531_3822" x1="30" y1="0" x2="30" y2="60" gradientUnits="userSpaceOnUse">
<stop stop-color="#5076E1"/>
<stop offset="1" stop-color="#3157CF"/>
</linearGradient>
</defs>
</svg>
