<svg width="60" height="60" viewBox="0 0 60 60" fill="none" xmlns="http://www.w3.org/2000/svg">
<rect width="60" height="60" rx="12" fill="url(#paint0_linear_6531_3715)"/>
<path d="M22.2026 18.458V16.7316C22.1233 16.1165 22.4288 14.9101 24.2861 15.0053H38.5728L44.9424 21.5534V42.9835C45.1011 43.4597 45.0257 44.4955 43.4542 44.8289H23.4527C22.9765 44.8091 22.0717 44.4122 22.2622 42.9835V31.4351" stroke="white" stroke-width="0.9"/>
<path d="M38.4531 15.1839V21.3153H44.644" stroke="white" stroke-width="0.9"/>
<path d="M29.4062 18.8746H36.7282" stroke="white" stroke-width="0.9"/>
<path d="M29.2871 21.3153H36.5495" stroke="white" stroke-width="0.9"/>
<path d="M31.4297 24.887H41.4304" stroke="white" stroke-width="0.9"/>
<path d="M31.5488 27.2086H41.2519" stroke="white" stroke-width="0.9"/>
<path d="M20.9531 19.4699V24.7679H26.9655" stroke="white" stroke-width="0.9"/>
<path d="M17.1426 24.6489C17.2815 25.8791 18.3689 28.3872 21.6072 28.5777" stroke="white" stroke-width="0.9"/>
<path d="M31.7871 35.8997L33.573 38.3403" stroke="white" stroke-width="0.9"/>
<path d="M35.6562 38.1617L39.8232 33.7567" stroke="white" stroke-width="0.9"/>
<path d="M26.9062 38.3999L29.2874 35.9592" stroke="white" stroke-width="0.9"/>
<circle cx="21.2504" cy="24.4703" r="5.80045" stroke="white" stroke-width="0.9"/>
<path d="M31.3369 34.7687C31.3369 35.3749 30.8454 35.8664 30.2391 35.8664C29.6329 35.8664 29.1414 35.3749 29.1414 34.7687C29.1414 34.1624 29.6329 33.6709 30.2391 33.6709C30.8454 33.6709 31.3369 34.1624 31.3369 34.7687Z" stroke="white" stroke-width="0.9"/>
<path d="M27.0517 39.4119C27.0517 40.0181 26.5602 40.5096 25.954 40.5096C25.3477 40.5096 24.8562 40.0181 24.8562 39.4119C24.8562 38.8056 25.3477 38.3141 25.954 38.3141C26.5602 38.3141 27.0517 38.8056 27.0517 39.4119Z" stroke="white" stroke-width="0.9"/>
<path d="M41.8134 32.3875C41.8134 32.9938 41.322 33.4852 40.7157 33.4852C40.1094 33.4852 39.618 32.9938 39.618 32.3875C39.618 31.7813 40.1094 31.2898 40.7157 31.2898C41.322 31.2898 41.8134 31.7813 41.8134 32.3875Z" stroke="white" stroke-width="0.9"/>
<path d="M35.5048 39.4119C35.5048 40.0181 35.0134 40.5096 34.4071 40.5096C33.8008 40.5096 33.3094 40.0181 33.3094 39.4119C33.3094 38.8056 33.8008 38.3141 34.4071 38.3141C35.0134 38.3141 35.5048 38.8056 35.5048 39.4119Z" stroke="white" stroke-width="0.9"/>
<defs>
<linearGradient id="paint0_linear_6531_3715" x1="30" y1="0" x2="30" y2="69" gradientUnits="userSpaceOnUse">
<stop offset="0.0601093" stop-color="#82D176"/>
<stop offset="1" stop-color="#52AB76"/>
</linearGradient>
</defs>
</svg>
