<svg width="60" height="60" viewBox="0 0 60 60" fill="none" xmlns="http://www.w3.org/2000/svg">
<rect width="60" height="60" rx="12" fill="url(#paint0_linear_6531_3734)"/>
<path d="M44.9906 23.5325C44.6873 18.8999 41.2445 16.7075 39.2977 16.0877C39.0959 16.0235 38.8854 16 38.6735 16H16.7275C16.3257 16 16 16.3257 16 16.7275V36.6612C16 37.058 16.318 37.3816 16.7147 37.3886L33.3944 37.6814M44.9906 23.5325C45.2933 28.1564 38.2186 29.9846 34.0697 30.3975C33.6889 30.4354 33.3944 30.7514 33.3944 31.134V37.6814M44.9906 23.5325C44.9906 27.3327 44.9906 36.0324 44.9906 40.4298C44.9906 44.5881 38.0775 45.1904 34.0572 44.9567C33.6807 44.9348 33.3944 44.6193 33.3944 44.2422V37.6814M20.9984 22.1074H26.9964M20.9984 24.5504H24.7971" stroke="white" stroke-linecap="round"/>
<path d="M39.2004 23.3822C39.2004 25.013 37.902 26.3351 36.3004 26.3351C34.6988 26.3351 33.4004 25.013 33.4004 23.3822C33.4004 21.7514 34.6988 20.4293 36.3004 20.4293C37.902 20.4293 39.2004 21.7514 39.2004 23.3822ZM34.5604 23.3822C34.5604 24.3607 35.3394 25.1539 36.3004 25.1539C37.2614 25.1539 38.0404 24.3607 38.0404 23.3822C38.0404 22.4037 37.2614 21.6105 36.3004 21.6105C35.3394 21.6105 34.5604 22.4037 34.5604 23.3822Z" fill="white"/>
<defs>
<linearGradient id="paint0_linear_6531_3734" x1="30" y1="0" x2="30" y2="60" gradientUnits="userSpaceOnUse">
<stop stop-color="#E96C6F"/>
<stop offset="1" stop-color="#DA4884"/>
</linearGradient>
</defs>
</svg>
