<svg width="60" height="60" viewBox="0 0 60 60" fill="none" xmlns="http://www.w3.org/2000/svg">
<rect width="60" height="60" rx="12" fill="url(#paint0_linear_6566_2125)"/>
<path d="M25.9004 24.904C25.9004 29.172 29.3724 32.643 33.6394 32.643C37.9064 32.643 41.3794 29.171 41.3794 24.904C41.3794 20.637 37.9064 17.165 33.6394 17.165C29.3724 17.165 25.9004 20.637 25.9004 24.904ZM33.6394 17.925C37.4884 17.925 40.6184 21.055 40.6184 24.904C40.6184 28.752 37.4874 31.883 33.6394 31.883C29.7914 31.883 26.6604 28.752 26.6604 24.904C26.6604 21.056 29.7924 17.925 33.6394 17.925Z" fill="white"/>
<path d="M33.372 28.759V30.24C33.372 30.45 33.542 30.62 33.753 30.62C33.962 30.62 34.132 30.45 34.132 30.24V28.761C34.349 28.731 34.554 28.687 34.729 28.63C35.523 28.364 35.899 27.502 35.904 27.002C35.912 25.967 35.271 25.499 34.224 24.82C33.794 24.54 32.488 23.689 32.488 23.038C32.488 22.601 32.753 21.775 33.754 21.775C34.707 21.775 35.192 22.414 35.216 22.446C35.336 22.614 35.573 22.654 35.744 22.533C35.915 22.411 35.955 22.174 35.833 22.003C35.808 21.966 35.239 21.2 34.133 21.046V19.566C34.133 19.356 33.963 19.186 33.754 19.186C33.543 19.186 33.373 19.356 33.373 19.566V21.053C32.295 21.229 31.728 22.136 31.728 23.039C31.728 23.975 32.781 24.787 33.81 25.458C34.863 26.141 35.148 26.409 35.143 26.996C35.142 27.194 34.945 27.757 34.49 27.909C33.897 28.104 33.082 28.194 32.025 27.146C31.877 26.999 31.636 27 31.488 27.148C31.342 27.297 31.342 27.538 31.491 27.685C32.184 28.375 32.818 28.667 33.372 28.759Z" fill="white"/>
<path d="M26.4132 29.355C26.1122 28.869 25.8602 28.351 25.6612 27.806C24.4832 26.634 23.7532 25.014 23.7532 23.225C23.7532 19.66 26.6542 16.759 30.2202 16.759C30.4972 16.759 30.7692 16.782 31.0372 16.817C31.5792 16.642 32.1422 16.519 32.7252 16.457C31.9432 16.166 31.1012 16 30.2192 16C26.2352 16 22.9922 19.241 22.9922 23.226C22.9932 25.811 24.3642 28.079 26.4132 29.355Z" fill="white"/>
<path d="M41.9052 36.957C41.5522 36.462 40.6562 36.304 39.5512 36.595C39.6962 36.3 39.7442 35.995 39.6142 35.707C39.5072 35.472 39.3112 35.303 39.0492 35.218C38.1112 34.913 36.3572 35.743 35.0662 36.482L34.4592 36.79C34.4162 36.812 34.3772 36.842 34.3472 36.877C33.9872 36.464 33.2152 36.029 31.5612 36.014C30.4892 36.005 29.7142 35.432 28.8952 34.826C28.1722 34.292 27.4252 33.74 26.4482 33.564C24.4582 33.208 21.4152 34.585 17.1512 37.781C17.0632 37.847 17.0082 37.948 17.0012 38.058C16.9922 38.168 17.0332 38.276 17.1112 38.353L20.3532 41.596C20.4242 41.667 20.5202 41.707 20.6222 41.707H23.3542C23.5382 41.707 24.4182 41.949 25.2682 42.183C26.6532 42.563 28.5472 43.084 30.4402 43.452C30.5572 43.474 30.6842 43.486 30.8212 43.486C33.5762 43.486 40.3952 39.167 41.4782 38.354C42.1602 37.841 42.1462 37.296 41.9052 36.957ZM41.0192 37.746C39.4352 38.934 32.5192 43.076 30.5812 42.707C28.7172 42.345 26.8392 41.829 25.4672 41.451C24.2312 41.112 23.6242 40.949 23.3512 40.949H20.7762L17.9562 38.128C21.8052 35.291 24.6112 34.007 26.3102 34.313C27.1132 34.458 27.7572 34.934 28.4402 35.438C29.3222 36.089 30.2322 36.763 31.5512 36.774C33.4452 36.79 33.8122 37.372 33.8782 37.549C33.9732 37.798 33.8332 38.043 33.6852 38.176C33.3282 38.498 30.9462 38.745 28.9442 38.79C28.7342 38.795 28.5682 38.969 28.5722 39.179C28.5782 39.388 28.7402 39.549 28.9612 39.55C30.0042 39.527 33.4632 39.399 34.1932 38.741C34.5592 38.411 34.7262 37.947 34.6522 37.507C34.7032 37.504 34.7542 37.491 34.8002 37.466L35.4252 37.149C37.3262 36.063 38.4392 35.818 38.8142 35.94C38.8962 35.966 38.9122 36.002 38.9202 36.02C39.0242 36.248 38.3602 36.982 37.5772 37.511C37.5712 37.515 35.4862 38.74 35.4862 38.74C35.3052 38.846 35.2452 39.079 35.3502 39.26C35.4222 39.381 35.5482 39.448 35.6782 39.448C35.7442 39.448 35.8112 39.431 35.8712 39.396C35.8712 39.396 38.1152 38.066 38.1682 38.033C39.8862 36.948 41.1192 37.166 41.2842 37.397C41.3142 37.439 41.2382 37.582 41.0192 37.746Z" fill="white"/>
<defs>
<linearGradient id="paint0_linear_6566_2125" x1="30" y1="0" x2="30" y2="69" gradientUnits="userSpaceOnUse">
<stop offset="0.0601093" stop-color="#82D176"/>
<stop offset="1" stop-color="#52AB76"/>
</linearGradient>
</defs>
</svg>
