<svg width="60" height="60" viewBox="0 0 60 60" fill="none" xmlns="http://www.w3.org/2000/svg">
<rect width="60" height="60" rx="12" fill="url(#paint0_linear_6531_3689)"/>
<path fill-rule="evenodd" clip-rule="evenodd" d="M39.2911 32.3544C39.2911 38.7861 34.0772 44 27.6456 44C21.2139 44 16 38.7861 16 32.3544C16 25.9228 21.2139 20.7089 27.6456 20.7089C30.4679 20.7089 33.0557 21.7128 35.0713 23.3831L35.3623 22.3355C33.2271 20.6885 30.5507 19.7089 27.6456 19.7089C20.6616 19.7089 15 25.3705 15 32.3544C15 39.3384 20.6616 45 27.6456 45C34.6295 45 40.2911 39.3384 40.2911 32.3544C40.2911 29.206 39.1405 26.3263 37.2368 24.1129L37.0234 24.5397H36.2799C38.1512 26.6061 39.2911 29.3471 39.2911 32.3544Z" fill="white"/>
<path d="M33.6808 17.5719L35.791 19.748L34.011 25.704L33.9374 25.9503L34.1309 26.1196L35.2675 27.1142L35.6424 27.4421L35.8817 27.0053L38.4899 22.2454L41.2634 24.5567L40.374 26.039L40.2012 26.327L40.4551 26.5471L41.5207 27.4706L41.91 27.808L42.1404 27.3472L43.4306 24.7669L46.011 23.4767L46.3846 23.2899L46.1818 22.9247L45.8265 22.2853L45.7122 22.0795H45.4769H43.3011L41.0551 19.7759L45.9897 17.6611L46.5327 17.4284L46.1149 17.0106L44.9072 15.8029L44.7411 15.6367L44.5151 15.7009L38.4861 17.4137L35.8102 14.8047L35.7283 14.7249L35.6167 14.7004C34.998 14.5646 34.4937 14.5649 34.1006 14.7114C33.6848 14.8665 33.437 15.1694 33.3253 15.5255C33.2197 15.8619 33.2389 16.2297 33.3021 16.5542C33.3663 16.8838 33.4826 17.2039 33.6067 17.4651L33.635 17.5246L33.6808 17.5719Z" stroke="white" stroke-width="0.8"/>
<path d="M15.498 32.4965C15.7112 32.3781 16.6063 32.6102 18.4818 34.4857C20.4473 36.3802 24.9893 39.4018 27.4332 36.3328L26.6517 35.6224C24.9941 34.9593 21.9061 33.3064 22.8154 31.9992C23.7248 30.692 26.2728 28.1392 27.4332 27.0262C29.0908 25.6054 31.7241 22.2096 28.9961 19.993" stroke="white" stroke-width="0.8"/>
<path d="M30.6293 44.3606C30.2504 43.4134 30.1036 41.0642 32.5475 39.2455L35.105 37.1853C35.7444 36.5933 37.0515 35.054 37.1652 33.6332C37.3073 31.8571 37.7336 30.3652 39.7227 30.4363" stroke="white" stroke-width="0.8"/>
<defs>
<linearGradient id="paint0_linear_6531_3689" x1="30" y1="0" x2="30" y2="60" gradientUnits="userSpaceOnUse">
<stop stop-color="#637EF2"/>
<stop offset="0.96875" stop-color="#685AF1"/>
</linearGradient>
</defs>
</svg>
