<svg width="60" height="60" viewBox="0 0 60 60" fill="none" xmlns="http://www.w3.org/2000/svg">
<rect width="60" height="60" rx="12" fill="url(#paint0_linear_6531_3836)"/>
<path d="M41.0099 40.7733L44.8671 38.2693C44.95 38.2155 45 38.1234 45 38.0245V21.945C45 21.8416 44.9453 21.7459 44.8561 21.6935L30.2211 13.0866C30.1302 13.0331 30.0175 13.0329 29.9263 13.0859L15.145 21.6937C15.0552 21.7459 15 21.842 15 21.9459V25.5196M37.6108 29.8367V42.4661C37.6108 42.5754 37.5498 42.6755 37.4527 42.7255L30.2125 46.4579C30.1259 46.5026 30.0227 46.5011 29.9374 46.4539L15.1505 38.2664C15.0576 38.2149 15 38.1172 15 38.011V25.5196M37.6108 29.8367L30.2204 25.6035C30.1298 25.5516 30.0183 25.552 29.9281 25.6047L22.6847 29.8367M37.6108 29.8367L30.224 34.2088C30.1316 34.2635 30.0165 34.263 29.9245 34.2075L22.6847 29.8367M22.6847 29.8367L15 25.5196" stroke="white"/>
<path d="M41.1591 40.0749C40.9278 40.2242 40.8656 40.5314 41.0202 40.7613C41.1748 40.9911 41.4876 41.0564 41.719 40.9072L41.1591 40.0749ZM41.719 40.9072L43.1728 39.9692L42.613 39.137L41.1591 40.0749L41.719 40.9072Z" fill="white"/>
<defs>
<linearGradient id="paint0_linear_6531_3836" x1="30" y1="0" x2="30" y2="60" gradientUnits="userSpaceOnUse">
<stop stop-color="#6AE0E0"/>
<stop offset="1" stop-color="#2FBAC2"/>
</linearGradient>
</defs>
</svg>
