<svg width="60" height="60" viewBox="0 0 60 60" fill="none" xmlns="http://www.w3.org/2000/svg">
<rect width="60" height="60" rx="12" fill="url(#paint0_linear_6584_8719)"/>
<path fill-rule="evenodd" clip-rule="evenodd" d="M42.757 35.0935C42.757 35.2032 42.6654 35.2947 42.5554 35.2947H40.1817C40.0716 35.2947 39.9801 35.2032 39.9801 35.0935V26.6694C39.9801 26.5601 40.0716 26.4682 40.1817 26.4682H42.5554C42.6654 26.4682 42.757 26.5601 42.757 26.6694V35.0935ZM42.5558 25.3032H40.1821C39.4273 25.3032 38.8159 25.9162 38.8159 26.6694V35.0931C38.8159 35.8467 39.4277 36.4593 40.1821 36.4593H42.5558C43.3065 36.4593 43.922 35.8463 43.922 35.0931V26.6694C43.922 25.9162 43.3065 25.3032 42.5558 25.3032ZM42.757 22.9934C42.757 23.1019 42.6654 23.1939 42.5554 23.1939H40.1817C40.0716 23.1939 39.9801 23.1019 39.9801 22.9934V20.619C39.9801 20.5101 40.0716 20.4185 40.1817 20.4185H42.5554C42.6654 20.4185 42.757 20.5101 42.757 20.619V22.9934ZM42.5558 19.2532H40.1821C39.4273 19.2532 38.8159 19.8666 38.8159 20.6186V22.993C38.8159 23.7466 39.4277 24.3584 40.1821 24.3584H42.5558C43.3065 24.3584 43.922 23.7462 43.922 22.993V20.6186C43.922 19.8666 43.3065 19.2532 42.5558 19.2532ZM36.3398 35.0935C36.3398 35.2032 36.2482 35.2947 36.1386 35.2947H33.7649C33.6589 35.2947 33.5633 35.2032 33.5633 35.0935V32.7198C33.5633 32.611 33.6585 32.5182 33.7649 32.5182H36.1386C36.2482 32.5182 36.3398 32.611 36.3398 32.7198V35.0935ZM36.1386 31.3533H33.7649C33.0141 31.3533 32.3987 31.9662 32.3987 32.7198V35.0935C32.3987 35.8471 33.0141 36.4597 33.7649 36.4597H36.1386C36.893 36.4597 37.5048 35.8467 37.5048 35.0935V32.7198C37.5048 31.9662 36.893 31.3533 36.1386 31.3533ZM36.3398 29.0435C36.3398 29.1523 36.2482 29.2447 36.1386 29.2447H33.7649C33.6589 29.2447 33.5633 29.1523 33.5633 29.0435V26.6694C33.5633 26.5605 33.6585 26.4682 33.7649 26.4682H36.1386C36.2482 26.4682 36.3398 26.5605 36.3398 26.6694V29.0435ZM36.1386 25.3032H33.7649C33.0141 25.3032 32.3987 25.9162 32.3987 26.6694V29.0435C32.3987 29.7971 33.0141 30.4097 33.7649 30.4097H36.1386C36.893 30.4097 37.5048 29.7967 37.5048 29.0435V26.6694C37.5048 25.9162 36.893 25.3032 36.1386 25.3032ZM36.3398 22.9934C36.3398 23.1019 36.2482 23.1939 36.1386 23.1939H33.7649C33.6589 23.1939 33.5633 23.1019 33.5633 22.9934V20.619C33.5633 20.5101 33.6585 20.4185 33.7649 20.4185H36.1386C36.2482 20.4185 36.3398 20.5101 36.3398 20.619V22.9934ZM36.1386 19.2532H33.7649C33.0141 19.2532 32.3987 19.8666 32.3987 20.6186V22.993C32.3987 23.7466 33.0141 24.3584 33.7649 24.3584H36.1386C36.893 24.3584 37.5048 23.7462 37.5048 22.993V20.6186C37.5048 19.8666 36.893 19.2532 36.1386 19.2532ZM29.9263 35.0935C29.9263 35.2032 29.8347 35.2947 29.725 35.2947H27.3514C27.2417 35.2947 27.1501 35.2032 27.1501 35.0935V32.7198C27.1501 32.611 27.2417 32.5182 27.3514 32.5182H29.725C29.8351 32.5182 29.9263 32.611 29.9263 32.7198V35.0935ZM29.7246 31.3533H27.351C26.5966 31.3533 25.9848 31.9662 25.9848 32.7198V35.0935C25.9848 35.8471 26.5966 36.4597 27.351 36.4597H29.7246C30.479 36.4597 31.0908 35.8467 31.0908 35.0935V32.7198C31.0912 31.9662 30.4794 31.3533 29.7246 31.3533ZM29.9263 29.0435C29.9263 29.1523 29.8347 29.2447 29.725 29.2447H27.3514C27.2417 29.2447 27.1501 29.1523 27.1501 29.0435V26.6694C27.1501 26.5605 27.2417 26.4682 27.3514 26.4682H29.725C29.8351 26.4682 29.9263 26.5605 29.9263 26.6694V29.0435ZM29.7246 25.3032H27.351C26.5966 25.3032 25.9848 25.9162 25.9848 26.6694V29.0435C25.9848 29.7971 26.5966 30.4097 27.351 30.4097H29.7246C30.479 30.4097 31.0908 29.7967 31.0908 29.0435V26.6694C31.0912 25.9162 30.4794 25.3032 29.7246 25.3032ZM29.9263 22.9934C29.9263 23.1019 29.8347 23.1939 29.725 23.1939H27.3514C27.2417 23.1939 27.1501 23.1019 27.1501 22.9934V20.619C27.1501 20.5101 27.2417 20.4185 27.3514 20.4185H29.725C29.8351 20.4185 29.9263 20.5101 29.9263 20.619V22.9934ZM29.7246 19.2532H27.351C26.5966 19.2532 25.9848 19.8666 25.9848 20.6186V22.993C25.9848 23.7466 26.5966 24.3584 27.351 24.3584H29.7246C30.479 24.3584 31.0908 23.7462 31.0908 22.993V20.6186C31.0912 19.8666 30.4794 19.2532 29.7246 19.2532ZM42.757 16.9422C42.757 17.0515 42.6654 17.1439 42.5554 17.1439H27.351C27.2413 17.1439 27.1497 17.0515 27.1497 16.9422V14.0624C27.1497 13.9535 27.2413 13.862 27.351 13.862H42.5554C42.6654 13.862 42.757 13.9535 42.757 14.0624V16.9422ZM42.5558 12.697H27.3514C26.597 12.697 25.9852 13.3092 25.9852 14.0624V16.9422C25.9852 17.6962 26.597 18.3088 27.3514 18.3088H42.5558C43.3065 18.3088 43.922 17.6962 43.922 16.9422V14.0624C43.922 13.3092 43.3065 12.697 42.5558 12.697ZM45.6581 36.027V12.542C45.6581 11.7832 45.0391 11.1653 44.2807 11.1653H25.6224C24.864 11.1653 24.249 11.7828 24.249 12.542V36.027C24.249 36.7867 24.8644 37.4045 25.6224 37.4045H44.2811C45.0391 37.4041 45.6581 36.7867 45.6581 36.027ZM40.2223 42.2446V38.569H25.6224C24.2233 38.569 23.0841 37.4286 23.0841 36.027V15.6841H19.4065V42.2446H40.2223ZM18.293 48.4485C16.5677 48.4485 15.1649 47.3181 15.1649 45.929C15.1649 44.5399 16.5677 43.4099 18.293 43.4099H40.2223V45.3461H34.1566C33.834 45.3461 33.5741 45.6072 33.5741 45.929C33.5741 46.2512 33.834 46.5115 34.1566 46.5115H40.2223V48.4489L18.293 48.4485ZM18.242 15.7319C16.4986 16.0115 15.1653 17.5239 15.1653 19.3428V43.4099C15.9382 42.7037 17.0296 42.2586 18.242 42.2462V15.7319ZM44.2811 10H25.6224C24.2233 10 23.0841 11.1404 23.0841 12.5416V14.5187H18.824C16.1648 14.5187 14 16.6827 14 19.3424V45.9286C14 47.9604 15.9266 49.613 18.293 49.613H40.8084C41.1269 49.613 41.3908 49.3523 41.3908 49.0305V38.569H44.2807C45.6834 38.569 46.8226 37.4286 46.8226 36.027V12.542C46.823 11.1404 45.6838 10 44.2811 10Z" fill="white"/>
<defs>
<linearGradient id="paint0_linear_6584_8719" x1="3.2112e-07" y1="3" x2="50" y2="60" gradientUnits="userSpaceOnUse">
<stop offset="0.0601093" stop-color="#EABB53"/>
<stop offset="0.493048" stop-color="#E8A955"/>
<stop offset="0.729578" stop-color="#E8A056"/>
<stop offset="1" stop-color="#E69356"/>
</linearGradient>
</defs>
</svg>
