<svg width="15" height="18" viewBox="0 0 15 18" fill="none" xmlns="http://www.w3.org/2000/svg">
<path d="M9.4 0.666664C9.7498 0.666755 10.0907 0.776902 10.3744 0.981504C10.6581 1.18611 10.8703 1.47479 10.9808 1.80666L11.4333 3.16666H14.1667C14.3877 3.16666 14.5996 3.25446 14.7559 3.41074C14.9122 3.56702 15 3.77898 15 4C15 4.22101 14.9122 4.43297 14.7559 4.58925C14.5996 4.74553 14.3877 4.83333 14.1667 4.83333L14.1642 4.8925L13.4417 15.0117C13.3966 15.6422 13.1143 16.2322 12.6517 16.663C12.1891 17.0937 11.5805 17.3333 10.9483 17.3333H4.05167C3.41955 17.3333 2.81092 17.0937 2.34831 16.663C1.88569 16.2322 1.60342 15.6422 1.55833 15.0117L0.835833 4.89166C0.834325 4.87225 0.833492 4.8528 0.833333 4.83333C0.61232 4.83333 0.400358 4.74553 0.244078 4.58925C0.0877973 4.43297 0 4.22101 0 4C0 3.77898 0.0877973 3.56702 0.244078 3.41074C0.400358 3.25446 0.61232 3.16666 0.833333 3.16666H3.56667L4.01917 1.80666C4.12975 1.47465 4.34203 1.18587 4.62592 0.98126C4.9098 0.776646 5.25089 0.66658 5.60083 0.666664H9.4ZM12.4975 4.83333H2.5025L3.22083 14.8925C3.23579 15.1027 3.32981 15.2994 3.48397 15.443C3.63812 15.5867 3.84096 15.6666 4.05167 15.6667H10.9483C11.159 15.6666 11.3619 15.5867 11.516 15.443C11.6702 15.2994 11.7642 15.1027 11.7792 14.8925L12.4975 4.83333ZM5.83333 7.33333C6.03744 7.33336 6.23445 7.40829 6.38698 7.54393C6.53951 7.67956 6.63695 7.86646 6.66083 8.06916L6.66667 8.16666V12.3333C6.66643 12.5457 6.5851 12.75 6.43929 12.9045C6.29349 13.0589 6.09421 13.1519 5.88217 13.1643C5.67014 13.1768 5.46135 13.1078 5.29847 12.9714C5.1356 12.8351 5.03092 12.6417 5.00583 12.4308L5 12.3333V8.16666C5 7.94565 5.0878 7.73369 5.24408 7.57741C5.40036 7.42113 5.61232 7.33333 5.83333 7.33333ZM9.16667 7.33333C9.38768 7.33333 9.59964 7.42113 9.75592 7.57741C9.9122 7.73369 10 7.94565 10 8.16666V12.3333C10 12.5543 9.9122 12.7663 9.75592 12.9226C9.59964 13.0789 9.38768 13.1667 9.16667 13.1667C8.94565 13.1667 8.73369 13.0789 8.57741 12.9226C8.42113 12.7663 8.33333 12.5543 8.33333 12.3333V8.16666C8.33333 7.94565 8.42113 7.73369 8.57741 7.57741C8.73369 7.42113 8.94565 7.33333 9.16667 7.33333ZM9.4 2.33333H5.6L5.3225 3.16666H9.6775L9.4 2.33333Z" fill="#666389"/>
</svg>
