<svg width="37" height="36" viewBox="0 0 37 36" fill="none" xmlns="http://www.w3.org/2000/svg">
<g filter="url(#filter0_d_1889_5403)">
<path d="M18.5 24.6667H26M22.25 10.9167C22.5815 10.5852 23.0312 10.3989 23.5 10.3989C23.7321 10.3989 23.962 10.4447 24.1765 10.5335C24.391 10.6223 24.5858 10.7525 24.75 10.9167C24.9142 11.0808 25.0444 11.2757 25.1332 11.4902C25.222 11.7047 25.2678 11.9345 25.2678 12.1667C25.2678 12.3988 25.222 12.6287 25.1332 12.8432C25.0444 13.0577 24.9142 13.2525 24.75 13.4167L14.3333 23.8334L11 24.6667L11.8333 21.3334L22.25 10.9167Z" stroke="#666389" stroke-width="1.67" stroke-linecap="round" stroke-linejoin="round"/>
</g>
<defs>
<filter id="filter0_d_1889_5403" x="-1.5" y="-1" width="40" height="40" filterUnits="userSpaceOnUse" color-interpolation-filters="sRGB">
<feFlood flood-opacity="0" result="BackgroundImageFix"/>
<feColorMatrix in="SourceAlpha" type="matrix" values="0 0 0 0 0 0 0 0 0 0 0 0 0 0 0 0 0 0 127 0" result="hardAlpha"/>
<feOffset dy="1"/>
<feGaussianBlur stdDeviation="1"/>
<feColorMatrix type="matrix" values="0 0 0 0 0.0627451 0 0 0 0 0.0941176 0 0 0 0 0.156863 0 0 0 0.05 0"/>
<feBlend mode="normal" in2="BackgroundImageFix" result="effect1_dropShadow_1889_5403"/>
<feBlend mode="normal" in="SourceGraphic" in2="effect1_dropShadow_1889_5403" result="shape"/>
</filter>
</defs>
</svg>
