<svg width="26" height="26" viewBox="0 0 26 26" fill="none" xmlns="http://www.w3.org/2000/svg">
<path d="M6.56223 11.713V13.258L5.01716 13.8761L3.78111 13.258L2.44206 14.3396L3.16309 15.5756L2.44206 17.3267H1.25751L1 19.0778L2.44206 19.5928L3.16309 21.1379L2.44206 22.3739L3.78111 23.3525L5.01716 22.6314L6.40772 23.3525L6.81974 24.743H8.3648L8.67381 23.0949L10.2704 22.3739L11.6609 23.5585L12.897 22.3739L11.9184 20.8289L12.897 19.0778H14.133V17.3267L12.5365 16.9147L11.9184 15.5756L12.897 14.3396L11.6609 13.0005L9.96137 13.8761L8.67381 13.258L8.3648 11.713H6.56223Z" stroke="#BCC2CE"/>
<ellipse cx="7.59222" cy="18.2525" rx="2.4721" ry="2.4721" stroke="#BCC2CE"/>
<path d="M7.0773 9.54935L5.58374 8.82832L6.66528 6.25321L8.15885 6.76824L9.4979 5.32618L8.62236 3.26609L10.2704 2.03004L11.9185 3.26609L13.7211 2.80257L14.0816 1H16.3992L16.7597 2.80257L18.3563 3.26609L20.3648 2.03004L21.8584 3.26609L21.1889 5.06867L22.2189 6.76824H24.382L25 8.2618L23.1975 9.54935V11.7124L25 12.897L24.382 14.5451L22.6309 14.133L21.1889 15.9871L21.8584 17.7382L20.0043 19.1802L18.7168 17.7382L17.1202 18.2017L16.7597 20.1073L15.7812 20.4163" stroke="#BCC2CE"/>
<path d="M10.9401 11.4548C10.2705 10.1157 11.5581 6.25305 15.4722 6.25305C17.3778 6.51056 19.9838 7.68481 19.4894 11.7638C19.0774 13.017 17.522 15.4513 14.5967 15.1629" stroke="#BCC2CE"/>
</svg>
