<svg width="60" height="60" viewBox="0 0 60 60" fill="none" xmlns="http://www.w3.org/2000/svg">
<rect width="60" height="60" rx="12" fill="url(#paint0_linear_6584_8600)"/>
<path d="M46.7559 19.1128H45.2461C44.5944 19.1128 44.0565 18.7535 43.8071 18.1512C43.5576 17.5493 43.6841 16.9143 44.1449 16.4535L45.2124 15.3859C45.7904 14.808 45.7904 13.8673 45.2124 13.2894L42.9489 11.0264C42.6697 10.7472 42.2973 10.593 41.9004 10.593C41.5036 10.593 41.1316 10.7467 40.8519 11.0259L39.7844 12.0935C39.3236 12.5543 38.689 12.6807 38.0867 12.4313C37.4843 12.1818 37.1251 11.6439 37.1251 10.9922V9.48246C37.1251 8.66484 36.4602 8 35.6426 8H32.4419C31.6243 8 30.9595 8.66484 30.9595 9.48246V10.9922C30.9595 11.6439 30.6002 12.1818 29.9978 12.4313C29.396 12.6807 28.7609 12.5543 28.3001 12.0935L27.2331 11.0264C26.9538 10.7472 26.5814 10.593 26.1846 10.593C25.7877 10.593 25.4157 10.7467 25.136 11.0259L22.8726 13.2894C22.2946 13.8673 22.2946 14.808 22.8726 15.3859L23.9401 16.4535C24.4009 16.9143 24.5273 17.5488 24.2779 18.1512C24.0285 18.7535 23.4906 19.1128 22.8389 19.1128H21.3291C20.5115 19.1128 19.8467 19.7776 19.8467 20.5953V23.7959C19.8467 24.6136 20.5115 25.2784 21.3291 25.2784H22.8389C23.4906 25.2784 24.0285 25.6377 24.2779 26.24C24.5273 26.8419 24.4009 27.4765 23.9401 27.9377L22.8721 29.0053C22.2941 29.5832 22.2941 30.5239 22.8721 31.1018L25.1356 33.3653C25.7135 33.9432 26.6541 33.9432 27.2321 33.3653L28.2996 32.2977C28.7604 31.8369 29.395 31.7105 29.9974 31.9599C30.5992 32.2094 30.959 32.7473 30.959 33.399V34.9088C30.959 35.7264 31.6238 36.3912 32.4414 36.3912H35.6421C36.4597 36.3912 37.1246 35.7264 37.1246 34.9088V33.3985C37.1246 32.7468 37.4843 32.2089 38.0862 31.9595C38.688 31.7105 39.3226 31.8364 39.7839 32.2972L40.8514 33.3653C41.4294 33.9432 42.37 33.9432 42.948 33.3653L45.2114 31.1018C45.7894 30.5239 45.7894 29.5832 45.2114 29.0053L44.1439 27.9377C43.6831 27.4769 43.5567 26.8424 43.8061 26.24C44.0555 25.6382 44.5935 25.2784 45.2451 25.2784H46.7554C47.573 25.2784 48.2379 24.6136 48.2379 23.7959V20.5953C48.2383 19.7781 47.5735 19.1128 46.7559 19.1128ZM46.9316 23.7964C46.9316 23.8916 46.8511 23.9722 46.7559 23.9722H45.2456C44.0653 23.9722 43.051 24.6497 42.5994 25.7407C42.1474 26.8311 42.3856 28.0276 43.2204 28.8623L44.2879 29.9298C44.3553 29.9972 44.3553 30.1109 44.2879 30.1783L42.0244 32.4417C41.9571 32.5091 41.8433 32.5091 41.776 32.4417L40.7084 31.3737C39.8737 30.539 38.6773 30.3013 37.5868 30.7528C36.4963 31.2048 35.8188 32.2187 35.8188 33.399V34.9092C35.8188 35.0044 35.7383 35.085 35.6431 35.085H32.4424C32.3472 35.085 32.2667 35.0044 32.2667 34.9092V33.3994C32.2667 32.2187 31.5891 31.2048 30.4987 30.7533C30.1331 30.602 29.7557 30.5278 29.3843 30.5278C28.6467 30.5278 27.9321 30.8192 27.3771 31.3737L26.3095 32.4412C26.2422 32.5086 26.1284 32.5086 26.0611 32.4412L23.7976 30.1778C23.7302 30.1104 23.7302 29.9967 23.7976 29.9293L24.8656 28.8618C25.7003 28.0271 25.938 26.8307 25.4865 25.7402C25.035 24.6492 24.0207 23.9717 22.8399 23.9717H21.3301C21.2349 23.9717 21.1544 23.8911 21.1544 23.7959V20.5953C21.1544 20.5001 21.2349 20.4195 21.3301 20.4195H22.8399C24.0202 20.4195 25.0345 19.742 25.4865 18.651C25.938 17.5605 25.7003 16.3641 24.8656 15.5294L23.7981 14.4619C23.7307 14.3945 23.7307 14.2808 23.7981 14.2134L26.0615 11.95C26.1055 11.906 26.1582 11.8997 26.1855 11.8997C26.2129 11.8997 26.2661 11.906 26.31 11.9505L27.3775 13.018C28.2123 13.8527 29.4082 14.0909 30.4991 13.6389C31.5896 13.1874 32.2672 12.173 32.2672 10.9927V9.48246C32.2672 9.38727 32.3477 9.30673 32.4429 9.30673H35.6436C35.7388 9.30673 35.8193 9.38727 35.8193 9.48246V10.9922C35.8193 12.173 36.4968 13.1869 37.5873 13.6384C38.6783 14.0904 39.8742 13.8522 40.7089 13.0175L41.7765 11.95C41.8204 11.906 41.8731 11.8992 41.9009 11.8992C41.9283 11.8992 41.9815 11.9055 42.0249 11.95L44.2884 14.2134C44.3557 14.2808 44.3557 14.3945 44.2884 14.4619L43.2208 15.5294C42.3861 16.3641 42.1484 17.5605 42.5999 18.651C43.0515 19.7415 44.0658 20.4195 45.2461 20.4195H46.7559C46.8511 20.4195 46.9316 20.5001 46.9316 20.5953V23.7964ZM34.0425 14.9515C30.0481 14.9515 26.7981 18.2015 26.7981 22.1958C26.7981 26.1902 30.0481 29.4402 34.0425 29.4402C38.0369 29.4402 41.2869 26.1902 41.2869 22.1958C41.2869 18.2015 38.0374 14.9515 34.0425 14.9515ZM30.3283 26.8233C30.6261 25.6655 31.614 24.7868 32.8119 24.6399C33.1931 24.7903 33.6081 24.8737 34.0425 24.8737C34.4769 24.8737 34.8918 24.7903 35.2731 24.6399C36.471 24.7868 37.4589 25.6655 37.7567 26.8233C36.7389 27.6419 35.4473 28.1335 34.0425 28.1335C32.6377 28.1335 31.3465 27.6419 30.3283 26.8233ZM34.043 23.567C32.9222 23.567 32.0104 22.6698 32.0104 21.5671C32.0104 20.4644 32.9222 19.5673 34.043 19.5673C35.1637 19.5673 36.0756 20.4644 36.0756 21.5671C36.0756 22.6698 35.1637 23.567 34.043 23.567ZM38.7686 25.7851C38.3337 24.843 37.5639 24.0878 36.6179 23.67C37.0953 23.0979 37.3823 22.3652 37.3823 21.5671C37.3823 19.744 35.8842 18.2605 34.043 18.2605C32.2018 18.2605 30.7037 19.744 30.7037 21.5671C30.7037 22.3652 30.9907 23.0979 31.4681 23.67C30.5221 24.0878 29.7523 24.8425 29.3174 25.7851C28.5578 24.7873 28.1058 23.5436 28.1058 22.1958C28.1058 18.9219 30.7696 16.2582 34.0435 16.2582C37.3174 16.2582 39.9811 18.9219 39.9811 22.1958C39.9801 23.5436 39.5281 24.7873 38.7686 25.7851ZM45.5434 37.3128C44.8029 37.1141 44.0311 37.2147 43.3707 37.5964L36.9903 41.2798C36.9957 40.9831 36.9615 40.6814 36.881 40.3807C36.4173 38.6513 34.6331 37.6218 32.9042 38.085L30.2556 38.7948C29.2544 39.0628 28.3323 38.9417 27.4347 38.4233L23.904 36.3849C22.4762 35.5604 21.0518 36.0949 19.4025 36.7139C18.4818 37.0595 17.4538 37.4451 16.2447 37.6789L16.1832 37.4485C16.1046 37.1556 15.9167 36.9106 15.6531 36.7583C15.3895 36.6065 15.0835 36.5655 14.7906 36.6441L12.8429 37.1659C12.2372 37.3284 11.8764 37.9532 12.039 38.5585L15.5296 51.5858C15.6658 52.0929 16.1261 52.4288 16.6284 52.4288C16.7255 52.4288 16.8241 52.4161 16.9223 52.3897L18.8699 51.8679C19.1628 51.7893 19.4078 51.6014 19.5601 51.3378C19.7075 51.0825 19.749 50.7867 19.6797 50.5021C22.5162 49.8798 24.3023 50.3884 26.7108 51.0752C27.1486 51.2002 27.6016 51.3295 28.0853 51.4589C28.5061 51.5716 28.921 51.6278 29.3291 51.6278C30.1213 51.6278 30.8882 51.4159 31.6199 50.9932L46.2341 42.5553C46.8945 42.1741 47.3675 41.5566 47.5657 40.8156C47.7639 40.0751 47.6633 39.3034 47.2821 38.643C46.9018 37.9845 46.2844 37.5115 45.5434 37.3128ZM16.748 51.0849L13.3452 38.3852L14.9653 37.9513L18.3681 50.651L16.748 51.0849ZM46.3044 40.4788C46.1965 40.882 45.9397 41.2183 45.5814 41.4248L30.9678 49.8627C30.1584 50.3298 29.3267 50.4392 28.4246 50.1975C27.9506 50.0706 27.503 49.9427 27.07 49.8192C24.5532 49.1017 22.5328 48.5257 19.3434 49.2388L16.585 38.9436C17.8556 38.6898 18.9138 38.2935 19.8628 37.9371C21.5029 37.3216 22.3981 37.0233 23.2519 37.5159L26.7825 39.5543C27.9784 40.245 29.2608 40.4134 30.5948 40.0561L33.2434 39.3464C34.2758 39.0696 35.3429 39.6851 35.6197 40.7185C35.7666 41.2662 35.6621 41.8231 35.378 42.2669C35.3609 42.2888 35.3458 42.3118 35.3317 42.3357C35.0793 42.6954 34.7044 42.9722 34.2475 43.0947L30.3747 44.1325C29.7216 44.3072 29.0836 44.3136 28.4783 44.1506C28.1307 44.0568 27.7715 44.2628 27.6773 44.6113C27.5831 44.9599 27.7895 45.3182 28.1381 45.4124C28.5427 45.5217 28.9557 45.5759 29.3745 45.5759C29.8153 45.5759 30.2624 45.5154 30.713 45.3948L34.5858 44.357C35.3185 44.1608 35.9252 43.7269 36.3465 43.1606L44.0248 38.7274C44.3826 38.5204 44.8024 38.4663 45.2056 38.5746C45.6088 38.683 45.9451 38.9397 46.1516 39.2975C46.3581 39.6563 46.4127 40.0756 46.3044 40.4788Z" fill="white"/>
<defs>
<linearGradient id="paint0_linear_6584_8600" x1="30" y1="0" x2="30" y2="60" gradientUnits="userSpaceOnUse">
<stop stop-color="#5076E1"/>
<stop offset="1" stop-color="#3157CF"/>
</linearGradient>
</defs>
</svg>
