<svg width="60" height="60" viewBox="0 0 60 60" fill="none" xmlns="http://www.w3.org/2000/svg">
<rect width="60" height="60" rx="12" fill="url(#paint0_linear_6584_8607)"/>
<path d="M50.9256 34.3825C50.9174 34.3315 50.9038 34.2816 50.885 34.2336L48.6287 28.9809C48.577 28.8586 48.4903 28.7544 48.3795 28.6813C48.2686 28.6082 48.1387 28.5696 48.0059 28.5702H35.1449V11.6163C35.1438 10.9237 34.8681 10.2598 34.3784 9.77008C33.8886 9.28035 33.2247 9.00469 32.5321 9.00349H19.4455C19.4035 8.99884 19.3612 8.99884 19.3192 9.00349C19.263 9.01701 19.2086 9.03669 19.1567 9.06216H19.1161C19.0649 9.09008 19.0178 9.12501 18.9762 9.16595L9.17029 18.999C9.12566 19.0452 9.08905 19.0986 9.06199 19.1569C9.06199 19.1569 9.06199 19.1795 9.06199 19.193C9.03384 19.2452 9.01405 19.3016 9.00333 19.36C8.99889 19.4035 8.99889 19.4473 9.00333 19.4908V41.6027C9.00798 42.2875 9.28086 42.9432 9.76342 43.4291C10.246 43.9151 10.8998 44.1925 11.5845 44.202H29.2785V50.294C29.2785 50.4735 29.3499 50.6457 29.4768 50.7726C29.6037 50.8996 29.7759 50.9709 29.9554 50.9709H50.2622C50.4418 50.9709 50.6139 50.8996 50.7409 50.7726C50.8678 50.6457 50.9391 50.4735 50.9391 50.294V34.4998C50.9411 34.4758 50.9411 34.4516 50.9391 34.4276C50.937 34.412 50.9324 34.3967 50.9256 34.3825ZM47.5547 29.924L49.2288 33.8229H43.2406L42.8254 29.924H47.5547ZM38.7505 29.924H41.4581L41.8733 33.8229H38.3399L38.7505 29.924ZM38.2632 35.1767H41.9545V40.2624H38.2632V35.1767ZM37.3922 29.924L36.9771 33.8229H30.9843L32.663 29.924H37.3922ZM18.7686 11.314V17.5459C18.7675 17.8782 18.6349 18.1966 18.3999 18.4316C18.1649 18.6667 17.8465 18.7992 17.5141 18.8004H11.2822L18.7686 11.314ZM29.3327 34.2336C29.3138 34.2816 29.3002 34.3315 29.2921 34.3825C29.2899 34.3974 29.2899 34.4126 29.2921 34.4276C29.2901 34.4516 29.2901 34.4758 29.2921 34.4998V42.8482H11.5845C11.4192 42.8482 11.2555 42.8156 11.1027 42.7523C10.95 42.6891 10.8112 42.5963 10.6943 42.4794C10.5774 42.3625 10.4846 42.2237 10.4214 42.0709C10.3581 41.9182 10.3255 41.7545 10.3255 41.5891V20.1542H17.5141C17.8567 20.1542 18.1958 20.0867 18.5123 19.9556C18.8287 19.8246 19.1163 19.6324 19.3585 19.3902C19.6007 19.148 19.7928 18.8605 19.9239 18.544C20.055 18.2276 20.1224 17.8884 20.1224 17.5459V10.3573H32.5321C32.8661 10.3573 33.1863 10.4899 33.4224 10.726C33.6585 10.9622 33.7912 11.2824 33.7912 11.6163V28.5702H32.2117C32.079 28.5696 31.949 28.6082 31.8382 28.6813C31.7274 28.7544 31.6407 28.8586 31.589 28.9809L29.3327 34.2336ZM49.5853 49.6171H30.6323V35.1767H36.9094V40.9393C36.9094 41.1188 36.9807 41.291 37.1076 41.418C37.2346 41.5449 37.4068 41.6162 37.5863 41.6162H42.6314C42.8109 41.6162 42.9831 41.5449 43.11 41.418C43.237 41.291 43.3083 41.1188 43.3083 40.9393V35.1767H49.5853V49.6171Z" fill="white"/>
<path d="M17.9973 23.4438H13.8683C13.6888 23.4438 13.5166 23.5152 13.3897 23.6421C13.2627 23.769 13.1914 23.9412 13.1914 24.1207V28.2498C13.1926 28.4289 13.2643 28.6004 13.391 28.7271C13.5177 28.8538 13.6891 28.9255 13.8683 28.9267H17.9973C18.1769 28.9267 18.349 28.8554 18.476 28.7284C18.6029 28.6015 18.6742 28.4293 18.6742 28.2498V24.1207C18.6742 23.9412 18.6029 23.769 18.476 23.6421C18.349 23.5152 18.1769 23.4438 17.9973 23.4438ZM17.3205 27.5729H14.5452V24.7976H17.3205V27.5729Z" fill="white"/>
<path d="M29.6478 14.0621H23.4249C23.2454 14.0621 23.0732 14.1334 22.9463 14.2603C22.8194 14.3873 22.748 14.5594 22.748 14.739V20.9619C22.748 21.1414 22.8194 21.3136 22.9463 21.4405C23.0732 21.5674 23.2454 21.6388 23.4249 21.6388H29.6478C29.8274 21.6388 29.9995 21.5674 30.1265 21.4405C30.2534 21.3136 30.3247 21.1414 30.3247 20.9619V14.739C30.3247 14.5594 30.2534 14.3873 30.1265 14.2603C29.9995 14.1334 29.8274 14.0621 29.6478 14.0621ZM28.971 20.285H24.0883V15.4159H28.971V20.285Z" fill="white"/>
<path d="M17.9973 32.2164H13.8683C13.6888 32.2164 13.5166 32.2877 13.3897 32.4146C13.2627 32.5416 13.1914 32.7137 13.1914 32.8933V37.0178C13.1914 37.1973 13.2627 37.3695 13.3897 37.4964C13.5166 37.6234 13.6888 37.6947 13.8683 37.6947H17.9973C18.1769 37.6947 18.349 37.6234 18.476 37.4964C18.6029 37.3695 18.6742 37.1973 18.6742 37.0178V32.8933C18.6742 32.7137 18.6029 32.5416 18.476 32.4146C18.349 32.2877 18.1769 32.2164 17.9973 32.2164ZM17.3205 36.3409H14.5452V33.5702H17.3205V36.3409Z" fill="white"/>
<path d="M28.9215 27.5729H22.0578C21.8782 27.5729 21.7061 27.6442 21.5791 27.7711C21.4522 27.8981 21.3809 28.0702 21.3809 28.2498C21.3809 28.4293 21.4522 28.6015 21.5791 28.7284C21.7061 28.8553 21.8782 28.9267 22.0578 28.9267H28.9215C29.101 28.9267 29.2731 28.8553 29.4001 28.7284C29.527 28.6015 29.5983 28.4293 29.5983 28.2498C29.5983 28.0702 29.527 27.8981 29.4001 27.7711C29.2731 27.6442 29.101 27.5729 28.9215 27.5729Z" fill="white"/>
<path d="M26.8675 36.3409H22.1788C21.9993 36.3409 21.8272 36.4123 21.7002 36.5392C21.5733 36.6661 21.502 36.8383 21.502 37.0178C21.502 37.1974 21.5733 37.3695 21.7002 37.4965C21.8272 37.6234 21.9993 37.6947 22.1788 37.6947H26.8675C27.047 37.6947 27.2192 37.6234 27.3461 37.4965C27.473 37.3695 27.5444 37.1974 27.5444 37.0178C27.5444 36.8383 27.473 36.6661 27.3461 36.5392C27.2192 36.4123 27.047 36.3409 26.8675 36.3409Z" fill="white"/>
<path d="M47.0089 47.8753C47.1884 47.8753 47.3606 47.8039 47.4876 47.677C47.6145 47.5501 47.6858 47.3779 47.6858 47.1984V38.5928C47.6858 38.4133 47.6145 38.2411 47.4876 38.1142C47.3606 37.9872 47.1884 37.9159 47.0089 37.9159C46.8294 37.9159 46.6572 37.9872 46.5303 38.1142C46.4033 38.2411 46.332 38.4133 46.332 38.5928V47.1984C46.332 47.3779 46.4033 47.5501 46.5303 47.677C46.6572 47.8039 46.8294 47.8753 47.0089 47.8753Z" fill="white"/>
<defs>
<linearGradient id="paint0_linear_6584_8607" x1="30" y1="0" x2="30" y2="60" gradientUnits="userSpaceOnUse">
<stop stop-color="#E96C6F"/>
<stop offset="1" stop-color="#DA4884"/>
</linearGradient>
</defs>
</svg>
