<svg width="60" height="60" viewBox="0 0 60 60" fill="none" xmlns="http://www.w3.org/2000/svg">
<rect width="60" height="60" rx="12" fill="url(#paint0_linear_6584_8620)"/>
<path d="M12.8084 36.2477L12.8089 44.6436L21.9305 48.3161V39.9197L12.8084 36.2477ZM44.2048 35.6308C44.2048 35.9858 43.9167 36.274 43.5617 36.274C43.2067 36.274 42.9185 35.9858 42.9185 35.6308V33.1104L42.3615 33.3347V34.4073C42.3716 34.6707 42.2176 34.9244 41.9594 35.0282L39.0034 36.2183V43.0833L42.9195 41.5068V39.2239C42.9195 38.8689 43.2077 38.5807 43.5627 38.5807C43.9177 38.5807 44.2058 38.8689 44.2058 39.2239V40.9887L48.125 39.4107L48.1245 31.0143L44.2048 32.5923V35.6308ZM47.0489 30.0653L42.361 28.1779L42.3615 31.9527C43.9238 31.3237 45.4866 30.6943 47.0489 30.0653ZM29.1439 40.2134C29.1439 40.5669 28.8568 40.854 28.5033 40.854C28.1499 40.854 27.8627 40.5669 27.8627 40.2134L27.8637 38.0485L23.2168 39.9197V48.3161L27.8627 46.4454V43.3335C27.8627 42.9785 28.1509 42.6903 28.5059 42.6903C28.8609 42.6903 29.149 42.9785 29.149 43.3335V45.9273L32.3379 44.6436C32.3379 42.7298 32.3379 40.8161 32.3374 38.9023L31.6031 39.198C31.5165 39.2416 31.4188 39.2659 31.3155 39.2659C31.2122 39.2659 31.1144 39.2416 31.0278 39.198L29.145 38.4399L29.1439 40.2134ZM33.6187 38.3863V41.4329L37.7171 43.0833V36.7363C36.3508 37.2863 34.985 37.8363 33.6187 38.3863ZM35.8753 36.0957V34.2767C35.8753 33.9217 36.1634 33.6335 36.5184 33.6335C36.8734 33.6335 37.1616 33.9217 37.1616 34.2767V35.5782C38.4676 35.052 39.7737 34.5258 41.0802 34.0002C41.0802 31.2017 41.0807 28.4027 41.0797 25.6043L37.1585 27.1828L37.1605 30.4664C37.1605 30.8214 36.8724 31.1095 36.5174 31.1095C36.1624 31.1095 35.8742 30.8214 35.8742 30.4664V27.6998L31.9586 29.2758V37.6727L35.8753 36.0957ZM30.0084 23.4378L36.5179 26.0585L40.0041 24.6552L31.3155 21.1569L30.6531 21.4238C30.5148 22.0847 30.294 22.7567 30.0084 23.4378ZM34.8017 26.7493L29.4645 24.601C29.0812 25.35 28.633 26.1087 28.1423 26.8754L31.3155 28.1526L34.8017 26.7493ZM22.8613 49.8414C22.7747 49.885 22.677 49.9093 22.5737 49.9093C22.4704 49.9093 22.3726 49.885 22.286 49.8414L11.9298 45.6716C11.6943 45.5764 11.5277 45.346 11.5277 45.0765L11.5272 35.3234C11.5236 35.2358 11.5383 35.1462 11.5728 35.0601C11.6406 34.891 11.7723 34.7669 11.9293 34.7036L17.5839 32.4262C17.2502 31.9608 16.9129 31.4959 16.5762 31.0321C13.7524 27.1412 11 23.3502 11 19.9091C11 17.1729 12.1096 14.695 13.9023 12.9023C15.695 11.1096 18.1729 10 20.9091 10C23.6453 10 26.1232 11.1096 27.9159 12.9023C29.7086 14.695 30.8182 17.1729 30.8182 19.9091L30.8172 19.9749L31.0769 19.8706C31.236 19.8068 31.4061 19.8113 31.554 19.8706L41.9589 24.0602C42.2171 24.164 42.3711 24.4172 42.361 24.6806V26.7959L49.0036 29.4703C49.2619 29.5741 49.4159 29.8273 49.4057 30.0906L49.4062 39.8184C49.4164 40.0812 49.2624 40.335 49.0041 40.4388C45.5519 41.8284 42.1002 43.2185 38.6479 44.6086C38.5613 44.6522 38.4636 44.6765 38.3603 44.6765C38.2569 44.6765 38.1592 44.6522 38.0726 44.6086L33.6192 42.8154V45.0507C33.6293 45.3141 33.4753 45.5678 33.2171 45.6716C29.7653 47.0617 26.3131 48.4513 22.8613 49.8414ZM22.7899 34.4995C25.4182 35.5574 28.045 36.6153 30.6723 37.6727V29.2758L27.4201 27.9667C26.7324 28.9785 25.989 30.0025 25.241 31.0331C24.4054 32.1847 23.5627 33.3459 22.7899 34.4995ZM26.3019 37.2954L22.0784 35.5949C21.8647 35.9352 21.6591 36.2745 21.4641 36.6123C21.2869 36.9187 20.8939 37.023 20.5875 36.8457C20.4751 36.7804 20.3895 36.6862 20.3353 36.5778C19.7499 35.5665 19.0683 34.5365 18.3461 33.5019L13.8841 35.2986L22.5737 38.7965L26.3019 37.2954ZM20.9091 14.0392C22.4729 14.0392 23.8899 14.6742 24.9154 15.6992C25.9429 16.7273 26.5779 18.1447 26.5779 19.7075C26.5779 21.2698 25.9429 22.6868 24.9174 23.7133C23.8509 24.7798 22.4182 25.3764 20.9091 25.3764C19.3448 25.3764 17.9263 24.7413 16.9008 23.7158C15.8317 22.5703 15.2407 21.2957 15.2407 19.7075C15.2407 18.1447 15.8758 16.7273 16.9008 15.7018C17.9288 14.6742 19.3463 14.0392 20.9091 14.0392ZM24.0094 16.6077C23.2173 15.8157 22.1204 15.3255 20.9091 15.3255C19.6982 15.3255 18.6013 15.8157 17.8093 16.6077C17.0173 17.3998 16.527 18.4967 16.527 19.7075C16.527 20.8201 16.9904 22.0381 17.8103 22.8063C18.6029 23.5988 19.6993 24.0901 20.9091 24.0901C22.1209 24.0901 23.2173 23.5999 24.0079 22.8088C24.8014 22.0158 25.2916 20.9194 25.2916 19.7075C25.2916 18.4967 24.8014 17.3998 24.0094 16.6077ZM27.0064 13.8118C25.4466 12.252 23.2903 11.2863 20.9091 11.2863C18.5279 11.2863 16.3716 12.252 14.8118 13.8118C13.252 15.3716 12.2863 17.5279 12.2863 19.9091C12.2863 22.9349 14.9171 26.5594 17.6164 30.2785C18.7482 31.8367 19.8932 33.4092 20.9086 35.0454C21.9012 33.4482 23.0573 31.855 24.2008 30.2795C26.901 26.5599 29.5319 22.9354 29.5319 19.9091C29.5319 17.5279 28.5661 15.3716 27.0064 13.8118Z" fill="white"/>
<defs>
<linearGradient id="paint0_linear_6584_8620" x1="30" y1="0" x2="30" y2="69" gradientUnits="userSpaceOnUse">
<stop offset="0.0601093" stop-color="#82D176"/>
<stop offset="1" stop-color="#52AB76"/>
</linearGradient>
</defs>
</svg>
