<svg width="68" height="66" viewBox="0 0 68 66" fill="none" xmlns="http://www.w3.org/2000/svg">
<g opacity="0.6">
<path fill-rule="evenodd" clip-rule="evenodd" d="M22.0398 5.63465H14.2028C13.7786 5.63465 13.4346 5.29065 13.4346 4.86666C13.4348 4.44267 13.7786 4.09868 14.2026 4.09868L22.0398 4.09863C22.464 4.09863 22.8078 4.44267 22.8078 4.86666C22.8078 5.29065 22.4638 5.63465 22.0398 5.63465Z" fill="#72B2E7"/>
<path fill-rule="evenodd" clip-rule="evenodd" d="M45.5677 5.63465H37.7318C37.3077 5.63465 36.9634 5.29065 36.9634 4.86666C36.9638 4.44267 37.3074 4.09868 37.7314 4.09868L45.5677 4.09863C45.9913 4.09863 46.3352 4.44267 46.3352 4.86666C46.3356 5.29065 45.9912 5.63465 45.5677 5.63465Z" fill="#72B2E7"/>
<path fill-rule="evenodd" clip-rule="evenodd" d="M59.0019 43.9325C58.5777 43.9325 58.2336 43.5899 58.2336 43.1646L58.2339 8.50127C58.2339 6.92125 56.9469 5.63465 55.3656 5.63465H49.4951C49.0716 5.63465 48.7271 5.29065 48.7271 4.86666C48.7271 4.44267 49.0711 4.09868 49.495 4.09868L55.366 4.09863C57.7936 4.09863 59.7696 6.07329 59.7696 8.50127L59.7699 43.1645C59.7699 43.5899 59.4255 43.9326 59.0019 43.9325Z" fill="#72B2E7"/>
<path fill-rule="evenodd" clip-rule="evenodd" d="M33.8038 5.63465H25.9679C25.5425 5.63465 25.1997 5.29065 25.1997 4.86666C25.1999 4.44267 25.5423 4.09868 25.9676 4.09868L33.8038 4.09863C34.2292 4.09863 34.5715 4.44267 34.5715 4.86666C34.5717 5.29065 34.2289 5.63465 33.8038 5.63465Z" fill="#72B2E7"/>
<path fill-rule="evenodd" clip-rule="evenodd" d="M44.0111 58.0469H4.40415C1.97599 58.0469 0 56.071 0 53.643L0.000258703 8.50127C0.000258703 6.07324 1.9759 4.09868 4.40385 4.09868L10.275 4.09863C10.6986 4.09863 11.0424 4.44267 11.0424 4.86666C11.0424 5.29065 10.6984 5.63465 10.2745 5.63465H4.40414C2.82258 5.63465 1.53596 6.9213 1.53596 8.50127L1.53622 53.6429C1.53622 55.2243 2.82258 56.5109 4.40385 56.5109L44.0111 56.5109C44.4353 56.5109 44.7791 56.8549 44.7791 57.2789C44.7791 57.7028 44.4351 58.047 44.0111 58.0469Z" fill="#72B2E7"/>
<path fill-rule="evenodd" clip-rule="evenodd" d="M12.2387 1.53597C11.5799 1.53597 11.0423 2.0733 11.0423 2.73333V6.99716C11.0423 7.65714 11.5797 8.19452 12.2383 8.19452C12.8987 8.19452 13.4357 7.65719 13.4357 6.99854V2.73329C13.4357 2.07326 12.8983 1.53597 12.2387 1.53597ZM12.2387 9.73049C10.7321 9.73049 9.50635 8.50382 9.50635 6.9972V2.73329C9.50635 1.22528 10.7316 0 12.2383 0C13.7452 0 14.9716 1.22533 14.9716 2.73333V6.99849C14.9716 8.50516 13.7463 9.73049 12.2387 9.73049Z" fill="#72B2E7"/>
<path fill-rule="evenodd" clip-rule="evenodd" d="M24.0024 1.53597C23.3424 1.53597 22.806 2.0733 22.806 2.73333V6.99716C22.806 7.65714 23.3419 8.19452 24.0019 8.19452C24.6606 8.19452 25.198 7.65719 25.1992 6.9972L25.1994 2.73329C25.1994 2.07326 24.6619 1.53597 24.0024 1.53597ZM24.0024 9.73049C22.4958 9.73049 21.27 8.50382 21.27 6.9972V2.73329C21.27 1.22528 22.4953 0 24.0019 0C25.5089 0 26.7352 1.22533 26.7352 2.73333L26.7353 6.99849C26.7329 8.50516 25.5072 9.73049 24.0024 9.73049Z" fill="#72B2E7"/>
<path fill-rule="evenodd" clip-rule="evenodd" d="M35.768 1.53597C35.108 1.53597 34.5706 2.0733 34.5706 2.73333L34.571 6.99716C34.571 7.65714 35.108 8.19452 35.7679 8.19452C36.4279 8.19452 36.9639 7.65719 36.9639 6.99854L36.9643 2.73329C36.9643 2.07326 36.4279 1.53597 35.768 1.53597ZM35.768 9.73049C34.2614 9.73049 33.0347 8.50382 33.0347 6.9972L33.0351 2.73329C33.0351 1.22528 34.2613 0 35.7679 0C37.2751 0 38.4999 1.22533 38.4999 2.73333L38.5003 6.99849C38.5003 8.50516 37.2746 9.73049 35.768 9.73049Z" fill="#72B2E7"/>
<path fill-rule="evenodd" clip-rule="evenodd" d="M47.5297 1.53597C46.8709 1.53597 46.3333 2.0733 46.3333 2.73333V6.99716C46.3333 7.65714 46.8708 8.19452 47.5294 8.19452C48.1897 8.19452 48.7266 7.65719 48.7266 6.99854L48.7267 2.73329C48.7267 2.07326 48.1893 1.53597 47.5297 1.53597ZM47.5297 9.73049C46.0232 9.73049 44.7974 8.50382 44.7974 6.9972V2.73329C44.7974 1.22528 46.0227 0 47.5294 0C49.0375 0 50.2627 1.22533 50.2627 2.73333V6.99849C50.2627 8.50516 49.0374 9.73049 47.5297 9.73049Z" fill="#72B2E7"/>
<path fill-rule="evenodd" clip-rule="evenodd" d="M59.0031 14.9984H0.768243C0.343998 14.9984 0 14.6544 0 14.2304C0.00025858 13.8064 0.343998 13.4624 0.767941 13.4624L59.003 13.4624C59.4272 13.4624 59.7708 13.8064 59.7708 14.2304C59.771 14.6544 59.4268 14.9984 59.0031 14.9984Z" fill="#72B2E7"/>
<path fill-rule="evenodd" clip-rule="evenodd" d="M12.3458 21.774C11.084 21.774 10.056 22.8007 10.056 24.0634C10.0562 25.3246 11.0839 26.3526 12.3452 26.3526C13.6081 26.3526 14.6359 25.3246 14.6359 24.0634C14.6359 22.8006 13.6079 21.774 12.3458 21.774ZM12.3458 27.8885C10.2362 27.8885 8.52002 26.1726 8.52002 24.0634C8.52024 21.9539 10.236 20.238 12.3452 20.238C14.4548 20.238 16.1704 21.954 16.1704 24.0634C16.1707 26.1726 14.4545 27.8885 12.3458 27.8885Z" fill="#72B2E7"/>
<path fill-rule="evenodd" clip-rule="evenodd" d="M24.0373 21.774C22.7755 21.774 21.7474 22.8007 21.7474 24.0634C21.7477 25.3246 22.7754 26.3526 24.0367 26.3526C25.2997 26.3526 26.3273 25.3246 26.3273 24.0634C26.3274 22.8006 25.2993 21.774 24.0373 21.774ZM24.0373 27.8885C21.9277 27.8885 20.2114 26.1726 20.2114 24.0634C20.2117 21.9539 21.9274 20.238 24.0367 20.238C26.1462 20.238 27.8632 21.954 27.8632 24.0634C27.8634 26.1726 26.146 27.8885 24.0373 27.8885Z" fill="#72B2E7"/>
<path fill-rule="evenodd" clip-rule="evenodd" d="M35.7325 21.774C34.4695 21.774 33.4413 22.8007 33.4413 24.0634C33.4418 25.3246 34.4694 26.3526 35.732 26.3526C36.9937 26.3526 38.0213 25.3246 38.0213 24.0634C38.0214 22.8006 36.9933 21.774 35.7325 21.774ZM35.7325 27.8885C33.6229 27.8885 31.9067 26.1726 31.9067 24.0634C31.907 21.9539 33.6226 20.238 35.732 20.238C37.8415 20.238 39.5572 21.954 39.5572 24.0634C39.5574 26.1726 37.8412 27.8885 35.7325 27.8885Z" fill="#72B2E7"/>
<path fill-rule="evenodd" clip-rule="evenodd" d="M47.4234 21.774C46.161 21.774 45.1327 22.8007 45.1327 24.0634C45.1327 25.3246 46.1607 26.3526 47.4233 26.3526C48.6846 26.3526 49.7126 25.3246 49.7126 24.0634C49.7129 22.8006 48.6846 21.774 47.4234 21.774ZM47.4234 27.8885C45.3126 27.8885 43.5967 26.1726 43.5967 24.0634C43.5967 21.9539 45.3126 20.238 47.4233 20.238C49.5329 20.238 51.2486 21.954 51.2486 24.0634C51.2489 26.1726 49.5325 27.8885 47.4234 27.8885Z" fill="#72B2E7"/>
<path fill-rule="evenodd" clip-rule="evenodd" d="M12.3458 33.4648C11.084 33.4648 10.056 34.4928 10.056 35.7554C10.0562 37.0167 11.0839 38.0447 12.3452 38.0447C13.6081 38.0447 14.6359 37.0168 14.6359 35.7554C14.6359 34.4928 13.6079 33.4648 12.3458 33.4648ZM12.3458 39.5807C10.2362 39.5807 8.52002 37.8647 8.52002 35.7554C8.52024 33.6461 10.236 31.9302 12.3452 31.9302C14.4548 31.9302 16.1704 33.6462 16.1704 35.7554C16.1707 37.8647 14.4545 39.5807 12.3458 39.5807Z" fill="#72B2E7"/>
<path fill-rule="evenodd" clip-rule="evenodd" d="M24.0373 33.4648C22.7755 33.4648 21.7474 34.4928 21.7474 35.7554C21.7477 37.0167 22.7754 38.0447 24.0367 38.0447C25.2997 38.0447 26.3273 37.0168 26.3273 35.7554C26.3274 34.4928 25.2993 33.4648 24.0373 33.4648ZM24.0373 39.5807C21.9277 39.5807 20.2114 37.8647 20.2114 35.7554C20.2117 33.6461 21.9274 31.9302 24.0367 31.9302C26.1462 31.9302 27.8632 33.6462 27.8632 35.7554C27.8634 37.8647 26.146 39.5807 24.0373 39.5807Z" fill="#72B2E7"/>
<path fill-rule="evenodd" clip-rule="evenodd" d="M35.7325 33.4648C34.4695 33.4648 33.4413 34.4928 33.4413 35.7554C33.4418 37.0167 34.4694 38.0447 35.732 38.0447C36.9937 38.0447 38.0213 37.0168 38.0213 35.7554C38.0214 34.4928 36.9933 33.4648 35.7325 33.4648ZM35.7325 39.5807C33.6229 39.5807 31.9067 37.8647 31.9067 35.7554C31.907 33.6461 33.6226 31.9302 35.732 31.9302C37.8415 31.9302 39.5572 33.6462 39.5572 35.7554C39.5574 37.8647 37.8412 39.5807 35.7325 39.5807Z" fill="#72B2E7"/>
<path fill-rule="evenodd" clip-rule="evenodd" d="M47.4234 33.4648C46.161 33.4648 45.1327 34.4928 45.1327 35.7554C45.1327 37.0167 46.1607 38.0447 47.4233 38.0447C48.6846 38.0447 49.7126 37.0168 49.7126 35.7554C49.7129 34.4928 48.6846 33.4648 47.4234 33.4648ZM47.4234 39.5807C45.3126 39.5807 43.5967 37.8647 43.5967 35.7554C43.5967 33.6461 45.3126 31.9302 47.4233 31.9302C49.5329 31.9302 51.2486 33.6462 51.2486 35.7554C51.2489 37.8647 49.5325 39.5807 47.4234 39.5807Z" fill="#72B2E7"/>
<path fill-rule="evenodd" clip-rule="evenodd" d="M12.3458 45.1576C11.084 45.1576 10.056 46.1856 10.056 47.4483C10.0562 48.7095 11.0839 49.7375 12.3452 49.7375C13.6081 49.7375 14.6359 48.7096 14.6359 47.4483C14.6359 46.1856 13.6079 45.1577 12.3458 45.1576ZM12.3458 51.2735C10.2362 51.2735 8.52002 49.5576 8.52002 47.4483C8.52024 45.339 10.236 43.623 12.3452 43.623C14.4548 43.623 16.1704 45.339 16.1704 47.4483C16.1707 49.5575 14.4545 51.2735 12.3458 51.2735Z" fill="#72B2E7"/>
<path fill-rule="evenodd" clip-rule="evenodd" d="M24.0373 45.1576C22.7755 45.1576 21.7474 46.1856 21.7474 47.4483C21.7477 48.7095 22.7754 49.7375 24.0367 49.7375C25.2997 49.7375 26.3273 48.7096 26.3273 47.4483C26.3274 46.1856 25.2993 45.1577 24.0373 45.1576ZM24.0373 51.2735C21.9277 51.2735 20.2114 49.5576 20.2114 47.4483C20.2117 45.339 21.9274 43.623 24.0367 43.623C26.1462 43.623 27.8632 45.339 27.8632 47.4483C27.8634 49.5575 26.146 51.2735 24.0373 51.2735Z" fill="#72B2E7"/>
<path fill-rule="evenodd" clip-rule="evenodd" d="M35.7325 45.1576C34.4695 45.1576 33.4413 46.1856 33.4413 47.4483C33.4418 48.7095 34.4694 49.7375 35.732 49.7375C36.9937 49.7375 38.0213 48.7096 38.0213 47.4483C38.0214 46.1856 36.9933 45.1577 35.7325 45.1576ZM35.7325 51.2735C33.6229 51.2735 31.9067 49.5576 31.9067 47.4483C31.907 45.339 33.6226 43.623 35.732 43.623C37.8415 43.623 39.5572 45.339 39.5572 47.4483C39.5574 49.5575 37.8412 51.2735 35.7325 51.2735Z" fill="#72B2E7"/>
<path fill-rule="evenodd" clip-rule="evenodd" d="M54.8926 43.1712C49.0217 43.1712 44.246 47.9471 44.246 53.8177C44.2465 59.6882 49.0217 64.4641 54.8923 64.4641C60.763 64.4641 65.5388 59.6882 65.5388 53.8177C65.5388 47.9471 60.763 43.1712 54.8926 43.1712ZM54.8926 66.0001C48.1751 66.0001 42.71 60.5348 42.71 53.8177C42.7105 47.1004 48.1751 41.6353 54.8923 41.6353C61.6101 41.6352 67.0748 47.1005 67.0748 53.8177C67.0748 60.5348 61.6096 66.0001 54.8926 66.0001Z" fill="#72B2E7"/>
<path fill-rule="evenodd" clip-rule="evenodd" d="M54.893 46.6376C50.9343 46.6376 47.7142 49.859 47.7142 53.8176C47.7142 57.7761 50.934 60.9961 54.8927 60.9961C58.8517 60.996 62.0712 57.7761 62.0712 53.8176C62.0712 49.859 58.8512 46.6376 54.893 46.6376ZM54.893 62.5319C50.0878 62.5319 46.1782 58.6227 46.1782 53.8175C46.1782 49.0122 50.0874 45.103 54.8927 45.103C59.6983 45.1029 63.6072 49.0122 63.6072 53.8175C63.6072 58.6227 59.698 62.532 54.893 62.5319Z" fill="#72B2E7"/>
<path fill-rule="evenodd" clip-rule="evenodd" d="M54.8923 48.3603C54.4681 48.3603 54.124 48.0163 54.124 47.5923L54.1243 45.8696C54.1243 45.4456 54.4681 45.103 54.892 45.103C55.3166 45.1029 55.66 45.4456 55.66 45.8696L55.6603 47.5923C55.6603 48.0162 55.316 48.3603 54.8923 48.3603Z" fill="#72B2E7"/>
<path fill-rule="evenodd" clip-rule="evenodd" d="M48.6673 54.5855H46.9435C46.5193 54.5855 46.1753 54.2415 46.1753 53.8176C46.1756 53.3936 46.5192 53.0496 46.9433 53.0496H48.6673C49.0915 53.0496 49.4353 53.3936 49.4353 53.8176C49.4353 54.2415 49.0912 54.5856 48.6673 54.5855Z" fill="#72B2E7"/>
<path fill-rule="evenodd" clip-rule="evenodd" d="M54.8923 62.532C54.4681 62.532 54.124 62.188 54.124 61.7641L54.1243 60.0414C54.1243 59.6174 54.4681 59.2734 54.892 59.2734C55.3166 59.2734 55.66 59.6174 55.66 60.0414L55.6603 61.764C55.6603 62.188 55.316 62.5321 54.8923 62.532Z" fill="#72B2E7"/>
<path fill-rule="evenodd" clip-rule="evenodd" d="M62.8387 54.5855H61.1161C60.6926 54.5855 60.3481 54.2415 60.3481 53.8176C60.3481 53.3936 60.6921 53.0496 61.116 53.0496H62.8387C63.2629 53.0496 63.6067 53.3936 63.6067 53.8176C63.6067 54.2415 63.2627 54.5856 62.8387 54.5855Z" fill="#72B2E7"/>
<path fill-rule="evenodd" clip-rule="evenodd" d="M58.4628 54.5855H54.8923C54.4681 54.5855 54.124 54.2415 54.124 53.8176L54.1243 50.7069C54.1243 50.2816 54.4681 49.939 54.892 49.939C55.3166 49.9389 55.66 50.2816 55.66 50.707L55.6603 53.0496H58.4628C58.887 53.0496 59.2305 53.3936 59.2305 53.8176C59.2308 54.2415 58.8866 54.5856 58.4628 54.5855Z" fill="#72B2E7"/>
</g>
</svg>
