<svg width="74" height="72" viewBox="0 0 74 72" fill="none" xmlns="http://www.w3.org/2000/svg">
<g opacity="0.6">
<path fill-rule="evenodd" clip-rule="evenodd" d="M24.0433 6.14684H15.4938C15.0311 6.14684 14.6558 5.77157 14.6558 5.30904C14.656 4.84651 15.0311 4.47124 15.4936 4.47124L24.0433 4.47119C24.506 4.47119 24.8811 4.84651 24.8811 5.30904C24.8811 5.77157 24.5058 6.14684 24.0433 6.14684Z" fill="#6A63C3"/>
<path fill-rule="evenodd" clip-rule="evenodd" d="M49.7102 6.14684H41.162C40.6993 6.14684 40.3237 5.77157 40.3237 5.30904C40.3242 4.84651 40.699 4.47124 41.1615 4.47124L49.7102 4.47119C50.1723 4.47119 50.5475 4.84651 50.5475 5.30904C50.548 5.77157 50.1722 6.14684 49.7102 6.14684Z" fill="#6A63C3"/>
<path fill-rule="evenodd" clip-rule="evenodd" d="M64.3657 47.9263C63.9029 47.9263 63.5275 47.5526 63.5275 47.0886L63.5279 9.27407C63.5279 7.55041 62.1238 6.14684 60.3988 6.14684H53.9946C53.5326 6.14684 53.1567 5.77157 53.1567 5.30904C53.1568 4.84651 53.5321 4.47124 53.9945 4.47124L60.3993 4.47119C63.0475 4.47119 65.2031 6.62536 65.2031 9.27407L65.2035 47.0885C65.2035 47.5526 64.8278 47.9264 64.3657 47.9263Z" fill="#6A63C3"/>
<path fill-rule="evenodd" clip-rule="evenodd" d="M36.877 6.14684H28.3288C27.8647 6.14684 27.4907 5.77157 27.4907 5.30904C27.491 4.84651 27.8644 4.47124 28.3284 4.47124L36.877 4.47119C37.341 4.47119 37.7145 4.84651 37.7145 5.30904C37.7148 5.77157 37.3407 6.14684 36.877 6.14684Z" fill="#6A63C3"/>
<path fill-rule="evenodd" clip-rule="evenodd" d="M48.0121 63.3239H4.80453C2.15563 63.3239 0 61.1683 0 58.5196L0.000282222 9.27407C0.000282222 6.62531 2.15553 4.47124 4.8042 4.47124L11.2091 4.47119C11.6712 4.47119 12.0463 4.84651 12.0463 5.30904C12.0463 5.77157 11.671 6.14684 11.2085 6.14684H4.80452C3.07918 6.14684 1.6756 7.55046 1.6756 9.27407L1.67588 58.5195C1.67588 60.2447 3.07918 61.6482 4.80419 61.6482L48.0121 61.6482C48.4749 61.6482 48.8499 62.0235 48.8499 62.486C48.8499 62.9485 48.4747 63.3239 48.0121 63.3239Z" fill="#6A63C3"/>
<path fill-rule="evenodd" clip-rule="evenodd" d="M13.3513 1.6756C12.6327 1.6756 12.0462 2.26178 12.0462 2.98181V7.63326C12.0462 8.35324 12.6324 8.93947 13.3509 8.93947C14.0713 8.93947 14.6571 8.35329 14.6571 7.63477V2.98177C14.6571 2.26174 14.0709 1.6756 13.3513 1.6756ZM13.3513 10.6151C11.7078 10.6151 10.3706 9.2769 10.3706 7.63331V2.98177C10.3706 1.33667 11.7073 0 13.3509 0C14.9948 0 16.3327 1.33672 16.3327 2.98181V7.63472C16.3327 9.27835 14.996 10.6151 13.3513 10.6151Z" fill="#6A63C3"/>
<path fill-rule="evenodd" clip-rule="evenodd" d="M26.1844 1.6756C25.4644 1.6756 24.8792 2.26178 24.8792 2.98181V7.63326C24.8792 8.35324 25.4639 8.93947 26.1839 8.93947C26.9024 8.93947 27.4886 8.35329 27.49 7.63331L27.4902 2.98177C27.4902 2.26174 26.9039 1.6756 26.1844 1.6756ZM26.1844 10.6151C24.5408 10.6151 23.2036 9.2769 23.2036 7.63331V2.98177C23.2036 1.33667 24.5403 0 26.1839 0C27.8279 0 29.1656 1.33672 29.1656 2.98181L29.1658 7.63472C29.1632 9.27835 27.826 10.6151 26.1844 10.6151Z" fill="#6A63C3"/>
<path fill-rule="evenodd" clip-rule="evenodd" d="M39.0194 1.6756C38.2994 1.6756 37.7132 2.26178 37.7132 2.98181L37.7136 7.63326C37.7136 8.35324 38.2994 8.93947 39.0193 8.93947C39.7394 8.93947 40.324 8.35329 40.324 7.63477L40.3245 2.98177C40.3245 2.26174 39.7393 1.6756 39.0194 1.6756ZM39.0194 10.6151C37.3759 10.6151 36.0376 9.2769 36.0376 7.63331L36.038 2.98177C36.038 1.33667 37.3758 0 39.0193 0C40.6636 0 41.9996 1.33672 41.9996 2.98181L42.0001 7.63472C42.0001 9.27835 40.663 10.6151 39.0194 10.6151Z" fill="#6A63C3"/>
<path fill-rule="evenodd" clip-rule="evenodd" d="M51.8499 1.6756C51.1312 1.6756 50.5447 2.26178 50.5447 2.98181V7.63326C50.5447 8.35324 51.131 8.93947 51.8495 8.93947C52.5699 8.93947 53.1556 8.35329 53.1556 7.63477L53.1557 2.98177C53.1557 2.26174 52.5695 1.6756 51.8499 1.6756ZM51.8499 10.6151C50.2064 10.6151 48.8691 9.2769 48.8691 7.63331V2.98177C48.8691 1.33667 50.2059 0 51.8495 0C53.4948 0 54.8313 1.33672 54.8313 2.98181V7.63472C54.8313 9.27835 53.4946 10.6151 51.8499 10.6151Z" fill="#6A63C3"/>
<path fill-rule="evenodd" clip-rule="evenodd" d="M64.367 16.3619H0.838083C0.375271 16.3619 0 15.9867 0 15.5241C0.000282088 15.0616 0.375271 14.6863 0.837754 14.6863L64.3669 14.6863C64.8296 14.6863 65.2045 15.0616 65.2045 15.5241C65.2047 15.9866 64.8292 16.3619 64.367 16.3619Z" fill="#6A63C3"/>
<path fill-rule="evenodd" clip-rule="evenodd" d="M38.9807 23.7534C37.6029 23.7534 36.4812 24.8735 36.4812 26.251C36.4817 27.6269 37.6027 28.7483 38.9801 28.7483C40.3566 28.7483 41.4775 27.6269 41.4775 26.251C41.4777 24.8734 40.3561 23.7535 38.9807 23.7534ZM38.9807 30.4239C36.6793 30.4239 34.8071 28.5519 34.8071 26.251C34.8075 23.9498 36.679 22.0779 38.9801 22.0779C41.2814 22.0778 43.1531 23.9499 43.1531 26.251C43.1533 28.5519 41.2811 30.4239 38.9807 30.4239Z" fill="#6A63C3"/>
<path fill-rule="evenodd" clip-rule="evenodd" d="M51.7346 23.7534C50.3575 23.7534 49.2357 24.8735 49.2357 26.251C49.2357 27.6269 50.3572 28.7483 51.7345 28.7483C53.1105 28.7483 54.232 27.6269 54.232 26.251C54.2323 24.8734 53.1105 23.7535 51.7346 23.7534ZM51.7346 30.4239C49.432 30.4239 47.5601 28.5519 47.5601 26.251C47.5601 23.9498 49.432 22.0779 51.7345 22.0779C54.036 22.0778 55.9076 23.9499 55.9076 26.251C55.9079 28.5519 54.0355 30.4239 51.7346 30.4239Z" fill="#6A63C3"/>
<path fill-rule="evenodd" clip-rule="evenodd" d="M13.468 36.5069C12.0915 36.5069 10.97 37.6284 10.97 39.0058C10.9703 40.3817 12.0914 41.5032 13.4674 41.5032C14.8451 41.5032 15.9663 40.3818 15.9663 39.0058C15.9663 37.6284 14.8448 36.5069 13.468 36.5069ZM13.468 43.1788C11.1666 43.1788 9.29443 41.3068 9.29443 39.0058C9.29467 36.7047 11.1664 34.8328 13.4674 34.8328C15.7687 34.8328 17.6403 36.7047 17.6403 39.0058C17.6406 41.3068 15.7684 43.1788 13.468 43.1788Z" fill="#6A63C3"/>
<path fill-rule="evenodd" clip-rule="evenodd" d="M26.2229 36.5069C24.8465 36.5069 23.7249 37.6284 23.7249 39.0058C23.7253 40.3817 24.8464 41.5032 26.2224 41.5032C27.6001 41.5032 28.7212 40.3818 28.7212 39.0058C28.7213 37.6284 27.5998 36.5069 26.2229 36.5069ZM26.2229 43.1788C23.9216 43.1788 22.0493 41.3068 22.0493 39.0058C22.0496 36.7047 23.9213 34.8328 26.2224 34.8328C28.5237 34.8328 30.3967 36.7047 30.3967 39.0058C30.3969 41.3068 28.5234 43.1788 26.2229 43.1788Z" fill="#6A63C3"/>
<path fill-rule="evenodd" clip-rule="evenodd" d="M38.9807 36.5069C37.6029 36.5069 36.4812 37.6284 36.4812 39.0058C36.4817 40.3817 37.6027 41.5032 38.9801 41.5032C40.3566 41.5032 41.4775 40.3818 41.4775 39.0058C41.4777 37.6284 40.3561 36.5069 38.9807 36.5069ZM38.9807 43.1788C36.6793 43.1788 34.8071 41.3068 34.8071 39.0058C34.8075 36.7047 36.679 34.8328 38.9801 34.8328C41.2814 34.8328 43.1531 36.7047 43.1531 39.0058C43.1533 41.3068 41.2811 43.1788 38.9807 43.1788Z" fill="#6A63C3"/>
<path fill-rule="evenodd" clip-rule="evenodd" d="M51.7346 36.5069C50.3575 36.5069 49.2357 37.6284 49.2357 39.0058C49.2357 40.3817 50.3572 41.5032 51.7345 41.5032C53.1105 41.5032 54.232 40.3818 54.232 39.0058C54.2323 37.6284 53.1105 36.5069 51.7346 36.5069ZM51.7346 43.1788C49.432 43.1788 47.5601 41.3068 47.5601 39.0058C47.5601 36.7047 49.432 34.8328 51.7345 34.8328C54.036 34.8328 55.9076 36.7047 55.9076 39.0058C55.9079 41.3068 54.0355 43.1788 51.7346 43.1788Z" fill="#6A63C3"/>
<path fill-rule="evenodd" clip-rule="evenodd" d="M13.468 49.2629C12.0915 49.2629 10.97 50.3844 10.97 51.7618C10.9703 53.1378 12.0914 54.2592 13.4674 54.2592C14.8451 54.2592 15.9663 53.1378 15.9663 51.7618C15.9663 50.3844 14.8448 49.263 13.468 49.2629ZM13.468 55.9348C11.1666 55.9348 9.29443 54.0629 9.29443 51.7618C9.29467 49.4608 11.1664 47.5889 13.4674 47.5889C15.7687 47.5888 17.6403 49.4608 17.6403 51.7618C17.6406 54.0628 15.7684 55.9348 13.468 55.9348Z" fill="#6A63C3"/>
<path fill-rule="evenodd" clip-rule="evenodd" d="M26.2229 49.2629C24.8465 49.2629 23.7249 50.3844 23.7249 51.7618C23.7253 53.1378 24.8464 54.2592 26.2224 54.2592C27.6001 54.2592 28.7212 53.1378 28.7212 51.7618C28.7213 50.3844 27.5998 49.263 26.2229 49.2629ZM26.2229 55.9348C23.9216 55.9348 22.0493 54.0629 22.0493 51.7618C22.0496 49.4608 23.9213 47.5889 26.2224 47.5889C28.5237 47.5888 30.3967 49.4608 30.3967 51.7618C30.3969 54.0628 28.5234 55.9348 26.2229 55.9348Z" fill="#6A63C3"/>
<path fill-rule="evenodd" clip-rule="evenodd" d="M38.9807 49.2629C37.6029 49.2629 36.4812 50.3844 36.4812 51.7618C36.4817 53.1378 37.6027 54.2592 38.9801 54.2592C40.3566 54.2592 41.4775 53.1378 41.4775 51.7618C41.4777 50.3844 40.3561 49.263 38.9807 49.2629ZM38.9807 55.9348C36.6793 55.9348 34.8071 54.0629 34.8071 51.7618C34.8075 49.4608 36.679 47.5889 38.9801 47.5889C41.2814 47.5888 43.1531 49.4608 43.1531 51.7618C43.1533 54.0628 41.2811 55.9348 38.9807 55.9348Z" fill="#6A63C3"/>
<path fill-rule="evenodd" clip-rule="evenodd" d="M59.883 47.0957C53.4783 47.0957 48.2684 52.3058 48.2684 58.7101C48.269 65.1143 53.4784 70.3244 59.8826 70.3244C66.287 70.3244 71.4969 65.1143 71.4969 58.7101C71.497 52.3058 66.287 47.0958 59.883 47.0957ZM59.883 71.9999C52.5548 71.9999 46.5928 66.0379 46.5928 58.7101C46.5933 51.3821 52.5548 45.4202 59.8826 45.4202C67.2111 45.4201 73.1726 51.3822 73.1726 58.7101C73.1726 66.0379 67.2106 71.9999 59.883 71.9999Z" fill="#6A63C3"/>
<path d="M58.332 64.1753C58.332 63.9199 58.3823 63.6671 58.48 63.4312C58.5778 63.1953 58.721 62.9809 58.9015 62.8004C59.0821 62.6198 59.2964 62.4766 59.5323 62.3789C59.7683 62.2811 60.0211 62.2309 60.2764 62.2309C60.5318 62.2309 60.7846 62.2811 61.0205 62.3789C61.2564 62.4766 61.4708 62.6198 61.6513 62.8004C61.8319 62.9809 61.9751 63.1953 62.0728 63.4312C62.1706 63.6671 62.2208 63.9199 62.2208 64.1753C62.2208 64.691 62.016 65.1855 61.6513 65.5502C61.2867 65.9148 60.7921 66.1197 60.2764 66.1197C59.7607 66.1197 59.2662 65.9148 58.9015 65.5502C58.5369 65.1855 58.332 64.691 58.332 64.1753ZM58.5226 52.4991C58.4967 52.2538 58.5227 52.0058 58.5988 51.7712C58.675 51.5365 58.7996 51.3206 58.9646 51.1372C59.1296 50.9539 59.3313 50.8073 59.5566 50.7069C59.782 50.6065 60.0259 50.5547 60.2726 50.5547C60.5192 50.5547 60.7631 50.6065 60.9885 50.7069C61.2138 50.8073 61.4155 50.9539 61.5805 51.1372C61.7455 51.3206 61.8701 51.5365 61.9463 51.7712C62.0224 52.0058 62.0484 52.2538 62.0225 52.4991L61.342 59.3181C61.3143 59.5825 61.1897 59.8273 60.9922 60.0052C60.7948 60.1831 60.5384 60.2815 60.2726 60.2815C60.0067 60.2815 59.7503 60.1831 59.5529 60.0052C59.3554 59.8273 59.2308 59.5825 59.2031 59.3181L58.5226 52.4991Z" fill="#6A63C3"/>
</g>
</svg>
