<svg width="74" height="72" viewBox="0 0 74 72" fill="none" xmlns="http://www.w3.org/2000/svg">
<path fill-rule="evenodd" clip-rule="evenodd" d="M24.0438 6.14684H15.4943C15.0316 6.14684 14.6562 5.77157 14.6562 5.30904C14.6565 4.84651 15.0316 4.47124 15.4941 4.47124L24.0438 4.47119C24.5065 4.47119 24.8816 4.84651 24.8816 5.30904C24.8816 5.77157 24.5063 6.14684 24.0438 6.14684Z" fill="#F2B369"/>
<path fill-rule="evenodd" clip-rule="evenodd" d="M49.7102 6.14684H41.162C40.6993 6.14684 40.3237 5.77157 40.3237 5.30904C40.3242 4.84651 40.699 4.47124 41.1615 4.47124L49.7102 4.47119C50.1723 4.47119 50.5475 4.84651 50.5475 5.30904C50.548 5.77157 50.1722 6.14684 49.7102 6.14684Z" fill="#F2B369"/>
<path fill-rule="evenodd" clip-rule="evenodd" d="M64.3662 47.9264C63.9034 47.9264 63.528 47.5527 63.528 47.0887L63.5284 9.27407C63.5284 7.55042 62.1243 6.14684 60.3993 6.14684H53.9951C53.5331 6.14684 53.1572 5.77157 53.1572 5.30904C53.1573 4.84651 53.5326 4.47124 53.995 4.47124L60.3998 4.47119C63.048 4.47119 65.2036 6.62536 65.2036 9.27408L65.204 47.0885C65.204 47.5526 64.8283 47.9265 64.3662 47.9264Z" fill="#F2B369"/>
<path fill-rule="evenodd" clip-rule="evenodd" d="M36.8765 6.14684H28.3283C27.8642 6.14684 27.4902 5.77157 27.4902 5.30904C27.4905 4.84651 27.864 4.47124 28.3279 4.47124L36.8765 4.47119C37.3406 4.47119 37.7141 4.84651 37.7141 5.30904C37.7143 5.77157 37.3402 6.14684 36.8765 6.14684Z" fill="#F2B369"/>
<path fill-rule="evenodd" clip-rule="evenodd" d="M48.0121 63.3239H4.80453C2.15563 63.3239 0 61.1684 0 58.5197L0.000282222 9.27407C0.000282222 6.62531 2.15553 4.47124 4.8042 4.47124L11.2091 4.47119C11.6712 4.47119 12.0463 4.84651 12.0463 5.30904C12.0463 5.77157 11.671 6.14684 11.2085 6.14684H4.80452C3.07918 6.14684 1.6756 7.55046 1.6756 9.27407L1.67588 58.5195C1.67588 60.2447 3.07918 61.6483 4.8042 61.6483L48.0122 61.6482C48.4749 61.6482 48.85 62.0235 48.85 62.4861C48.85 62.9485 48.4747 63.324 48.0121 63.3239Z" fill="#F2B369"/>
<path fill-rule="evenodd" clip-rule="evenodd" d="M13.3508 1.67561C12.6322 1.67561 12.0457 2.26178 12.0457 2.98182V7.63327C12.0457 8.35325 12.6319 8.93948 13.3504 8.93948C14.0708 8.93948 14.6566 8.3533 14.6566 7.63477V2.98177C14.6566 2.26174 14.0704 1.67561 13.3508 1.67561ZM13.3508 10.6151C11.7073 10.6151 10.3701 9.2769 10.3701 7.63332V2.98177C10.3701 1.33667 11.7068 0 13.3504 0C14.9943 0 16.3322 1.33672 16.3322 2.98182V7.63472C16.3322 9.27836 14.9955 10.6151 13.3508 10.6151Z" fill="#F2B369"/>
<path fill-rule="evenodd" clip-rule="evenodd" d="M26.1849 1.67561C25.4649 1.67561 24.8797 2.26178 24.8797 2.98182V7.63327C24.8797 8.35325 25.4644 8.93948 26.1844 8.93948C26.9029 8.93948 27.4891 8.3533 27.4905 7.63332L27.4907 2.98177C27.4907 2.26174 26.9044 1.67561 26.1849 1.67561ZM26.1849 10.6151C24.5413 10.6151 23.2041 9.2769 23.2041 7.63332V2.98177C23.2041 1.33667 24.5408 0 26.1844 0C27.8284 0 29.1661 1.33672 29.1661 2.98182L29.1663 7.63472C29.1636 9.27836 27.8265 10.6151 26.1849 10.6151Z" fill="#F2B369"/>
<path fill-rule="evenodd" clip-rule="evenodd" d="M39.0194 1.67561C38.2994 1.67561 37.7132 2.26178 37.7132 2.98182L37.7136 7.63327C37.7136 8.35325 38.2994 8.93948 39.0193 8.93948C39.7394 8.93948 40.324 8.3533 40.324 7.63477L40.3245 2.98177C40.3245 2.26174 39.7393 1.67561 39.0194 1.67561ZM39.0194 10.6151C37.3759 10.6151 36.0376 9.2769 36.0376 7.63332L36.038 2.98177C36.038 1.33667 37.3758 0 39.0193 0C40.6636 0 41.9996 1.33672 41.9996 2.98182L42.0001 7.63472C42.0001 9.27836 40.663 10.6151 39.0194 10.6151Z" fill="#F2B369"/>
<path fill-rule="evenodd" clip-rule="evenodd" d="M51.8499 1.67561C51.1312 1.67561 50.5447 2.26178 50.5447 2.98182V7.63327C50.5447 8.35325 51.131 8.93948 51.8495 8.93948C52.5699 8.93948 53.1556 8.3533 53.1556 7.63477L53.1557 2.98177C53.1557 2.26174 52.5695 1.67561 51.8499 1.67561ZM51.8499 10.6151C50.2064 10.6151 48.8691 9.2769 48.8691 7.63332V2.98177C48.8691 1.33667 50.2059 0 51.8495 0C53.4948 0 54.8313 1.33672 54.8313 2.98182V7.63472C54.8313 9.27836 53.4946 10.6151 51.8499 10.6151Z" fill="#F2B369"/>
<path fill-rule="evenodd" clip-rule="evenodd" d="M64.3671 16.3619H0.838084C0.375271 16.3619 0 15.9867 0 15.5241C0.000282088 15.0616 0.375271 14.6863 0.837754 14.6863L64.367 14.6863C64.8297 14.6863 65.2045 15.0616 65.2045 15.5241C65.2048 15.9866 64.8293 16.3619 64.3671 16.3619Z" fill="#F2B369"/>
<path fill-rule="evenodd" clip-rule="evenodd" d="M38.9807 23.064C37.6029 23.064 36.4812 24.1841 36.4812 25.5615C36.4817 26.9374 37.6027 28.0589 38.9801 28.0589C40.3566 28.0588 41.4775 26.9374 41.4775 25.5615C41.4777 24.184 40.3561 23.064 38.9807 23.064ZM38.9807 29.7344C36.6793 29.7344 34.8071 27.8625 34.8071 25.5615C34.8075 23.2603 36.679 21.3884 38.9801 21.3884C41.2814 21.3884 43.1531 23.2604 43.1531 25.5615C43.1533 27.8625 41.2811 29.7344 38.9807 29.7344Z" fill="#F2B369"/>
<path fill-rule="evenodd" clip-rule="evenodd" d="M25.5618 23.064C24.1839 23.064 23.0623 24.1841 23.0623 25.5615C23.0628 26.9374 24.1838 28.0589 25.5612 28.0589C26.9376 28.0588 28.0586 26.9374 28.0586 25.5615C28.0588 24.184 26.9371 23.064 25.5618 23.064ZM25.5618 29.7344C23.2604 29.7344 21.3882 27.8625 21.3882 25.5615C21.3885 23.2603 23.26 21.3884 25.5612 21.3884C27.8624 21.3884 29.7342 23.2604 29.7342 25.5615C29.7344 27.8625 27.8622 29.7344 25.5618 29.7344Z" fill="#F2B369"/>
<path fill-rule="evenodd" clip-rule="evenodd" d="M51.7342 23.064C50.357 23.064 49.2352 24.1841 49.2352 25.5615C49.2352 26.9374 50.3567 28.0589 51.7341 28.0589C53.11 28.0588 54.2315 26.9374 54.2315 25.5615C54.2318 24.184 53.11 23.064 51.7342 23.064ZM51.7342 29.7344C49.4315 29.7344 47.5596 27.8625 47.5596 25.5615C47.5596 23.2603 49.4315 21.3884 51.7341 21.3884C54.0355 21.3884 55.9071 23.2604 55.9071 25.5615C55.9074 27.8625 54.0351 29.7344 51.7342 29.7344Z" fill="#F2B369"/>
<path fill-rule="evenodd" clip-rule="evenodd" d="M13.468 36.5069C12.0915 36.5069 10.97 37.6284 10.97 39.0058C10.9703 40.3817 12.0914 41.5032 13.4674 41.5032C14.8451 41.5032 15.9663 40.3818 15.9663 39.0058C15.9663 37.6284 14.8449 36.5069 13.468 36.5069ZM13.468 43.1788C11.1666 43.1788 9.29443 41.3068 9.29443 39.0058C9.29467 36.7047 11.1664 34.8328 13.4674 34.8328C15.7687 34.8328 17.6403 36.7048 17.6403 39.0058C17.6406 41.3068 15.7684 43.1788 13.468 43.1788Z" fill="#F2B369"/>
<path fill-rule="evenodd" clip-rule="evenodd" d="M26.2234 36.5069C24.847 36.5069 23.7254 37.6284 23.7254 39.0058C23.7257 40.3817 24.8469 41.5032 26.2229 41.5032C27.6006 41.5032 28.7217 40.3818 28.7217 39.0058C28.7218 37.6284 27.6003 36.5069 26.2234 36.5069ZM26.2234 43.1788C23.9221 43.1788 22.0498 41.3068 22.0498 39.0058C22.0501 36.7047 23.9218 34.8328 26.2229 34.8328C28.5242 34.8328 30.3972 36.7048 30.3972 39.0058C30.3974 41.3068 28.5239 43.1788 26.2234 43.1788Z" fill="#F2B369"/>
<path fill-rule="evenodd" clip-rule="evenodd" d="M38.9807 36.5069C37.6029 36.5069 36.4812 37.6284 36.4812 39.0058C36.4817 40.3817 37.6027 41.5032 38.9801 41.5032C40.3566 41.5032 41.4775 40.3818 41.4775 39.0058C41.4777 37.6284 40.3561 36.5069 38.9807 36.5069ZM38.9807 43.1788C36.6793 43.1788 34.8071 41.3068 34.8071 39.0058C34.8075 36.7047 36.679 34.8328 38.9801 34.8328C41.2814 34.8328 43.1531 36.7048 43.1531 39.0058C43.1533 41.3068 41.2811 43.1788 38.9807 43.1788Z" fill="#F2B369"/>
<path fill-rule="evenodd" clip-rule="evenodd" d="M51.7342 36.5069C50.357 36.5069 49.2352 37.6284 49.2352 39.0058C49.2352 40.3817 50.3567 41.5032 51.7341 41.5032C53.11 41.5032 54.2315 40.3818 54.2315 39.0058C54.2318 37.6284 53.11 36.5069 51.7342 36.5069ZM51.7342 43.1788C49.4315 43.1788 47.5596 41.3068 47.5596 39.0058C47.5596 36.7047 49.4315 34.8328 51.7341 34.8328C54.0355 34.8328 55.9071 36.7048 55.9071 39.0058C55.9074 41.3068 54.0351 43.1788 51.7342 43.1788Z" fill="#F2B369"/>
<path fill-rule="evenodd" clip-rule="evenodd" d="M13.468 49.2629C12.0915 49.2629 10.97 50.3844 10.97 51.7619C10.9703 53.1378 12.0914 54.2592 13.4674 54.2592C14.8451 54.2592 15.9663 53.1378 15.9663 51.7619C15.9663 50.3844 14.8449 49.263 13.468 49.2629ZM13.468 55.9348C11.1666 55.9348 9.29443 54.0629 9.29443 51.7619C9.29467 49.4608 11.1664 47.5889 13.4674 47.5889C15.7687 47.5888 17.6403 49.4608 17.6403 51.7619C17.6406 54.0628 15.7684 55.9348 13.468 55.9348Z" fill="#F2B369"/>
<path fill-rule="evenodd" clip-rule="evenodd" d="M26.2234 49.2629C24.847 49.2629 23.7254 50.3844 23.7254 51.7619C23.7257 53.1378 24.8469 54.2592 26.2229 54.2592C27.6006 54.2592 28.7217 53.1378 28.7217 51.7619C28.7218 50.3844 27.6003 49.263 26.2234 49.2629ZM26.2234 55.9348C23.9221 55.9348 22.0498 54.0629 22.0498 51.7619C22.0501 49.4608 23.9218 47.5889 26.2229 47.5889C28.5242 47.5888 30.3972 49.4608 30.3972 51.7619C30.3974 54.0628 28.5239 55.9348 26.2234 55.9348Z" fill="#F2B369"/>
<path fill-rule="evenodd" clip-rule="evenodd" d="M38.9807 49.2629C37.6029 49.2629 36.4812 50.3844 36.4812 51.7619C36.4817 53.1378 37.6027 54.2592 38.9801 54.2592C40.3566 54.2592 41.4775 53.1378 41.4775 51.7619C41.4777 50.3844 40.3561 49.263 38.9807 49.2629ZM38.9807 55.9348C36.6793 55.9348 34.8071 54.0629 34.8071 51.7619C34.8075 49.4608 36.679 47.5889 38.9801 47.5889C41.2814 47.5888 43.1531 49.4608 43.1531 51.7619C43.1533 54.0628 41.2811 55.9348 38.9807 55.9348Z" fill="#F2B369"/>
<path fill-rule="evenodd" clip-rule="evenodd" d="M59.883 47.0957C53.4783 47.0957 48.2684 52.3058 48.2684 58.7101C48.269 65.1143 53.4784 70.3244 59.8826 70.3244C66.287 70.3244 71.4969 65.1144 71.4969 58.7101C71.497 52.3058 66.287 47.0958 59.883 47.0957ZM59.883 72C52.5548 72 46.5928 66.0379 46.5928 58.7101C46.5933 51.3821 52.5548 45.4202 59.8826 45.4202C67.2111 45.4201 73.1726 51.3822 73.1726 58.7101C73.1727 66.0379 67.2106 72 59.883 72Z" fill="#F2B369"/>
<path d="M55.5654 58.6956L64.9567 58.6956" stroke="#F2B369" stroke-width="3.13043" stroke-linecap="round"/>
</svg>
