<svg width="23" height="20" viewBox="0 0 23 20" fill="none" xmlns="http://www.w3.org/2000/svg">
<path d="M18.9816 5.13234C17.8577 3.38639 16.1651 2.08231 14.1902 1.44076C12.2154 0.799207 10.0795 0.85958 8.14409 1.61166C6.20863 2.36374 4.59241 3.76135 3.56889 5.56801C2.54537 7.37467 2.17739 9.47945 2.52723 11.5262" stroke="#BCC2CE" stroke-width="0.776426" stroke-linecap="round" stroke-linejoin="round"/>
<path d="M1 10.8352L2.58197 12.3027L4.04941 10.7207" stroke="#BCC2CE" stroke-width="0.776426" stroke-linecap="round" stroke-linejoin="round"/>
<path d="M3.89648 15.0354C5.04943 16.7414 6.75203 18.001 8.72073 18.6043C10.6894 19.2077 12.8054 19.1184 14.7163 18.3513C16.6272 17.5842 18.2176 16.1857 19.2227 14.3886C20.2278 12.5915 20.5869 10.5043 20.2402 8.47461" stroke="#BCC2CE" stroke-width="0.776426" stroke-linecap="round" stroke-linejoin="round"/>
<path d="M21.7682 9.16764L20.1862 7.7002L18.7188 9.28216" stroke="#BCC2CE" stroke-width="0.776426" stroke-linecap="round" stroke-linejoin="round"/>
<path d="M15.7928 7.28276V6.39386C15.7928 6.38813 15.7925 6.38253 15.7922 6.37694C15.792 6.37366 15.791 6.37063 15.7906 6.36739C15.7431 5.48072 13.3389 5.07617 11.102 5.07617C8.84274 5.07617 6.41111 5.48854 6.41111 6.39386V8.23103C6.41111 8.55196 6.70664 8.82287 7.28879 9.03984C6.47278 9.22104 5.71151 9.52292 5.6639 10.018C5.66039 10.0336 5.6582 10.0497 5.6582 10.0663V11.9035C5.6582 12.2 5.91328 12.4545 6.41111 12.6621V13.7313C6.41111 14.6367 8.84274 15.049 11.102 15.049C13.3613 15.049 15.7928 14.6367 15.7928 13.7313V11.8942C15.7928 11.8774 15.7906 11.8613 15.787 11.8456C15.7619 11.5857 15.5382 11.358 15.1153 11.1672C16.0798 10.9921 17.1105 10.6656 17.1105 10.0682V8.23103C17.1105 7.83745 16.6671 7.51877 15.7928 7.28276ZM16.67 8.23103C16.67 8.23875 16.6681 8.24735 16.665 8.25647C16.664 8.25938 16.6621 8.26263 16.6607 8.26568C16.6578 8.27217 16.6546 8.27881 16.6501 8.28588C16.6476 8.2898 16.6445 8.29396 16.6415 8.29806C16.6365 8.30485 16.631 8.31182 16.6246 8.31905C16.6207 8.32359 16.6163 8.32821 16.6117 8.33291C16.6045 8.34032 16.5963 8.34795 16.5877 8.35573C16.5822 8.36062 16.5768 8.36548 16.5708 8.37049C16.5606 8.37895 16.549 8.38771 16.5371 8.39653C16.5308 8.40119 16.525 8.40576 16.5182 8.41051C16.5009 8.42258 16.4818 8.43494 16.4612 8.44753C16.4584 8.44924 16.4562 8.45086 16.4534 8.45257C16.4296 8.46686 16.4033 8.48149 16.3752 8.49631C16.3664 8.50092 16.3564 8.50564 16.3472 8.51029C16.3267 8.52065 16.3057 8.53104 16.283 8.54158C16.2705 8.54736 16.257 8.55321 16.2438 8.55904C16.2221 8.56865 16.1997 8.57831 16.1761 8.58801C16.161 8.59422 16.1454 8.60043 16.1295 8.60665C16.105 8.61624 16.0794 8.62587 16.053 8.63549C16.036 8.64172 16.0189 8.64794 16.0011 8.65416C15.9725 8.66415 15.9421 8.67414 15.9112 8.68412C15.8934 8.6899 15.8762 8.69569 15.8576 8.70146C15.8192 8.71336 15.7785 8.7252 15.7369 8.73699C15.7237 8.74073 15.7116 8.74453 15.6981 8.74825C15.643 8.76346 15.5849 8.77852 15.5243 8.79341C15.5047 8.7982 15.4835 8.80286 15.4634 8.8076C15.4293 8.81566 15.3943 8.82365 15.3585 8.83156C15.3611 8.82998 15.3633 8.82825 15.3659 8.82667C15.3951 8.80871 15.4234 8.7904 15.4502 8.77151C15.4508 8.77107 15.4515 8.77067 15.4521 8.77024C15.4795 8.7508 15.5052 8.73074 15.5298 8.71029C15.5366 8.70462 15.5429 8.69879 15.5495 8.69304C15.567 8.67784 15.5837 8.66239 15.5994 8.64664C15.6062 8.63986 15.6129 8.63307 15.6194 8.62619C15.6353 8.60929 15.6501 8.59203 15.664 8.57448C15.6681 8.56928 15.6727 8.56422 15.6766 8.55896C15.6936 8.53622 15.709 8.51295 15.7225 8.48913C15.7254 8.48394 15.7277 8.47853 15.7305 8.47328C15.7405 8.45439 15.7494 8.43519 15.757 8.4156C15.7602 8.4075 15.7629 8.3993 15.7657 8.39109C15.7718 8.37299 15.7767 8.35459 15.7806 8.33591C15.7823 8.32791 15.7843 8.32 15.7857 8.31189C15.7899 8.28546 15.7928 8.25862 15.7928 8.23103V7.74037C16.501 7.94871 16.67 8.16507 16.67 8.23103ZM11.102 5.51664C13.8521 5.51664 15.3523 6.0962 15.3523 6.39386C15.3523 6.39969 15.3503 6.40642 15.3485 6.41305C15.3473 6.41771 15.3457 6.42215 15.3452 6.4234C15.3419 6.43143 15.3387 6.43702 15.3317 6.44677C15.3215 6.46125 15.3099 6.47559 15.305 6.48204C15.2892 6.4991 15.2725 6.51631 15.2449 6.53882C15.2399 6.54327 15.2342 6.54699 15.2286 6.55115L15.2094 6.56563C15.1913 6.57911 15.1704 6.59245 15.1427 6.61037C15.1399 6.61224 15.1374 6.61403 15.1349 6.61586C15.112 6.62958 15.0867 6.64362 15.0598 6.65784C15.0099 6.68332 14.9553 6.70866 14.8986 6.73366C14.8105 6.7715 14.7083 6.80994 14.5896 6.84826C14.5672 6.85569 14.5445 6.86267 14.5216 6.86967C14.4816 6.88191 14.4408 6.89413 14.3974 6.90626C14.3886 6.90869 14.38 6.91105 14.3714 6.91341C14.2657 6.94239 14.1494 6.97082 14.0231 6.99838C14.0186 6.99923 14.0139 6.99985 14.0094 7.00094C13.982 7.00779 13.9535 7.0133 13.9239 7.01915C13.9023 7.0236 13.8799 7.02797 13.8576 7.03237C13.8163 7.04062 13.7747 7.04879 13.7321 7.05665C13.6607 7.06973 13.5875 7.08262 13.5103 7.095C12.7938 7.21028 11.961 7.27108 11.102 7.27108C10.9486 7.27108 10.797 7.26921 10.6438 7.26348C10.5124 7.26161 10.3848 7.25617 10.2592 7.25057L10.0548 7.23939C9.95453 7.2338 9.85445 7.22649 9.75867 7.21903L9.66973 7.2118C9.63283 7.20868 9.59539 7.20597 9.55883 7.2026C9.54487 7.2009 9.5309 7.19933 9.51707 7.19795L9.48108 7.19394C9.47534 7.19322 9.46846 7.19265 9.46172 7.19236C9.34246 7.18107 9.22385 7.16761 9.10611 7.15299C9.08669 7.15056 9.06711 7.14821 9.04781 7.1457C8.92837 7.13028 8.80987 7.11359 8.69362 7.095C7.3018 6.87161 6.85158 6.5262 6.85158 6.39386C6.85158 6.0962 8.35179 5.51664 11.102 5.51664ZM6.85158 8.23103V6.99808C6.85667 7.00114 6.86276 7.00381 6.86792 7.00685C6.91352 7.03369 6.96173 7.0595 7.01231 7.08429C7.03052 7.09321 7.04959 7.10168 7.06834 7.11035C7.10927 7.12923 7.15114 7.1476 7.19459 7.16528C7.21609 7.17405 7.23767 7.18271 7.25975 7.19119C7.30531 7.20868 7.35202 7.22545 7.39966 7.24175C7.41945 7.24851 7.4387 7.25554 7.45881 7.26212C7.52637 7.2842 7.59525 7.30542 7.66576 7.3253C7.67237 7.32718 7.67922 7.32879 7.68585 7.33064C7.75048 7.34863 7.81599 7.36567 7.88216 7.38192C7.9067 7.38794 7.93134 7.39355 7.95602 7.39934C8.0057 7.411 8.05539 7.42229 8.10543 7.43304C8.13206 7.43876 8.15851 7.44436 8.18517 7.44982C8.23626 7.46031 8.28713 7.47025 8.3381 7.47983C8.36111 7.48416 8.38402 7.48867 8.40694 7.49282C8.47978 7.50601 8.55224 7.51856 8.62365 7.53003C8.74341 7.54926 8.86722 7.56646 8.99275 7.58273C9.01351 7.5854 9.03419 7.58794 9.055 7.59051C9.42555 7.63675 9.81806 7.67016 10.2239 7.68986L10.2377 7.69062C10.2415 7.69079 10.2453 7.69083 10.2492 7.691C10.5288 7.70417 10.8138 7.71155 11.102 7.71155C11.3225 7.71155 11.5415 7.70762 11.7574 7.69988C12.4052 7.67665 13.0258 7.61907 13.5803 7.53003C13.7569 7.50165 13.9394 7.46781 14.1204 7.42842C14.124 7.4278 14.1281 7.42726 14.1311 7.42665C14.1678 7.41876 14.2047 7.41088 14.2325 7.40328C14.2424 7.40111 14.2515 7.39845 14.2613 7.39619C14.3084 7.38505 14.3551 7.37359 14.4016 7.3616C14.4065 7.36029 14.412 7.35913 14.4169 7.35782C14.4257 7.35547 14.4359 7.35251 14.445 7.35007C14.4907 7.33794 14.536 7.32555 14.5808 7.31254C14.5864 7.31092 14.5916 7.30924 14.5972 7.3076C14.6599 7.28917 14.7213 7.26982 14.7815 7.2496C14.8119 7.24031 14.8406 7.23055 14.8614 7.22261L14.8865 7.21415C14.9402 7.19422 14.99 7.17429 15.0399 7.1535C15.0424 7.15242 15.0447 7.15131 15.0472 7.15022C15.0735 7.1391 15.0985 7.12734 15.1239 7.11577C15.1431 7.10698 15.1624 7.09811 15.181 7.08923C15.1998 7.0801 15.2187 7.07105 15.2369 7.06165C15.2489 7.05563 15.2615 7.04977 15.2733 7.04367C15.2955 7.03191 15.3178 7.01915 15.3393 7.00668L15.3512 6.99937C15.3516 6.99908 15.3519 6.99894 15.3523 6.99879V7.4536V8.23103C15.3523 8.25909 15.3325 8.29592 15.2891 8.33863C15.1014 8.52366 14.4728 8.81897 13.109 8.98952C12.6774 9.04444 12.2155 9.08071 11.7359 9.09706C11.5319 9.10451 11.3185 9.10824 11.102 9.10824C10.0849 9.10824 9.13495 9.02709 8.35681 8.87381C8.23164 8.848 8.11392 8.82219 8.00108 8.79438C7.05805 8.56525 6.85158 8.31003 6.85158 8.23103ZM7.7288 9.4006V10.0682C7.7288 10.1024 7.73331 10.1358 7.73998 10.1688C7.74184 10.1781 7.74432 10.1873 7.74672 10.1965C7.75349 10.2225 7.76238 10.2481 7.77335 10.2734C7.77652 10.2807 7.77902 10.2881 7.78253 10.2953C7.79775 10.3267 7.81617 10.3574 7.83791 10.3876C7.84262 10.3941 7.84834 10.4004 7.85336 10.4069C7.87218 10.4312 7.89318 10.4552 7.91634 10.4787C7.92433 10.4869 7.93233 10.495 7.94084 10.5031C7.97032 10.5309 8.00199 10.5584 8.03764 10.5852C8.03892 10.5861 8.03995 10.5871 8.04125 10.5881C8.07851 10.6159 8.12012 10.6429 8.16403 10.6694C8.17572 10.6765 8.18809 10.6835 8.20027 10.6905C8.23669 10.7114 8.27519 10.7319 8.31581 10.7521C8.32753 10.7579 8.33868 10.7638 8.35076 10.7696C8.40284 10.7944 8.45793 10.8186 8.51651 10.8422C8.51884 10.8431 8.52077 10.8441 8.52312 10.8451C8.45766 10.8384 8.39305 10.8309 8.32885 10.8217C8.32427 10.821 8.31925 10.8205 8.31423 10.8201C8.18633 10.8055 8.06202 10.7874 7.94072 10.7675C6.5489 10.5441 6.09868 10.1987 6.09868 10.0663C6.09868 9.93929 6.50388 9.62241 7.7288 9.4006ZM6.09868 11.9035V10.6707C6.10595 10.6751 6.11463 10.6789 6.12205 10.6832C6.16531 10.7084 6.21059 10.7328 6.25826 10.7562C6.27755 10.7657 6.29778 10.7747 6.31773 10.7839C6.35757 10.8022 6.39831 10.8201 6.4405 10.8373C6.46269 10.8463 6.48491 10.8553 6.50768 10.864C6.5527 10.8813 6.59885 10.8978 6.6459 10.9139C6.66597 10.9208 6.68551 10.9279 6.70592 10.9346C6.77361 10.9567 6.84262 10.978 6.91323 10.9979C6.91814 10.9993 6.92323 11.0005 6.92816 11.0018C6.9946 11.0204 7.06207 11.0379 7.13017 11.0546C7.15329 11.0603 7.1765 11.0655 7.19975 11.071C7.25115 11.0831 7.30255 11.0948 7.35433 11.1059C7.37952 11.1113 7.4045 11.1166 7.42972 11.1218C7.48248 11.1326 7.53505 11.1429 7.58764 11.1527C7.60936 11.1568 7.63097 11.1611 7.65262 11.165C7.72575 11.1782 7.7985 11.1908 7.87017 11.2024C8.01269 11.2257 8.1436 11.2441 8.2705 11.2584C8.27179 11.2586 8.27322 11.2587 8.27451 11.2588C8.35237 11.27 8.43008 11.2795 8.5045 11.2864C8.66365 11.3054 8.83213 11.3211 8.99458 11.3318C9.03086 11.336 9.06699 11.3383 9.09437 11.3396C9.1556 11.3457 9.21883 11.3499 9.27403 11.3515C9.35132 11.3569 9.43018 11.3605 9.50932 11.3642L9.52409 11.3649C9.56066 11.3668 9.59722 11.3684 9.63392 11.3698L9.83036 11.3768C9.89058 11.3786 9.95109 11.3803 10.0087 11.3803C10.0093 11.3803 10.0099 11.3803 10.0103 11.3803C10.1226 11.3822 10.2348 11.384 10.349 11.384C10.4633 11.384 10.5755 11.3822 10.6874 11.3803C10.8062 11.3784 10.9232 11.3748 11.0385 11.3711C11.0388 11.3711 11.053 11.3707 11.0533 11.3707C11.1331 11.3679 11.2104 11.3638 11.2848 11.3595C11.3104 11.3581 11.3369 11.3572 11.3622 11.3558C11.5818 11.3679 11.7983 11.3752 12.0125 11.38C12.0761 11.3814 12.1388 11.3819 12.2019 11.3827C12.2744 11.3836 12.3484 11.3859 12.4197 11.3859C12.5153 11.3859 12.6094 11.384 12.7039 11.3826C12.7467 11.382 12.79 11.382 12.8325 11.3811C13.0263 11.3769 13.2165 11.3691 13.4042 11.3589C13.4553 11.3561 13.5059 11.3529 13.5565 11.3497C13.7502 11.3375 13.9414 11.3232 14.1268 11.3046C14.1297 11.3044 14.1326 11.3043 14.1354 11.304C14.248 11.2929 14.3575 11.2801 14.4653 11.2666C14.4889 11.2637 14.5123 11.2608 14.5355 11.2577C14.5567 11.255 14.5785 11.2525 14.5994 11.2497V11.2842V11.9035C14.5994 11.9202 14.5947 11.9378 14.5852 11.9563C14.4426 12.233 13.2316 12.6923 10.96 12.7694C10.9552 12.7694 10.9489 12.7694 10.9467 12.7695C10.7542 12.777 10.553 12.7807 10.349 12.7807C9.98152 12.7807 9.62084 12.7696 9.27385 12.7484C8.23286 12.6846 7.31503 12.5293 6.70691 12.3065C6.22586 12.1309 6.09868 11.9662 6.09868 11.9035ZM15.3523 13.7313C15.3523 14.029 13.8521 14.6086 11.102 14.6086C8.35179 14.6086 6.85158 14.029 6.85158 13.7313V12.8171C6.86034 12.8197 6.86979 12.8221 6.87864 12.8247C6.90341 12.8318 6.92897 12.8387 6.95438 12.8457C6.98869 12.8552 7.02324 12.8645 7.0587 12.8736C7.08594 12.8806 7.11365 12.8874 7.14155 12.8943C7.1772 12.903 7.2133 12.9115 7.24997 12.9199C7.2787 12.9265 7.30757 12.933 7.33693 12.9394C7.37448 12.9475 7.41271 12.9555 7.45124 12.9633C7.48125 12.9694 7.51114 12.9755 7.54172 12.9814C7.58183 12.9892 7.6228 12.9966 7.66388 13.004C7.69392 13.0094 7.72358 13.015 7.7541 13.0202C7.80067 13.0282 7.84827 13.0357 7.89593 13.0432C7.92211 13.0474 7.94774 13.0517 7.97427 13.0558C8.04802 13.0669 8.12292 13.0775 8.19902 13.0876C8.21879 13.0902 8.2392 13.0925 8.25912 13.0951C8.31713 13.1025 8.37536 13.1098 8.4346 13.1166C8.46503 13.1201 8.49606 13.1232 8.52678 13.1265C8.57658 13.1319 8.62641 13.1373 8.67699 13.1422C8.71083 13.1455 8.74509 13.1486 8.77925 13.1517C8.82768 13.1561 8.87618 13.1604 8.92522 13.1644C8.9611 13.1673 8.99718 13.17 9.03337 13.1727C9.08172 13.1763 9.13026 13.1798 9.17915 13.183C9.21604 13.1854 9.25299 13.1878 9.29016 13.19C9.33983 13.1929 9.38978 13.1956 9.43993 13.1981C9.47649 13.2 9.51302 13.2018 9.54983 13.2034C9.60236 13.2058 9.65522 13.2077 9.7082 13.2096C9.74336 13.2108 9.77835 13.2122 9.81369 13.2132C9.87198 13.2149 9.93066 13.2161 9.98939 13.2172C10.0197 13.2178 10.0497 13.2187 10.0801 13.2191C10.1693 13.2204 10.2589 13.2212 10.349 13.2212C10.5586 13.2212 10.7655 13.2173 10.9552 13.2099C10.9565 13.2099 10.9603 13.2098 10.9641 13.2098C11.0095 13.2115 11.0548 13.2117 11.102 13.2117C11.985 13.2117 12.842 13.1489 13.5801 13.0302C13.6517 13.0187 13.7244 13.0061 13.7974 12.9929C13.8196 12.9889 13.8417 12.9845 13.864 12.9804C13.916 12.9706 13.968 12.9604 14.0202 12.9497C14.0459 12.9445 14.0713 12.9391 14.0969 12.9336C14.1482 12.9226 14.1993 12.911 14.2503 12.899C14.2739 12.8935 14.2974 12.8881 14.3208 12.8824C14.389 12.8657 14.4565 12.8482 14.5231 12.8296C14.5279 12.8282 14.5328 12.8271 14.5375 12.8257C14.6083 12.8058 14.6774 12.7845 14.7452 12.7624C14.7653 12.7558 14.7845 12.7488 14.8043 12.742C14.8517 12.7258 14.8983 12.7091 14.9437 12.6917C14.9662 12.6831 14.9881 12.6743 15.0099 12.6654C15.0526 12.648 15.0938 12.6299 15.134 12.6114C15.1536 12.6024 15.1735 12.5936 15.1924 12.5843C15.241 12.5604 15.2872 12.5356 15.3312 12.5098C15.3379 12.5059 15.3458 12.5025 15.3523 12.4985V13.7313ZM15.3523 11.8942C15.3523 11.9026 15.3504 11.9118 15.3467 11.9218C15.3456 11.9247 15.3432 11.9281 15.3418 11.9311C15.3384 11.9385 15.335 11.9459 15.3295 11.9541C15.3269 11.958 15.3227 11.9624 15.3196 11.9664C15.3135 11.9743 15.3078 11.9821 15.2999 11.9905C15.2956 11.9951 15.2897 12 15.2849 12.0047C15.2762 12.0132 15.2678 12.0216 15.2572 12.0305C15.251 12.0357 15.2432 12.0412 15.2364 12.0465C15.225 12.0554 15.2139 12.0643 15.2007 12.0735C15.1923 12.0794 15.1822 12.0855 15.1731 12.0915C15.1591 12.1006 15.1455 12.1097 15.1297 12.1191C15.1187 12.1256 15.106 12.1323 15.0941 12.139C15.0778 12.1481 15.0617 12.1572 15.0436 12.1666C15.0296 12.1738 15.0138 12.1811 14.9988 12.1884C14.9802 12.1974 14.9619 12.2064 14.9416 12.2156C14.9384 12.217 14.9346 12.2185 14.9313 12.22C14.9331 12.2176 14.9342 12.2151 14.9359 12.2127C14.9453 12.1994 14.9533 12.1857 14.9614 12.172C14.9678 12.1613 14.9748 12.1508 14.9805 12.1399C14.9881 12.1251 14.9941 12.1098 15.0003 12.0947C15.0045 12.0845 15.0095 12.0745 15.013 12.0641C15.0188 12.0468 15.0227 12.029 15.0266 12.0113C15.0286 12.0026 15.0315 11.9941 15.033 11.9853C15.0374 11.9585 15.0399 11.9313 15.0399 11.9035V11.6189C15.2803 11.743 15.3523 11.8474 15.3523 11.8942ZM16.67 10.0682C16.67 10.2027 16.2093 10.5528 14.7845 10.7769C14.5707 10.8113 14.3402 10.841 14.0992 10.865C14.096 10.8651 14.093 10.8654 14.0898 10.8657C13.9096 10.8839 13.7235 10.8977 13.5353 10.9098C13.4844 10.913 13.4335 10.9163 13.382 10.919C13.1998 10.929 13.0147 10.9366 12.8258 10.9407C12.7842 10.9416 12.7416 10.9415 12.6997 10.9422C12.5369 10.9445 12.3717 10.9444 12.2046 10.9423C12.1453 10.9416 12.0863 10.941 12.0261 10.9397C11.8134 10.935 11.5985 10.9278 11.3796 10.9156C11.377 10.9155 11.3711 10.9155 11.3658 10.9155C10.6607 10.8739 10.0019 10.7865 9.46072 10.6631C9.45513 10.6618 9.44896 10.6606 9.44265 10.6598C8.72828 10.4994 8.39429 10.3175 8.25532 10.1937C8.19214 10.1374 8.16927 10.0931 8.16927 10.0682V9.28446C8.20225 9.29149 8.23565 9.29851 8.26978 9.30554C9.07731 9.46469 10.0568 9.54872 11.102 9.54872C11.2126 9.54872 11.3224 9.54774 11.4307 9.54584C11.4467 9.54555 11.4621 9.54492 11.4781 9.54458C11.5678 9.54276 11.6571 9.54067 11.7441 9.53753C11.9622 9.54499 12.1893 9.54872 12.4197 9.54872C12.8053 9.54872 13.1811 9.53724 13.5364 9.51445C14.026 9.48405 14.4841 9.43444 14.8979 9.36719C14.969 9.35578 15.0411 9.3433 15.1136 9.33018C15.1376 9.32584 15.1617 9.32111 15.1858 9.31656C15.2357 9.30717 15.2855 9.29745 15.3355 9.28719C15.3628 9.28159 15.3899 9.27586 15.4171 9.27C15.4663 9.25942 15.5152 9.24834 15.564 9.23688C15.5894 9.23092 15.6149 9.22514 15.6402 9.21892C15.7045 9.20313 15.7681 9.18653 15.8309 9.1691C15.8393 9.16676 15.848 9.16468 15.8564 9.16231C15.9264 9.14257 15.9947 9.12152 16.0618 9.09961C16.0831 9.09266 16.1035 9.08524 16.1244 9.07807C16.1707 9.0622 16.2161 9.04591 16.2604 9.02892C16.2836 9.02004 16.3061 9.01098 16.3287 9.00179C16.3704 8.98475 16.4107 8.96708 16.4501 8.94894C16.4705 8.93959 16.4911 8.93041 16.5108 8.92076C16.5579 8.89762 16.6026 8.8735 16.6454 8.84859C16.6532 8.84403 16.6623 8.84 16.67 8.83539V10.0682Z" fill="#BCC2CE"/>
</svg>
