<svg width="30" height="29" viewBox="0 0 30 29" fill="none" xmlns="http://www.w3.org/2000/svg">
<path d="M9.85826 19.6516V19.0402C10.5926 18.3814 11.0877 17.4843 11.2621 16.4964C11.5706 16.4468 11.852 16.2853 12.0556 16.0409C12.2592 15.7966 12.3718 15.4854 12.3732 15.1631C12.3724 14.8058 12.2347 14.4633 11.9901 14.2104C11.9318 14.1519 11.869 14.0986 11.8022 14.0508V13.5131C11.8151 12.3556 11.4269 11.2314 10.7077 10.3431C10.3793 9.92818 9.96652 9.59281 9.49863 9.36071C9.03073 9.12862 8.51912 9.00547 8 9C5.90381 9 4.19307 11.0257 4.19307 13.5131V14.0532C4.03707 14.1607 3.90543 14.3017 3.80716 14.4666C3.70889 14.6315 3.64631 14.8163 3.62372 15.0085C3.60112 15.2006 3.61904 15.3955 3.67624 15.5799C3.73344 15.7642 3.82858 15.9336 3.95513 16.0765L3.99082 16.1158C4.18749 16.3202 4.44284 16.4537 4.7189 16.4964C4.89432 17.4839 5.38923 18.3807 6.12271 19.0402V19.6516C4.97349 19.8456 1 20.7148 1 23.1825V25.822L1.16179 25.9325C1.2879 26.016 4.27634 28 8 28C11.7237 28 14.7121 26.016 14.8382 25.9325L15 25.822V23.1825C15 20.7148 11.0265 19.8456 9.85826 19.6516ZM14.2862 25.4243C13.6271 25.8171 11.0408 27.2634 8 27.2634C4.95921 27.2634 2.37288 25.8171 1.7138 25.4169V23.1825C1.7138 21.3704 5.19952 20.5061 6.54385 20.3268L6.85316 20.2851V18.6694L6.7104 18.5638C5.97256 17.951 5.49887 17.0624 5.39225 16.0912L5.34704 15.7745H4.93066C4.85378 15.7745 4.77765 15.7589 4.70662 15.7286C4.63558 15.6983 4.57103 15.6538 4.51666 15.5977L4.5 15.5805C4.43389 15.5092 4.38557 15.4223 4.3592 15.3275C4.33283 15.2326 4.32921 15.1325 4.34864 15.0359C4.36807 14.9392 4.40998 14.8489 4.47075 14.7727C4.53152 14.6965 4.60933 14.6366 4.69749 14.5983L4.91163 14.5026V13.5131C4.91163 11.4309 6.2964 9.73662 8.00476 9.73662C8.41908 9.74245 8.82715 9.84174 9.20036 10.0275C9.57357 10.2133 9.90287 10.4811 10.1652 10.8121C10.7764 11.5693 11.104 12.5277 11.0884 13.5131V14.5198L11.3025 14.6155C11.3702 14.6459 11.4322 14.6883 11.4857 14.7408C11.5944 14.8528 11.6566 15.0041 11.6592 15.1626C11.6619 15.3211 11.6048 15.4744 11.5 15.5903C11.4449 15.6514 11.3783 15.7001 11.3042 15.7335C11.2301 15.7668 11.1502 15.7841 11.0693 15.7843H10.653L10.6078 16.1011C10.5009 17.0722 10.0272 17.9606 9.2896 18.5737L9.14446 18.6842V20.2949L9.45615 20.3367C10.8005 20.5159 14.2862 21.3777 14.2862 23.1923V25.4243Z" fill="#BCC2CE" stroke="#BCC2CE" stroke-width="0.2"/>
<path d="M12.4132 7.93306C12.6205 8.1321 12.8897 8.26206 13.1808 8.30362C13.3646 9.26547 13.8866 10.139 14.6608 10.7804V11.3685C13.8747 11.495 13.1011 11.6838 12.3479 11.9327L12.5988 12.6069C13.4059 12.343 14.2374 12.1525 15.0822 12.0379L15.4134 11.9973V10.429L15.2603 10.3238C14.4826 9.72691 13.9833 8.86186 13.8706 7.91633L13.828 7.60553H13.384C13.224 7.60513 13.0704 7.54606 12.955 7.44057L12.9349 7.41906C12.8256 7.30841 12.7646 7.16223 12.7644 7.01025C12.7646 6.89495 12.8004 6.78227 12.8673 6.6862C12.9342 6.59014 13.0293 6.51494 13.1406 6.46995L13.3664 6.37671V5.39413C13.3664 3.3668 14.8314 1.71721 16.6225 1.71721C17.0605 1.7237 17.4917 1.82169 17.8857 2.00426C18.2797 2.18684 18.6268 2.44956 18.9027 2.77391C19.5486 3.5105 19.8949 4.4439 19.8785 5.40369V6.38388L20.1043 6.47951C20.1766 6.50729 20.2424 6.54876 20.2974 6.60143C20.3821 6.68527 20.439 6.79101 20.4611 6.90546C20.4832 7.01992 20.4694 7.13804 20.4216 7.24509C20.3737 7.35215 20.2938 7.44341 20.1919 7.50751C20.09 7.5716 19.9705 7.60569 19.8484 7.60553H19.4169L19.3718 7.91393C19.2597 8.86033 18.7603 9.72634 17.9821 10.3238L17.8291 10.4314V11.9973L18.1577 12.0379C19.5725 12.2124 23.2474 13.0492 23.2474 14.8183V15H24V14.8183C24 12.4133 19.8133 11.5693 18.5816 11.3733V10.7852C19.3558 10.1438 19.8778 9.27025 20.0616 8.3084C20.3639 8.26026 20.6414 8.11921 20.8518 7.90676C21.0897 7.66322 21.2223 7.34301 21.2231 7.01025C21.223 6.79696 21.1681 6.58694 21.0631 6.39856C20.9582 6.21018 20.8064 6.04918 20.621 5.92965V5.39413C20.6345 4.26602 20.2243 3.17049 19.4646 2.30533C19.1195 1.90331 18.6862 1.57814 18.1952 1.35264C17.7043 1.12714 17.1674 1.00678 16.6225 1C14.4125 1 12.6088 2.97234 12.6088 5.39413V5.92965C12.4448 6.03432 12.3063 6.17149 12.203 6.33181C12.0997 6.49213 12.0338 6.67182 12.01 6.8586C11.9862 7.04539 12.005 7.23487 12.065 7.41411C12.1251 7.59335 12.225 7.75813 12.358 7.8972C12.375 7.91093 12.3935 7.92295 12.4132 7.93306Z" fill="#BCC2CE" stroke="#BCC2CE" stroke-width="0.2"/>
<path d="M12 17.7145C13.819 18.5407 15.7868 18.9891 17.7842 19.0326V18.2417C15.8964 18.2015 14.0363 17.7791 12.3164 17L12 17.7145Z" fill="#BCC2CE"/>
<path d="M29.9985 22.7268V20.1827L28.6197 19.7793C28.5289 19.5074 28.4169 19.2429 28.2849 18.9884L28.9756 17.7177L27.1855 15.9276L25.9227 16.6183C25.6645 16.4845 25.3955 16.3725 25.1186 16.2835L24.7258 14.8994H22.1817L21.7783 16.2782C21.506 16.368 21.2414 16.4799 20.9874 16.613L19.7167 15.9223L17.9213 17.7177L18.6121 18.9805C18.479 19.2345 18.367 19.499 18.2773 19.7714L16.8984 20.1748V22.7268L18.2773 23.1301C18.3663 23.407 18.4783 23.676 18.6121 23.9342L17.9213 25.197L19.7167 26.9766L20.9795 26.2859C21.234 26.4179 21.4985 26.5298 21.7704 26.6207L22.1817 27.9995H24.7258L25.1292 26.6207C25.4056 26.5305 25.6745 26.4185 25.9332 26.2859L27.1961 26.9766L28.9862 25.1865L28.2954 23.9237C28.4281 23.6649 28.5401 23.396 28.6302 23.1196L29.9985 22.7268ZM27.9975 25.0547L27.0432 26.009L25.9201 25.3948L25.7302 25.5029C25.4036 25.6876 25.0557 25.8319 24.6942 25.9326L24.4832 25.9906L24.1221 27.2086H22.7749L22.4137 25.98L22.2028 25.922C21.8413 25.8214 21.4933 25.6771 21.1667 25.4923L20.9769 25.3842L19.8538 25.9985L18.8994 25.0441L19.5137 23.921L19.4056 23.7312C19.2208 23.4046 19.0765 23.0567 18.9759 22.6951L18.9179 22.4842L17.6893 22.123V20.7759L18.9258 20.4147L18.9838 20.2038C19.0844 19.8422 19.2287 19.4943 19.4135 19.1677L19.5216 18.9779L18.8994 17.8548L19.8538 16.9004L20.9769 17.5147L21.1667 17.4066C21.4933 17.2218 21.8413 17.0775 22.2028 16.9769L22.4137 16.9189L22.7749 15.6903H24.1221L24.4832 16.9268L24.6942 16.9848C25.0557 17.0854 25.4036 17.2297 25.7302 17.4145L25.9201 17.5226L27.0432 16.9083L27.9975 17.8627L27.3832 18.9858L27.4913 19.1756C27.6761 19.5022 27.8204 19.8502 27.9211 20.2117L27.9791 20.4226L29.2076 20.7759V22.123L27.9791 22.4842L27.9211 22.6951C27.8204 23.0567 27.6761 23.4046 27.4913 23.7312L27.3832 23.921L27.9975 25.0547Z" fill="#BCC2CE"/>
<path d="M23.449 17.5313C22.6733 17.5302 21.9147 17.7593 21.2693 18.1896C20.6239 18.6198 20.1206 19.2319 19.8231 19.9483C19.5257 20.6646 19.4474 21.4532 19.5983 22.2141C19.7492 22.9749 20.1224 23.674 20.6707 24.2226C21.219 24.7713 21.9178 25.145 22.6786 25.2964C23.4394 25.4478 24.2279 25.3701 24.9445 25.0731C25.6611 24.7762 26.2735 24.2733 26.7042 23.6281C27.1349 22.983 27.3645 22.2246 27.364 21.4489C27.3626 20.4107 26.9497 19.4155 26.2159 18.6812C25.4821 17.9469 24.4871 17.5333 23.449 17.5313ZM23.449 24.5782C22.8298 24.5793 22.2243 24.3966 21.709 24.0534C21.1937 23.7102 20.7917 23.2218 20.5541 22.6501C20.3164 22.0784 20.2537 21.449 20.3738 20.8416C20.494 20.2342 20.7916 19.6761 21.229 19.238C21.6665 18.7998 22.2241 18.5012 22.8313 18.38C23.4384 18.2589 24.0679 18.3205 24.64 18.5572C25.2122 18.7939 25.7012 19.195 26.0453 19.7098C26.3894 20.2245 26.5731 20.8297 26.5731 21.4489C26.571 22.2768 26.2412 23.0702 25.6557 23.6556C25.0703 24.2411 24.2769 24.5709 23.449 24.573V24.5782Z" fill="#BCC2CE"/>
</svg>
