<svg width="25" height="25" viewBox="0 0 25 25" fill="none" xmlns="http://www.w3.org/2000/svg">
<path d="M15.8693 0.46264C13.2157 -0.280108 10.391 -0.125188 7.83452 0.903309C5.27805 1.9318 3.13308 3.77623 1.73318 6.14975C0.333284 8.52328 -0.243082 11.2929 0.0937181 14.0278C0.430518 16.7627 1.66161 19.3097 3.59553 21.2727C5.52946 23.2357 8.05782 24.5046 10.7874 24.8821C13.5171 25.2597 16.2949 24.7246 18.689 23.3603C21.0832 21.9959 22.9594 19.8787 24.0259 17.3378C25.0923 14.797 25.2894 11.9749 24.5862 9.31054L23.3776 9.62949C24.0104 12.0274 23.8331 14.5673 22.8733 16.854C21.9134 19.1408 20.2249 21.0463 18.0701 22.2743C15.9154 23.5022 13.4153 23.9837 10.9587 23.6439C8.50204 23.3041 6.22651 22.1621 4.48598 20.3954C2.74545 18.6288 1.63747 16.3365 1.33435 13.875C1.03123 11.4136 1.54996 8.92095 2.80986 6.78478C4.06977 4.64861 6.00024 2.98862 8.30106 2.06298C10.6019 1.13733 13.1441 0.997903 15.5323 1.66638L15.8693 0.46264Z" fill="#BCC2CE"/>
<path d="M15.8157 7.89334C15.8157 7.62485 15.5981 7.40723 15.3296 7.40723H8.82009C8.55161 7.40723 8.33398 7.62485 8.33398 7.89334C8.33398 8.1618 8.55161 8.37945 8.82009 8.37945H10.9124C11.3655 8.37973 11.7449 8.46766 12.0658 8.61477C12.5458 8.83596 12.9036 9.19357 13.1513 9.63872C13.3224 9.94685 13.4327 10.2981 13.4865 10.6618H8.82009C8.55161 10.6618 8.33398 10.8795 8.33398 11.148C8.33398 11.4164 8.55161 11.6341 8.82009 11.6341H13.4894C13.4097 12.1727 13.1984 12.6812 12.8664 13.0717C12.6508 13.326 12.3865 13.5339 12.0658 13.6814C11.7449 13.8285 11.3655 13.9165 10.9124 13.9168L9.51747 13.917C9.31196 13.917 9.12879 14.0461 9.05971 14.2397C8.99064 14.4332 9.05066 14.6492 9.20972 14.7793L14.3244 18.964C14.5321 19.134 14.8384 19.1034 15.0084 18.8956C15.1784 18.6878 15.1478 18.3815 14.94 18.2115L10.8791 14.889L10.9125 14.889C11.4928 14.8893 12.0175 14.7738 12.4716 14.5649C13.1541 14.2521 13.6681 13.7324 14.0017 13.1287C14.2572 12.6668 14.4113 12.1558 14.4703 11.6341H15.3296C15.5981 11.6341 15.8157 11.4164 15.8157 11.148C15.8157 10.8795 15.5981 10.6618 15.3296 10.6618H14.4676C14.3827 9.91253 14.1041 9.18369 13.6084 8.59635C13.5447 8.52096 13.4754 8.44953 13.4045 8.37945H15.3296C15.5981 8.37945 15.8157 8.1618 15.8157 7.89334Z" fill="#BCC2CE" stroke="#BCC2CE" stroke-width="0.3"/>
<path d="M17.2644 7.07986C17.0836 7.26066 17.0836 7.55379 17.2644 7.73459C17.4452 7.91539 17.7384 7.91539 17.9192 7.73459L17.2644 7.07986ZM23.7961 1.66585C23.7961 1.41017 23.5889 1.20289 23.3332 1.20289L19.1665 1.20289C18.9108 1.20289 18.7035 1.41017 18.7035 1.66585C18.7035 1.92154 18.9108 2.12882 19.1665 2.12882H22.8702V5.83252C22.8702 6.08821 23.0775 6.29548 23.3332 6.29548C23.5889 6.29548 23.7961 6.08821 23.7961 5.83252L23.7961 1.66585ZM17.9192 7.73459L23.6605 1.99322L23.0058 1.33849L17.2644 7.07986L17.9192 7.73459Z" fill="#BCC2CE"/>
</svg>
