<svg width="30" height="26" viewBox="0 0 30 26" fill="none" xmlns="http://www.w3.org/2000/svg">
<path fill-rule="evenodd" clip-rule="evenodd" d="M6.27743 13.9435C5.83409 13.9051 5.43963 14.2367 5.40125 14.68L5.36115 15.1433C5.01099 15.2113 4.66979 15.3191 4.34407 15.4646L4.04529 15.1092C3.75888 14.7685 3.24526 14.724 2.90456 15.0104L2.17069 15.6273C1.82997 15.9138 1.78551 16.4274 2.07193 16.7681L2.3707 17.1235C2.17144 17.4193 2.0066 17.737 1.87937 18.0702L1.41612 18.0301C0.972775 17.9917 0.578312 18.3233 0.539931 18.7667L0.457172 19.7226C0.41879 20.1659 0.750395 20.5604 1.19374 20.5988L1.65699 20.6389C1.72506 20.9891 1.83285 21.3303 1.9783 21.656L1.6229 21.9547C1.28218 22.2412 1.23772 22.7548 1.52414 23.0955L2.14107 23.8294C2.42748 24.1701 2.9411 24.2145 3.28181 23.9281L3.63721 23.6293C3.93309 23.8286 4.25068 23.9934 4.58394 24.1207L4.54383 24.5839C4.50545 25.0273 4.83705 25.4217 5.28039 25.4601L6.23633 25.5429C6.67967 25.5812 7.07413 25.2496 7.11251 24.8063L7.15262 24.343C7.50278 24.275 7.84398 24.1672 8.1697 24.0217L8.46847 24.3771C8.75489 24.7178 9.26849 24.7623 9.6092 24.4759L10.3431 23.859C10.6838 23.5726 10.7282 23.0589 10.4418 22.7182L10.1431 22.3628C10.3423 22.067 10.5072 21.7494 10.6344 21.4161L11.0976 21.4562C11.541 21.4946 11.9354 21.163 11.9738 20.7196L12.0566 19.7637C12.0949 19.3204 11.7634 18.9259 11.32 18.8875L10.8589 18.8476C10.7906 18.497 10.6825 18.1554 10.5367 17.8293L10.8909 17.5316C11.2316 17.2451 11.276 16.7315 10.9896 16.3908L10.3727 15.657C10.0863 15.3163 9.57267 15.2718 9.23196 15.5582L8.87782 15.8559C8.58166 15.6562 8.26368 15.491 7.93001 15.3635L7.96993 14.9024C8.00831 14.459 7.67671 14.0646 7.23337 14.0262L6.27743 13.9435ZM6.24305 14.3406L7.19899 14.4233C7.42943 14.4433 7.59275 14.6376 7.5728 14.868L7.51971 15.4812C7.51589 15.5255 7.52696 15.5697 7.55118 15.607C7.5754 15.6442 7.61137 15.6723 7.65339 15.6868C8.05297 15.8244 8.43003 16.0203 8.77236 16.2681C8.80836 16.2942 8.85204 16.3075 8.89645 16.3059C8.94087 16.3043 8.98347 16.2879 9.01749 16.2593L9.48846 15.8633C9.66545 15.7145 9.91881 15.7365 10.0676 15.9135L10.6845 16.6473C10.8333 16.8243 10.8113 17.0777 10.6344 17.2264L10.1634 17.6224C10.1294 17.651 10.1059 17.6901 10.0967 17.7336C10.0875 17.7771 10.0931 17.8224 10.1125 17.8623C10.2978 18.2421 10.426 18.6473 10.4929 19.0646C10.4999 19.1084 10.5214 19.1487 10.554 19.179C10.5865 19.2092 10.6282 19.2277 10.6725 19.2316L11.2857 19.2847C11.5161 19.3046 11.6794 19.4989 11.6595 19.7293L11.5767 20.6853C11.5568 20.9157 11.3625 21.079 11.132 21.0591L10.5167 21.0058C10.4725 21.002 10.4282 21.0131 10.3909 21.0373C10.3536 21.0615 10.3255 21.0975 10.3111 21.1395C10.1737 21.5387 9.97825 21.9155 9.73089 22.2576C9.70486 22.2936 9.69161 22.3372 9.69323 22.3816C9.69486 22.426 9.71126 22.4686 9.73984 22.5026L10.1367 22.9747C10.2855 23.1517 10.2636 23.4051 10.0866 23.5539L9.35276 24.1708C9.17578 24.3196 8.92242 24.2976 8.77363 24.1206L8.37673 23.6485C8.34814 23.6145 8.30902 23.591 8.26556 23.5818C8.22211 23.5726 8.17682 23.5781 8.13689 23.5976C7.75736 23.7825 7.35262 23.9103 6.93575 23.977C6.89187 23.984 6.85159 24.0055 6.82131 24.0381C6.79104 24.0706 6.77252 24.1124 6.76868 24.1566L6.71541 24.7719C6.69546 25.0024 6.50119 25.1657 6.27075 25.1457L5.31481 25.063C5.08436 25.043 4.92105 24.8488 4.941 24.6183L4.99427 24.003C4.9981 23.9587 4.98702 23.9144 4.96279 23.8772C4.93856 23.8399 4.90256 23.8118 4.86053 23.7974C4.46133 23.66 4.08461 23.4645 3.74251 23.2171C3.70651 23.1911 3.66285 23.1779 3.61846 23.1795C3.57407 23.1811 3.53149 23.1975 3.49748 23.2261L3.02533 23.623C2.84836 23.7718 2.59498 23.7498 2.44621 23.5728L1.8293 22.839C1.68052 22.662 1.70245 22.4087 1.87944 22.2599L2.35158 21.863C2.38558 21.8344 2.40906 21.7953 2.41829 21.7518C2.42751 21.7083 2.42196 21.6631 2.40251 21.6231C2.21763 21.2436 2.08979 20.8389 2.0231 20.422C2.01608 20.3781 1.99458 20.3378 1.96202 20.3075C1.92947 20.2773 1.88772 20.2587 1.84343 20.2549L1.22812 20.2017C0.99767 20.1817 0.834356 19.9874 0.854307 19.757L0.937066 18.801C0.957017 18.5706 1.15129 18.4073 1.38174 18.4272L1.99705 18.4805C2.04133 18.4843 2.08562 18.4733 2.12288 18.449C2.16014 18.4248 2.18824 18.3888 2.20271 18.3468C2.34005 17.9476 2.53554 17.5708 2.7829 17.2287C2.80892 17.1927 2.82217 17.1491 2.82055 17.1047C2.81893 17.0603 2.80252 17.0177 2.77394 16.9837L2.37704 16.5116C2.22826 16.3346 2.25019 16.0812 2.42717 15.9325L3.16103 15.3155C3.338 15.1668 3.59138 15.1887 3.74015 15.3657L4.13706 15.8378C4.16565 15.8718 4.20477 15.8953 4.24822 15.9045C4.29168 15.9138 4.33697 15.9082 4.3769 15.8888C4.75643 15.7039 5.16114 15.576 5.57801 15.5093C5.6219 15.5023 5.66218 15.4808 5.69246 15.4483C5.72273 15.4157 5.74126 15.374 5.7451 15.3297L5.79837 14.7144C5.81832 14.4839 6.0126 14.3206 6.24305 14.3406ZM6.50142 16.9186C4.9438 16.7837 3.56715 17.941 3.4323 19.4986C3.29745 21.0562 4.45474 22.4329 6.01235 22.5677C7.56996 22.7026 8.9466 21.5453 9.08145 19.9877C9.2163 18.4301 8.05903 17.0534 6.50142 16.9186ZM6.46704 17.3157C7.81003 17.432 8.8006 18.6103 8.68433 19.9533C8.56807 21.2963 7.38972 22.2869 6.04673 22.1706C4.70374 22.0543 3.71317 20.876 3.82944 19.533C3.9457 18.19 5.12404 17.1994 6.46704 17.3157Z" fill="#BCC2CE" stroke="#BCC2CE" stroke-width="0.1"/>
<mask id="mask0_2792_9208" style="mask-type:alpha" maskUnits="userSpaceOnUse" x="3" y="0" width="27" height="25">
<path d="M6.02463 9.58271H16.639C16.8144 9.58271 16.958 9.43913 16.958 9.26365V2.34519C16.958 2.1697 16.8144 2.02612 16.639 2.02612H6.02463C5.84915 2.02612 5.70557 2.1697 5.70557 2.34519V9.26365C5.70557 9.43913 5.84915 9.58271 6.02463 9.58271ZM6.3437 2.66426H16.3199V8.94458H6.3437V2.66426Z" fill="#BCC2CE"/>
<path d="M16.5162 15.5015H14.6072C14.4317 15.5015 14.2881 15.645 14.2881 15.8205V20.5906C14.2881 20.7661 14.4317 20.9097 14.6072 20.9097H16.5162C16.6917 20.9097 16.8353 20.7661 16.8353 20.5906V15.8205C16.8353 15.645 16.697 15.5015 16.5162 15.5015ZM16.1972 20.2715H14.9262V16.1396H16.1972V20.2715Z" fill="#BCC2CE"/>
<path d="M28.7742 9.63053C27.1789 9.63053 25.8601 10.8483 25.7005 12.4011H24.9879C24.8125 12.4011 24.6689 12.5447 24.6689 12.7202V16.0597C24.6689 16.2352 24.8125 16.3788 24.9879 16.3788H25.6846V22.5315C25.6846 23.26 25.0943 23.8503 24.3604 23.8503C23.6319 23.8503 23.0416 23.26 23.0416 22.5315V16.0597V9.3221C23.0416 7.38642 21.5048 5.80172 19.5851 5.72727V0.319068C19.5851 0.143581 19.4415 0 19.266 0H3.39768C3.22219 0 3.07861 0.143581 3.07861 0.319068V24.4087C3.07861 24.5842 3.22219 24.7278 3.39768 24.7278H19.2607C19.4362 24.7278 19.5797 24.5842 19.5797 24.4087V6.3654C21.1485 6.43985 22.3982 7.7374 22.3982 9.3221V16.0597V22.5315C22.3982 23.611 23.2756 24.4885 24.3551 24.4885C25.4346 24.4885 26.3174 23.611 26.3174 22.5315V16.3788H27.0087C27.1842 16.3788 27.3278 16.2352 27.3278 16.0597V12.7202C27.3278 12.5447 27.1842 12.4011 27.0087 12.4011H26.3387C26.4982 11.1993 27.5245 10.2687 28.7689 10.2687C28.9444 10.2687 29.088 10.1251 29.088 9.9496C29.088 9.77411 28.9497 9.63053 28.7742 9.63053ZM18.9416 24.0896H3.71675V0.638136H18.9416V24.0896ZM26.094 15.1079H25.9026V13.6721H26.094V15.1079ZM25.5357 13.0392C25.4346 13.0552 25.3549 13.1137 25.307 13.1988V13.0392H25.5357ZM25.307 15.5811C25.3495 15.6609 25.4293 15.7194 25.525 15.7407H25.307V15.5811ZM26.4769 15.7407C26.5726 15.7247 26.6471 15.6609 26.695 15.5811V15.7407H26.4769ZM26.695 13.1988C26.6471 13.1137 26.5673 13.0552 26.4663 13.0392H26.695V13.1988Z" fill="#BCC2CE"/>
<path d="M8.46596 10.9385H7.09397C6.91848 10.9385 6.7749 11.0821 6.7749 11.2575C6.7749 11.433 6.91848 11.5766 7.09397 11.5766H8.46596C8.64145 11.5766 8.78503 11.433 8.78503 11.2575C8.78503 11.0821 8.64677 10.9385 8.46596 10.9385Z" fill="#BCC2CE"/>
<path d="M12.0177 10.9385H10.6457C10.4702 10.9385 10.3267 11.0821 10.3267 11.2575C10.3267 11.433 10.4702 11.5766 10.6457 11.5766H12.0177C12.1932 11.5766 12.3368 11.433 12.3368 11.2575C12.3368 11.0821 12.1932 10.9385 12.0177 10.9385Z" fill="#BCC2CE"/>
<path d="M15.5651 11.5766C15.7406 11.5766 15.8842 11.433 15.8842 11.2575C15.8842 11.0821 15.7406 10.9385 15.5651 10.9385H14.1931C14.0176 10.9385 13.874 11.0821 13.874 11.2575C13.874 11.433 14.0176 11.5766 14.1931 11.5766H15.5651Z" fill="#BCC2CE"/>
<path d="M15.5969 2.99927H7.06711C6.89163 2.99927 6.74805 3.14285 6.74805 3.31834V8.28516C6.74805 8.46064 6.89163 8.60423 7.06711 8.60423H15.5969C15.7723 8.60423 15.9159 8.46064 15.9159 8.28516V3.31834C15.9159 3.14285 15.7723 2.99927 15.5969 2.99927ZM15.2778 7.96609H7.38618V3.6374H15.2778V7.96609Z" fill="#BCC2CE"/>
<path d="M13.5117 15.0388V21.3776C13.5117 21.5531 13.6553 21.6967 13.8308 21.6967H17.2927C17.4682 21.6967 17.6117 21.5531 17.6117 21.3776V15.0388C17.6117 14.8633 17.4682 14.7197 17.2927 14.7197H13.8308C13.6553 14.7197 13.5117 14.858 13.5117 15.0388ZM14.1499 15.3579H16.9736V21.0585H14.1499V15.3579Z" fill="#BCC2CE"/>
</mask>
<g mask="url(#mask0_2792_9208)">
<path d="M2.11523 14.9313V-0.481689H32.4595V27.4543H11.7483V14.9313H2.11523Z" fill="#BCC2CE"/>
</g>
</svg>
