<svg width="27" height="25" viewBox="0 0 27 25" fill="none" xmlns="http://www.w3.org/2000/svg">
<path d="M26.9463 17.3808L26.352 15.1667C26.2894 14.9137 26.0392 14.7872 25.7889 14.8504L23.5055 15.4514L21.0032 6.05739C20.9406 5.80435 20.6904 5.67783 20.4401 5.74109L15.5293 7.06954L14.1842 2.04042C14.1217 1.78738 13.8714 1.66086 13.6212 1.72412L7.30275 3.4005L6.48948 0.332418C6.42692 0.07938 6.17669 -0.0471387 5.95773 0.0161206L0.921733 1.28131C0.264863 1.47109 -0.14177 2.13531 0.0459066 2.79953C0.233584 3.46376 0.921733 3.84331 1.54732 3.68516L4.1748 3.02094L9.58615 23.1691C9.64871 23.4221 9.89895 23.5486 10.1492 23.4853L11.5255 23.1058C12.1824 24.5291 13.8089 25.3199 15.3729 24.8771C16.9368 24.4659 17.9378 22.9793 17.8127 21.3978L25.8828 19.247C26.696 19.0888 27.1652 18.2032 26.9463 17.3808ZM22.661 15.7044L11.4316 18.7093L9.02312 9.75806L20.2525 6.75324L22.661 15.7044ZM13.4335 2.70464L14.6534 7.29095L8.77289 8.87243L7.55299 4.28613L13.4335 2.70464ZM10.3369 22.5048L4.92551 2.38835C4.86295 2.19857 4.67527 2.04042 4.4876 2.04042C4.45632 2.04042 4.42504 2.04042 4.39376 2.04042L1.32837 2.79953C0.890453 2.92605 0.734056 2.26183 1.14069 2.13531L5.73878 0.965011L10.6809 19.3735C10.7435 19.6265 10.9937 19.753 11.244 19.6898L12.0885 19.4684C11.3691 20.2275 11.0876 21.3029 11.244 22.2834L10.3369 22.5048ZM15.1226 24.0547C13.8714 24.4026 12.589 23.7068 12.2136 22.4732C11.807 21.1448 12.5577 19.7847 13.8714 19.4368C15.2477 19.0572 16.5928 19.9745 16.843 21.2396C17.1245 22.5365 16.3112 23.7068 15.1226 24.0547ZM25.6325 18.4246L17.5937 20.5754C17.2496 19.6265 16.4364 18.8674 15.4667 18.5827C18.5321 17.7604 22.442 16.7166 25.6013 15.8626L26.0704 17.6339C26.1643 17.9818 25.9766 18.3297 25.6325 18.4246Z" fill="#BCC2CE"/>
</svg>
