<svg width="26" height="26" viewBox="0 0 26 26" fill="none" xmlns="http://www.w3.org/2000/svg">
<path d="M10 6V11L6.5 14.5" stroke="#BCC2CE" stroke-linecap="round"/>
<path d="M19.8583 16.6516V16.0402C20.5926 15.3814 21.0877 14.4843 21.2621 13.4964C21.5706 13.4468 21.852 13.2853 22.0556 13.0409C22.2592 12.7966 22.3718 12.4854 22.3732 12.1631C22.3724 11.8058 22.2347 11.4633 21.9901 11.2104C21.9318 11.1519 21.869 11.0986 21.8022 11.0508V10.5131C21.8151 9.35557 21.4269 8.2314 20.7077 7.34311C20.3793 6.92818 19.9665 6.59281 19.4986 6.36071C19.0307 6.12862 18.5191 6.00547 18 6C15.9038 6 14.1931 8.02572 14.1931 10.5131V11.0532C14.0371 11.1607 13.9054 11.3017 13.8072 11.4666C13.7089 11.6315 13.6463 11.8163 13.6237 12.0085C13.6011 12.2006 13.619 12.3955 13.6762 12.5799C13.7334 12.7642 13.8286 12.9336 13.9551 13.0765L13.9908 13.1158C14.1875 13.3202 14.4428 13.4537 14.7189 13.4964C14.8943 14.4839 15.3892 15.3807 16.1227 16.0402V16.6516C14.9735 16.8456 11 17.7148 11 20.1825V22.822L11.1618 22.9325C11.2879 23.016 14.2763 25 18 25C21.7237 25 24.7121 23.016 24.8382 22.9325L25 22.822V20.1825C25 17.7148 21.0265 16.8456 19.8583 16.6516ZM24.2862 22.4243C23.6271 22.8171 21.0408 24.2634 18 24.2634C14.9592 24.2634 12.3729 22.8171 11.7138 22.4169V20.1825C11.7138 18.3704 15.1995 17.5061 16.5438 17.3268L16.8532 17.2851V15.6694L16.7104 15.5638C15.9726 14.951 15.4989 14.0624 15.3923 13.0912L15.347 12.7745H14.9307C14.8538 12.7745 14.7777 12.7589 14.7066 12.7286C14.6356 12.6983 14.571 12.6538 14.5167 12.5977L14.5 12.5805C14.4339 12.5092 14.3856 12.4223 14.3592 12.3275C14.3328 12.2326 14.3292 12.1325 14.3486 12.0359C14.3681 11.9392 14.41 11.8489 14.4708 11.7727C14.5315 11.6965 14.6093 11.6366 14.6975 11.5983L14.9116 11.5026V10.5131C14.9116 8.43086 16.2964 6.73662 18.0048 6.73662C18.4191 6.74245 18.8272 6.84174 19.2004 7.02752C19.5736 7.2133 19.9029 7.48109 20.1652 7.8121C20.7764 8.5693 21.104 9.5277 21.0884 10.5131V11.5198L21.3025 11.6155C21.3702 11.6459 21.4322 11.6883 21.4857 11.7408C21.5944 11.8528 21.6566 12.0041 21.6592 12.1626C21.6619 12.3211 21.6048 12.4744 21.5 12.5903C21.4449 12.6514 21.3783 12.7001 21.3042 12.7335C21.2301 12.7668 21.1502 12.7841 21.0693 12.7843H20.653L20.6078 13.1011C20.5009 14.0722 20.0272 14.9606 19.2896 15.5737L19.1445 15.6842V17.2949L19.4562 17.3366C20.8005 17.5159 24.2862 18.3777 24.2862 20.1923V22.4243Z" fill="#BCC2CE" stroke="#BCC2CE" stroke-width="0.2"/>
<path d="M18.3261 4.46148C17.3277 2.96049 15.9421 1.75732 14.3159 0.979284C12.6897 0.201246 10.8834 -0.122722 9.08816 0.0416596C7.29293 0.206041 5.57552 0.852658 4.11766 1.91309C2.65981 2.97352 1.51572 4.40832 0.806463 6.06568C0.0972081 7.72303 -0.150835 9.54129 0.08858 11.3281C0.327995 13.1148 1.04596 14.8037 2.16652 16.2158C3.28707 17.628 4.76852 18.711 6.45412 19.3502C8.13973 19.9895 9.96678 20.1611 11.742 19.8471L11.5548 18.7893C9.97035 19.0696 8.33956 18.9164 6.83503 18.3458C5.3305 17.7752 4.00818 16.8086 3.008 15.5481C2.00782 14.2876 1.36698 12.7802 1.15328 11.1854C0.939586 9.59057 1.16098 7.96763 1.79405 6.48831C2.42712 5.00899 3.4483 3.72832 4.74956 2.7818C6.05081 1.83528 7.58373 1.25813 9.18611 1.1114C10.7885 0.964679 12.4007 1.25385 13.8522 1.94831C15.3038 2.64276 16.5405 3.71669 17.4317 5.05643L18.3261 4.46148Z" fill="#BCC2CE"/>
</svg>
