<svg width="20" height="20" viewBox="0 0 20 20" fill="none" xmlns="http://www.w3.org/2000/svg">
<path d="M3.57153 12.5313C4.09308 12.3947 5.60557 12.4792 7.48315 13.9097L10.7615 14.245C11.4196 14.2946 12.7135 14.7665 12.6241 16.2567" stroke="currentColor"/>
<path d="M9.27148 16.5544H12.587L17.6163 14.0957C18.0012 13.9466 18.8158 13.8647 18.9946 14.729C19.0195 14.9525 18.9723 15.4591 18.5849 15.6976L13.8537 18.7151C13.5184 18.9759 12.6019 19.4825 11.6184 19.4229C11.4694 19.4229 9.19697 19.4229 8.07936 19.4229C7.68199 19.4353 6.73079 19.3633 6.10493 18.9759L3.7207 18.0073" stroke="currentColor"/>
<path d="M3.34806 13.7235V12.4197C3.39773 12.1589 3.37786 11.615 2.90102 11.5256H1.85792C1.55989 11.5007 0.971287 11.5926 1.00109 12.1589V18.6038C0.988673 18.79 1.09795 19.1551 1.6344 19.1253H2.64025C2.80168 19.1626 3.16924 19.0731 3.34806 18.4175V14.9157" stroke="currentColor"/>
<path d="M4.76354 12.5309C4.60211 10.9539 5.18823 7.24838 8.82417 5.04297" stroke="currentColor"/>
<path d="M13.1831 5.04297L14.2262 5.78804H14.4125" stroke="currentColor"/>
<path d="M14.9338 6.49609C16.188 7.76271 18.2718 11.1379 16.573 14.5056" stroke="currentColor"/>
<path d="M5.69507 2.88281C5.91859 3.06908 6.60405 3.40436 7.55774 3.25535C8.51143 3.10633 8.77469 3.66514 8.78711 3.96316M9.68119 3.66514C9.1969 3.72723 8.41457 4.06747 9.15964 4.93176C10.0537 5.16769 12.0654 5.46076 12.9595 4.74549C13.0961 4.5468 13.2054 4.05257 12.5497 3.66514C11.7674 3.78931 10.0984 3.96316 9.68119 3.66514Z" stroke="currentColor"/>
<path d="M8.78704 4.48458C8.06681 4.38524 6.54438 4.52184 6.21655 5.86296" stroke="currentColor"/>
<path d="M9.49491 3.66488C9.03545 3.1185 8.21339 1.84691 8.60083 1.13165C8.6505 1.0323 8.89886 0.893223 9.49491 1.13165C10.24 1.42967 10.2027 0.833616 10.6125 1.13165C11.0223 1.42968 10.9851 0.759109 11.8419 1.13165C12.6987 1.50418 12.587 1.80221 13.034 1.46693C13.481 1.13165 14.1889 1.31791 13.8536 2.10024L12.6987 3.66488" stroke="currentColor"/>
<path d="M9.42041 7.91211H13.5183" stroke="currentColor"/>
<path d="M10.9499 7.91211C11.9726 8.54563 13.1281 9.98947 9.56934 10.6967L12.1771 13.1276" stroke="currentColor"/>
<path d="M9.34595 9.0293H13.4438" stroke="currentColor"/>
</svg>
