<svg width="19" height="19" viewBox="0 0 19 19" fill="none" xmlns="http://www.w3.org/2000/svg">
<path d="M9.65997 16.8011H2.51759C2.0205 16.7226 1.02632 16.283 1.02632 15.1528V1.9669C0.921675 1.41749 1.07342 0.334357 2.51759 0.397147H14.9186C15.3372 0.501798 16.1744 0.962259 16.1744 1.9669V8.63835" stroke="#BCC2CE" stroke-width="0.8"/>
<path d="M3.45898 11.6211H7.69732" stroke="#BCC2CE" stroke-width="0.8"/>
<path d="M2.5957 13.1123H8.79623" stroke="#BCC2CE" stroke-width="0.8"/>
<path d="M2.83203 14.3682H8.79709" stroke="#BCC2CE" stroke-width="0.8"/>
<path d="M4.00977 7.85379L5.65801 5.8916" stroke="#BCC2CE" stroke-width="0.8"/>
<path d="M7.46289 5.49902L9.34659 6.83331" stroke="#BCC2CE" stroke-width="0.8"/>
<path d="M10.8379 6.20522L12.2507 3.85059" stroke="#BCC2CE" stroke-width="0.8"/>
<path d="M18.5991 13.9751C18.5991 16.2684 16.7401 18.1274 14.4468 18.1274C12.1536 18.1274 10.2945 16.2684 10.2945 13.9751C10.2945 11.6819 12.1536 9.82285 14.4468 9.82285C16.7401 9.82285 18.5991 11.6819 18.5991 13.9751Z" stroke="#BCC2CE" stroke-width="0.8"/>
<path d="M14.9193 9.58008V13.9754H9.97461" stroke="#BCC2CE" stroke-width="0.8"/>
<path d="M7.14177 5.06678C7.14177 5.47441 6.81132 5.80485 6.4037 5.80485C5.99607 5.80485 5.66563 5.47441 5.66563 5.06678C5.66563 4.65916 5.99607 4.32871 6.4037 4.32871C6.81132 4.32871 7.14177 4.65916 7.14177 5.06678Z" stroke="#BCC2CE" stroke-width="0.8"/>
<path d="M4.00114 8.75624C4.00114 9.16386 3.6707 9.49431 3.26307 9.49431C2.85545 9.49431 2.525 9.16386 2.525 8.75624C2.525 8.34861 2.85545 8.01816 3.26307 8.01816C3.6707 8.01816 4.00114 8.34861 4.00114 8.75624Z" stroke="#BCC2CE" stroke-width="0.8"/>
<path d="M11.1437 7.26502C11.1437 7.67265 10.8133 8.0031 10.4056 8.0031C9.99802 8.0031 9.66758 7.67265 9.66758 7.26502C9.66758 6.8574 9.99802 6.52695 10.4056 6.52695C10.8133 6.52695 11.1437 6.8574 11.1437 7.26502Z" stroke="#BCC2CE" stroke-width="0.8"/>
</svg>
