<svg width="19" height="20" viewBox="0 0 19 20" fill="none" xmlns="http://www.w3.org/2000/svg">
<path d="M4.32168 3.07477V2.03898C4.27405 1.66991 4.4574 0.946047 5.57177 1.00319H14.1438L17.9655 4.93205V17.7901C18.0608 18.0759 18.0155 18.6973 17.0726 18.8973H5.07173C4.78599 18.8854 4.2431 18.6473 4.35739 17.7901V10.861" stroke="currentColor" stroke-width="0.8"/>
<path d="M14.0725 1.11035V4.78919H17.7871" stroke="currentColor" stroke-width="0.8"/>
<path d="M8.64355 3.32495H13.0367" stroke="currentColor" stroke-width="0.8"/>
<path d="M8.57202 4.78906H12.9295" stroke="currentColor" stroke-width="0.8"/>
<path d="M9.85767 6.93213H15.8581" stroke="currentColor" stroke-width="0.8"/>
<path d="M9.9292 8.3252H15.751" stroke="currentColor" stroke-width="0.8"/>
<path d="M3.57178 3.68188V6.86068H7.17918" stroke="currentColor" stroke-width="0.8"/>
<path d="M1.28589 6.78906C1.36923 7.52721 2.02166 9.03208 3.96465 9.14637" stroke="currentColor" stroke-width="0.8"/>
<path d="M10.072 13.54L11.1435 15.0044" stroke="currentColor" stroke-width="0.8"/>
<path d="M12.3938 14.897L14.894 12.2539" stroke="currentColor" stroke-width="0.8"/>
<path d="M7.14355 15.0401L8.57223 13.5757" stroke="currentColor" stroke-width="0.8"/>
<path d="M7.10054 6.6824C7.10054 8.5327 5.60057 10.0327 3.75027 10.0327C1.89997 10.0327 0.4 8.5327 0.4 6.6824C0.4 4.8321 1.89997 3.33213 3.75027 3.33213C5.60057 3.33213 7.10054 4.8321 7.10054 6.6824Z" stroke="currentColor" stroke-width="0.8"/>
<path d="M9.67212 12.8613C9.67212 13.1532 9.43544 13.3899 9.14348 13.3899C8.85152 13.3899 8.61484 13.1532 8.61484 12.8613C8.61484 12.5693 8.85152 12.3326 9.14348 12.3326C9.43544 12.3326 9.67212 12.5693 9.67212 12.8613Z" stroke="currentColor" stroke-width="0.8"/>
<path d="M7.10059 15.6471C7.10059 15.9391 6.86391 16.1758 6.57195 16.1758C6.27999 16.1758 6.04331 15.9391 6.04331 15.6471C6.04331 15.3552 6.27999 15.1185 6.57195 15.1185C6.86391 15.1185 7.10059 15.3552 7.10059 15.6471Z" stroke="currentColor" stroke-width="0.8"/>
<path d="M15.9585 11.4328C15.9585 11.7247 15.7218 11.9614 15.4299 11.9614C15.1379 11.9614 14.9012 11.7247 14.9012 11.4328C14.9012 11.1408 15.1379 10.9042 15.4299 10.9042C15.7218 10.9042 15.9585 11.1408 15.9585 11.4328Z" stroke="currentColor" stroke-width="0.8"/>
<path d="M12.1724 15.6471C12.1724 15.9391 11.9357 16.1758 11.6437 16.1758C11.3518 16.1758 11.1151 15.9391 11.1151 15.6471C11.1151 15.3552 11.3518 15.1185 11.6437 15.1185C11.9357 15.1185 12.1724 15.3552 12.1724 15.6471Z" stroke="currentColor" stroke-width="0.8"/>
</svg>
