<svg width="27" height="27" viewBox="0 0 27 27" fill="none" xmlns="http://www.w3.org/2000/svg">
<path d="M25.9052 19.4478C25.5522 18.9528 24.6562 18.7948 23.5512 19.0858C23.6962 18.7908 23.7442 18.4858 23.6142 18.1978C23.5072 17.9628 23.3112 17.7938 23.0492 17.7088C22.1112 17.4038 20.3572 18.2338 19.0662 18.9728L18.4592 19.2808C18.4162 19.3028 18.3772 19.3328 18.3472 19.3678C17.9872 18.9548 17.2152 18.5198 15.5612 18.5048C14.4892 18.4958 13.7142 17.9228 12.8952 17.3168C12.1722 16.7828 11.4252 16.2308 10.4482 16.0548C8.45823 15.6988 5.41522 17.0758 1.15122 20.2718C1.06322 20.3378 1.00822 20.4388 1.00122 20.5488C0.992225 20.6588 1.03322 20.7668 1.11122 20.8438L4.35322 24.0868C4.42422 24.1578 4.52023 24.1978 4.62223 24.1978H7.35422C7.53822 24.1978 8.41822 24.4398 9.26822 24.6738C10.6532 25.0538 12.5472 25.5748 14.4402 25.9428C14.5572 25.9648 14.6842 25.9768 14.8212 25.9768C17.5762 25.9768 24.3952 21.6578 25.4782 20.8448C26.1602 20.3318 26.1462 19.7868 25.9052 19.4478ZM25.0192 20.2368C23.4352 21.4248 16.5192 25.5668 14.5812 25.1978C12.7172 24.8358 10.8392 24.3198 9.46723 23.9418C8.23123 23.6028 7.62422 23.4398 7.35122 23.4398H4.77622L1.95622 20.6188C5.80522 17.7818 8.61123 16.4978 10.3102 16.8038C11.1132 16.9488 11.7572 17.4248 12.4402 17.9288C13.3222 18.5798 14.2322 19.2538 15.5512 19.2648C17.4452 19.2808 17.8122 19.8628 17.8782 20.0398C17.9732 20.2888 17.8332 20.5338 17.6852 20.6668C17.3282 20.9888 14.9462 21.2358 12.9442 21.2808C12.7342 21.2858 12.5682 21.4598 12.5722 21.6698C12.5782 21.8788 12.7402 22.0398 12.9612 22.0408C14.0042 22.0178 17.4632 21.8898 18.1932 21.2318C18.5592 20.9018 18.7262 20.4378 18.6522 19.9978C18.7032 19.9948 18.7542 19.9818 18.8002 19.9568L19.4252 19.6398C21.3262 18.5538 22.4392 18.3088 22.8142 18.4308C22.8962 18.4568 22.9122 18.4928 22.9202 18.5108C23.0242 18.7388 22.3602 19.4728 21.5772 20.0018C21.5712 20.0058 19.4862 21.2308 19.4862 21.2308C19.3052 21.3368 19.2452 21.5698 19.3502 21.7508C19.4222 21.8718 19.5482 21.9388 19.6782 21.9388C19.7442 21.9388 19.8112 21.9218 19.8712 21.8868C19.8712 21.8868 22.1152 20.5568 22.1682 20.5238C23.8862 19.4388 25.1192 19.6568 25.2842 19.8878C25.3142 19.9298 25.2382 20.0728 25.0192 20.2368Z" fill="#BCC2CE" stroke="#BCC2CE" stroke-width="0.2"/>
<path d="M15 1C11.1339 1.00021 8.00021 4.13388 8 8C8.00021 11.8661 11.1339 14.9998 15 15C18.8661 14.9998 21.9998 11.8661 22 8C21.9998 4.13388 18.8661 1.00021 15 1ZM19.4839 12.4839C18.3353 13.6319 16.7521 14.341 15 14.3412C13.2479 14.341 11.6647 13.6319 10.5161 12.4839C9.36807 11.3353 8.65898 9.75211 8.65882 8C8.65898 6.24789 9.36807 4.66468 10.5161 3.51611C11.6647 2.36806 13.2479 1.65898 15 1.65882C16.7521 1.65898 18.3353 2.36806 19.4839 3.51611C20.6319 4.66468 21.341 6.24788 21.3412 8C21.341 9.75211 20.6319 11.3353 19.4839 12.4839Z" fill="#BCC2CE"/>
<path d="M17.5348 4.37629C17.5348 4.19435 17.3874 4.04688 17.2054 4.04688H12.7943C12.6123 4.04688 12.4648 4.19435 12.4648 4.37629C12.4648 4.55821 12.6123 4.7057 12.7943 4.7057H14.2121C14.5191 4.70589 14.7762 4.76547 14.9937 4.86517C15.319 5.01505 15.5614 5.25739 15.7293 5.55904C15.8452 5.76784 15.9199 6.00589 15.9564 6.25236H12.7943C12.6123 6.25236 12.4648 6.39984 12.4648 6.58177C12.4648 6.7637 12.6123 6.91118 12.7943 6.91118H15.9584C15.9044 7.27621 15.7612 7.6208 15.5362 7.88536C15.3901 8.05769 15.211 8.19858 14.9937 8.29858C14.7762 8.39827 14.5191 8.45785 14.2121 8.45805L13.2668 8.45818C13.1276 8.4582 13.0034 8.54571 12.9566 8.67687C12.9098 8.80803 12.9505 8.95435 13.0583 9.04254L16.5242 11.8783C16.665 11.9935 16.8725 11.9727 16.9878 11.8319C17.103 11.6911 17.0822 11.4836 16.9414 11.3684L14.1895 9.11688L14.2122 9.11687C14.6054 9.11707 14.961 9.0388 15.2687 8.89726C15.7312 8.6853 16.0795 8.33315 16.3055 7.92403C16.4787 7.61104 16.5831 7.26475 16.6231 6.91118H17.2054C17.3874 6.91118 17.5348 6.7637 17.5348 6.58177C17.5348 6.39984 17.3874 6.25236 17.2054 6.25236H16.6213C16.5637 5.74459 16.3749 5.25069 16.0391 4.85268C15.9958 4.80159 15.9489 4.75319 15.9008 4.7057H17.2054C17.3874 4.7057 17.5348 4.55821 17.5348 4.37629Z" fill="#BCC2CE"/>
<path d="M8.0739 12C7.80344 11.5633 7.57701 11.0979 7.3982 10.6082C6.33972 9.55507 5.68379 8.09944 5.68379 6.49195C5.68379 3.28866 8.29045 0.681992 11.4946 0.681992C11.7435 0.681992 11.9879 0.702658 12.2288 0.734107C12.7158 0.576863 13.2216 0.466342 13.7455 0.410633C13.0428 0.149158 12.2863 0 11.4937 0C7.91396 0 5 2.91217 5 6.49285C5.0009 8.81557 6.2328 10.8535 8.0739 12Z" fill="#BCC2CE"/>
</svg>
