<svg width="22" height="22" viewBox="0 0 22 22" fill="none" xmlns="http://www.w3.org/2000/svg">
<path d="M20.9935 6.10179C20.7889 3.03251 18.5125 1.54473 17.1567 1.08839C16.9594 1.02198 16.7517 1 16.5435 1H1.72747C1.3257 1 1 1.3257 1 1.72747V14.763C1 15.1599 1.31811 15.4835 1.71493 15.4904L12.9961 15.6849M20.9935 6.10179C21.1973 9.15801 16.5557 10.411 13.6724 10.7295C13.2917 10.7716 12.9961 11.0875 12.9961 11.4705V15.6849M20.9935 6.10179C20.9935 8.67567 20.9935 14.568 20.9935 17.5464C20.9935 20.2937 16.4568 20.7493 13.6607 20.623C13.2835 20.606 12.9961 20.2899 12.9961 19.9124V15.6849M4.44716 5.13659H8.58375M4.44716 6.79122H7.067" stroke="#BCC2CE" stroke-linecap="round"/>
<path d="M17 6C17 7.10457 16.1046 8 15 8C13.8954 8 13 7.10457 13 6C13 4.89543 13.8954 4 15 4C16.1046 4 17 4.89543 17 6ZM13.8 6C13.8 6.66274 14.3373 7.2 15 7.2C15.6627 7.2 16.2 6.66274 16.2 6C16.2 5.33726 15.6627 4.8 15 4.8C14.3373 4.8 13.8 5.33726 13.8 6Z" fill="#BCC2CE"/>
</svg>
