<svg width="30" height="28" viewBox="0 0 30 28" fill="none" xmlns="http://www.w3.org/2000/svg">
<path d="M21.5237 6.10752L11.0268 0.0472579C10.9174 -0.0157526 10.7827 -0.0157526 10.6733 0.0472579L0.176654 6.10752C0.0672298 6.17081 0 6.28727 0 6.41357V18.5341C0 18.6604 0.0675111 18.7771 0.176654 18.8402L10.6733 24.9004C10.7278 24.9319 10.7889 24.9477 10.8499 24.9477C10.9109 24.9477 10.972 24.9319 11.0266 24.9004L21.5232 18.8402C21.6326 18.7769 21.6998 18.6604 21.6998 18.5341V6.41357C21.7004 6.28727 21.6329 6.17053 21.5237 6.10752ZM10.8502 12.0657L7.76886 10.2868L17.5586 4.63465L20.6399 6.41357L10.8502 12.0657ZM4.849 8.60066L14.6387 2.94856L16.8517 4.22621L7.06196 9.87831L4.849 8.60066ZM4.49541 9.21304L6.70837 10.4907V14.7245L4.49541 13.4468V9.21304ZM10.8502 0.761471L13.9315 2.54039L4.14182 8.19249L1.06049 6.41357L10.8502 0.761471ZM0.706899 7.02596L3.78823 8.80488V13.6511C3.78823 13.7774 3.85574 13.8941 3.96488 13.9571L6.88475 15.6429C6.93932 15.6744 7.00036 15.6902 7.0614 15.6902C7.12244 15.6902 7.18348 15.6744 7.23805 15.6429C7.34748 15.5796 7.41471 15.4632 7.41471 15.3369V10.8989L10.496 12.6778V23.982L0.706899 18.3299V7.02596ZM11.2038 23.982V12.6778L20.9935 7.02567V18.3299L11.2038 23.982Z" fill="#BCC2CE"/>
<path d="M11.3433 23.6726V12.8227L22.6863 5.91821V12.8227V19.234L16.275 23.1794L14.3023 21.6999L11.3433 23.6726Z" fill="#1D1A46"/>
<path fill-rule="evenodd" clip-rule="evenodd" d="M20.6985 9.86353C20.0373 9.86353 19.4958 10.405 19.4958 11.0662V11.7572C18.9861 11.9028 18.4948 12.1061 18.0313 12.3632L17.5434 11.8754C17.0757 11.4077 16.3097 11.4077 15.842 11.8754L14.8346 12.8827C14.3669 13.3504 14.3669 14.1164 14.8346 14.5841L15.3225 15.072C15.0654 15.5355 14.8621 16.0269 14.7164 16.5365H14.0255C13.3642 16.5365 12.8228 17.078 12.8228 17.7392V19.165C12.8228 19.8263 13.3642 20.3677 14.0255 20.3677H14.7164C14.8621 20.8774 15.0654 21.3687 15.3225 21.8323L14.8346 22.3201C14.3669 22.7878 14.3669 23.5539 14.8346 24.0216L15.842 25.0289C16.3097 25.4966 17.0757 25.4966 17.5434 25.0289L18.0313 24.5411C18.4948 24.7982 18.9861 25.0014 19.4958 25.1471V25.8381C19.4958 26.4993 20.0373 27.0408 20.6985 27.0408H22.1243C22.7855 27.0408 23.327 26.4993 23.327 25.8381V25.1471C23.8367 25.0014 24.328 24.7982 24.7915 24.5411L25.2794 25.0289C25.7471 25.4966 26.5131 25.4966 26.9808 25.0289L27.9882 24.0216C28.4559 23.5539 28.4559 22.7878 27.9882 22.3201L27.5003 21.8323C27.7574 21.3687 27.9607 20.8774 28.1064 20.3677H28.7973C29.4586 20.3677 30 19.8263 30 19.165V17.7392C30 17.078 29.4586 16.5365 28.7973 16.5365H28.1095C27.9635 16.0262 27.7597 15.5343 27.502 15.0703L27.9882 14.5841C28.4559 14.1164 28.4559 13.3504 27.9882 12.8827L26.9808 11.8754C26.5131 11.4077 25.7471 11.4077 25.2794 11.8754L24.7933 12.3615C24.3292 12.1038 23.8373 11.9 23.327 11.754V11.0662C23.327 10.405 22.7855 9.86353 22.1243 9.86353H20.6985ZM20.6985 10.4558H22.1243C22.468 10.4558 22.7347 10.7225 22.7347 11.0662V11.9808C22.7347 12.0468 22.7568 12.1109 22.7974 12.163C22.838 12.215 22.8949 12.252 22.9589 12.268C23.5681 12.4205 24.1514 12.6622 24.69 12.9853C24.7466 13.0192 24.813 13.0333 24.8785 13.0252C24.9441 13.0171 25.005 12.9874 25.0517 12.9407L25.6982 12.2942C25.9412 12.0512 26.3191 12.0512 26.562 12.2942L27.5693 13.3016C27.8123 13.5445 27.8123 13.9224 27.5693 14.1653L26.9229 14.8118C26.8762 14.8585 26.8464 14.9195 26.8384 14.985C26.8303 15.0506 26.8444 15.1169 26.8783 15.1735C27.2013 15.7121 27.443 16.2954 27.5955 16.9046C27.6116 16.9687 27.6485 17.0255 27.7006 17.0661C27.7526 17.1068 27.8168 17.1288 27.8828 17.1288H28.7973C29.1411 17.1288 29.4077 17.3955 29.4077 17.7392V19.165C29.4077 19.5087 29.1411 19.7754 28.7973 19.7754H27.8796C27.8136 19.7754 27.7494 19.7975 27.6973 19.8381C27.6453 19.8788 27.6083 19.9357 27.5923 19.9998C27.4401 20.6083 27.199 21.1911 26.8766 21.7293C26.8427 21.7859 26.8287 21.8522 26.8368 21.9177C26.8449 21.9833 26.8746 22.0442 26.9213 22.0909L27.5694 22.739C27.8123 22.9819 27.8123 23.3598 27.5694 23.6027L26.5621 24.6101C26.3191 24.853 25.9412 24.853 25.6983 24.6101L25.0502 23.962C25.0035 23.9153 24.9426 23.8856 24.8771 23.8775C24.8116 23.8694 24.7452 23.8834 24.6886 23.9173C24.1504 24.2397 23.5676 24.4809 22.959 24.633C22.895 24.649 22.8381 24.686 22.7975 24.7381C22.7568 24.7901 22.7347 24.8543 22.7347 24.9203V25.8381C22.7347 26.1818 22.4681 26.4484 22.1244 26.4484H20.6985C20.3548 26.4484 20.0882 26.1818 20.0882 25.8381V24.9203C20.0882 24.8543 20.0661 24.7901 20.0254 24.7381C19.9848 24.686 19.9279 24.649 19.8638 24.633C19.2552 24.4809 18.6725 24.2397 18.1343 23.9173C18.0777 23.8834 18.0114 23.8694 17.9458 23.8775C17.8803 23.8856 17.8194 23.9153 17.7727 23.962L17.1246 24.6101C16.8817 24.853 16.5038 24.853 16.2608 24.6101L15.2535 23.6027C15.0106 23.3598 15.0106 22.9819 15.2535 22.739L15.9016 22.0909C15.9483 22.0442 15.978 21.9833 15.9861 21.9177C15.9942 21.8522 15.9802 21.7859 15.9463 21.7293C15.6239 21.1911 15.3828 20.6083 15.2306 19.9998C15.2146 19.9357 15.1776 19.8788 15.1255 19.8381C15.0735 19.7975 15.0093 19.7754 14.9432 19.7754H14.0255C13.6818 19.7754 13.4151 19.5087 13.4151 19.165V17.7392C13.4151 17.3955 13.6818 17.1288 14.0255 17.1288H14.9432C15.0093 17.1288 15.0734 17.1068 15.1255 17.0661C15.1775 17.0255 15.2145 16.9686 15.2305 16.9045C15.3827 16.296 15.6238 15.7131 15.9462 15.175C15.9801 15.1184 15.9941 15.052 15.986 14.9865C15.9779 14.921 15.9482 14.8601 15.9015 14.8134L15.2534 14.1653C15.0105 13.9224 15.0105 13.5445 15.2534 13.3015L16.2608 12.2942C16.5037 12.0512 16.8816 12.0512 17.1245 12.2942L17.7726 12.9423C17.8193 12.989 17.8802 13.0187 17.9458 13.0268C18.0113 13.0349 18.0776 13.0209 18.1342 12.987C18.6724 12.6646 19.2552 12.4234 19.8637 12.2713C19.9278 12.2553 19.9847 12.2183 20.0254 12.1662C20.066 12.1142 20.0881 12.05 20.0881 11.984V11.0662C20.0881 10.7225 20.3548 10.4558 20.6985 10.4558ZM21.4114 14.2392C19.0882 14.2392 17.1985 16.1289 17.1985 18.4521C17.1985 20.7753 19.0882 22.665 21.4114 22.665C23.7346 22.665 25.6243 20.7753 25.6243 18.4521C25.6243 16.1289 23.7346 14.2392 21.4114 14.2392ZM21.4114 14.8315C23.4145 14.8315 25.032 16.449 25.032 18.4521C25.032 20.4552 23.4145 22.0727 21.4114 22.0727C19.4083 22.0727 17.7908 20.4552 17.7908 18.4521C17.7908 16.449 19.4083 14.8315 21.4114 14.8315Z" fill="#BCC2CE"/>
</svg>
