<svg width="22" height="26" viewBox="0 0 22 26" fill="none" xmlns="http://www.w3.org/2000/svg">
<rect x="3.5" y="14.5" width="3" height="10" stroke="currentColor"/>
<rect x="9.5" y="11.5" width="3" height="13" stroke="currentColor"/>
<rect x="15.5" y="9.5" width="3" height="15" stroke="currentColor"/>
<path d="M1 25L20.8695 25" stroke="currentColor" stroke-linecap="round"/>
<path d="M1.78309 9.37689C1.53429 9.49669 1.4297 9.7955 1.5495 10.0443C1.66929 10.2931 1.9681 10.3977 2.21691 10.2779L1.78309 9.37689ZM18.7288 2.1652C18.82 1.90456 18.6827 1.61932 18.422 1.5281L14.1746 0.041521C13.914 -0.0497028 13.6288 0.0876357 13.5375 0.348275C13.4463 0.608914 13.5837 0.894156 13.8443 0.985379L17.6197 2.30678L16.2983 6.08221C16.2071 6.34285 16.3444 6.6281 16.6051 6.71932C16.8657 6.81054 17.151 6.6732 17.2422 6.41257L18.7288 2.1652ZM2.21691 10.2779L18.4737 2.45053L18.0399 1.54953L1.78309 9.37689L2.21691 10.2779Z" fill="currentColor"/>
</svg>
