<svg width="28" height="26" viewBox="0 0 28 26" fill="none" xmlns="http://www.w3.org/2000/svg">
<path d="M26.6917 13.8709V0.445103C26.6917 0.327054 26.6448 0.213841 26.5613 0.130368C26.4778 0.0468946 26.3646 0 26.2466 0H8.7036C8.58555 0 8.47233 0.0468946 8.38886 0.130368C8.30539 0.213841 8.25849 0.327054 8.25849 0.445103V12.9181C8.07872 13.011 7.91437 13.1311 7.77125 13.2742L4.76443 16.2848L3.69916 15.2201C3.6157 15.1368 3.50257 15.09 3.38462 15.09C3.26666 15.09 3.15353 15.1368 3.07008 15.2201L0.13032 18.1661C0.0468762 18.2496 0 18.3628 0 18.4808C0 18.5988 0.0468762 18.712 0.13032 18.7955L7.20597 25.8697C7.28944 25.9531 7.40264 26 7.52066 26C7.63869 26 7.75188 25.9531 7.83535 25.8697L10.7796 22.9255C10.863 22.842 10.9099 22.7288 10.9099 22.6108C10.9099 22.4928 10.863 22.3796 10.7796 22.2961L9.9843 21.5011C10.1082 21.4304 10.2482 21.3926 10.3908 21.3913H18.4674C18.9394 21.3904 19.4026 21.2629 19.8086 21.0222L26.7552 16.8679C27.0123 16.7151 27.2251 16.4978 27.3727 16.2377C27.5203 15.9775 27.5975 15.6833 27.5967 15.3842C27.5949 14.9658 27.4422 14.5621 27.1668 14.2472C27.0321 14.0944 26.8712 13.967 26.6917 13.8709ZM7.52081 24.9255L1.07453 18.4792L3.3858 16.1647L9.83564 22.6106L7.52081 24.9255ZM18.6561 0.889909V5.42996H16.2941V0.890206L18.6561 0.889909ZM9.1487 0.889909H15.4039V5.87506C15.4039 5.99311 15.4508 6.10632 15.5342 6.1898C15.6177 6.27327 15.7309 6.32016 15.849 6.32016H19.1012C19.2192 6.32016 19.3325 6.27327 19.4159 6.1898C19.4994 6.10632 19.5463 5.99311 19.5463 5.87506V0.890206H25.8015V13.6611C25.6044 13.667 25.4098 13.7062 25.2258 13.7771L21.2252 15.362H19.4997C19.4483 14.8781 19.22 14.4303 18.8585 14.1045C18.497 13.7788 18.0279 13.5982 17.5413 13.5973H14.1045C13.8194 13.5959 13.5459 13.484 13.3416 13.2851C13.1601 13.1013 12.9441 12.9553 12.706 12.8553C12.4678 12.7553 12.2123 12.7035 11.954 12.7026L9.1668 12.6979C9.16057 12.6979 9.15463 12.6979 9.1487 12.6979V0.889909ZM26.2973 16.1038L19.3537 20.2566C19.0852 20.4158 18.7789 20.5002 18.4668 20.5011H10.3908C10.0111 20.5011 9.64204 20.6263 9.34069 20.8572L5.39589 16.9121L8.40122 13.9026C8.50156 13.8023 8.62081 13.7228 8.75207 13.6688C8.88333 13.6148 9.02398 13.5874 9.16591 13.5881L11.9481 13.5928C12.0904 13.5933 12.2312 13.622 12.3623 13.6772C12.4935 13.7324 12.6124 13.8131 12.7122 13.9145C13.0841 14.2792 13.5836 14.4844 14.1045 14.4866H17.5401C17.8265 14.4869 18.1011 14.6009 18.3037 14.8034C18.5062 15.006 18.6202 15.2806 18.6205 15.567V15.6596C18.6209 15.8017 18.5933 15.9425 18.5392 16.0738C18.485 16.2052 18.4055 16.3246 18.3051 16.4252C18.2047 16.5257 18.0855 16.6055 17.9542 16.6598C17.8229 16.7141 17.6822 16.742 17.5401 16.7418H14.365C14.247 16.7418 14.1337 16.7887 14.0503 16.8722C13.9668 16.9556 13.9199 17.0689 13.9199 17.1869C13.9199 17.305 13.9668 17.4182 14.0503 17.5016C14.1337 17.5851 14.247 17.632 14.365 17.632H17.5401C17.8063 17.6319 18.0697 17.5777 18.3143 17.4727L18.3208 17.4709L25.5516 14.6053C25.679 14.5545 25.8169 14.5356 25.9533 14.5501C26.0897 14.5647 26.2205 14.6123 26.3343 14.6889C26.4481 14.7655 26.5415 14.8687 26.6064 14.9896C26.6712 15.1104 26.7056 15.2453 26.7065 15.3825C26.7068 15.5279 26.6692 15.6709 26.5975 15.7973C26.5257 15.9238 26.4223 16.0294 26.2973 16.1038Z" fill="#BCC2CE"/>
</svg>
