<svg xmlns="http://www.w3.org/2000/svg" width="23" height="24" viewBox="0 0 23 24" fill="none">
  <path d="M11.5738 21.0323H2.85297C2.24603 20.9365 1.03214 20.3998 1.03214 19.0198V2.91986C0.904365 2.24903 1.08964 0.926528 2.85297 1.00319H17.9946C18.5057 1.13097 19.528 1.69319 19.528 2.91986V11.0657" stroke="#BCC2CE" stroke-width="0.976798"/>
  <path d="M4.00293 14.7075H9.17792" stroke="#BCC2CE" stroke-width="0.976798"/>
  <path d="M2.94873 16.5283H10.5196" stroke="#BCC2CE" stroke-width="0.976798"/>
  <path d="M3.23633 18.0618H10.5197" stroke="#BCC2CE" stroke-width="0.976798"/>
  <path d="M4.67383 10.1068L6.68633 7.71094" stroke="#BCC2CE" stroke-width="0.976798"/>
  <path d="M8.89062 7.23267L11.1906 8.86183" stroke="#BCC2CE" stroke-width="0.976798"/>
  <path d="M13.0112 8.09472L14.7362 5.21973" stroke="#BCC2CE" stroke-width="0.976798"/>
  <path d="M22.4896 17.5823C22.4896 20.3823 20.2197 22.6522 17.4197 22.6522C14.6196 22.6522 12.3497 20.3823 12.3497 17.5823C12.3497 14.7822 14.6196 12.5123 17.4197 12.5123C20.2197 12.5123 22.4896 14.7822 22.4896 17.5823Z" stroke="#BCC2CE" stroke-width="0.976798"/>
  <path d="M17.9945 12.2153V17.582H11.957" stroke="#BCC2CE" stroke-width="0.976798"/>
  <path d="M8.4978 6.7055C8.4978 7.20321 8.09432 7.60668 7.59661 7.60668C7.0989 7.60668 6.69543 7.20321 6.69543 6.7055C6.69543 6.20779 7.0989 5.80432 7.59661 5.80432C8.09432 5.80432 8.4978 6.20779 8.4978 6.7055Z" stroke="#BCC2CE" stroke-width="0.976798"/>
  <path d="M4.66479 11.2096C4.66479 11.7074 4.26131 12.1108 3.7636 12.1108C3.2659 12.1108 2.86242 11.7074 2.86242 11.2096C2.86242 10.7119 3.2659 10.3085 3.7636 10.3085C4.26131 10.3085 4.66479 10.7119 4.66479 11.2096Z" stroke="#BCC2CE" stroke-width="0.976798"/>
  <path d="M13.3855 9.3886C13.3855 9.88631 12.982 10.2898 12.4843 10.2898C11.9866 10.2898 11.5831 9.88631 11.5831 9.3886C11.5831 8.8909 11.9866 8.48742 12.4843 8.48742C12.982 8.48742 13.3855 8.8909 13.3855 9.3886Z" stroke="#BCC2CE" stroke-width="0.976798"/>
</svg>