<svg width="23" height="24" viewBox="0 0 23 24" fill="none" xmlns="http://www.w3.org/2000/svg">
<path d="M11.5738 21.0323H2.85297C2.24603 20.9365 1.03214 20.3998 1.03214 19.0198V2.91986C0.904365 2.24903 1.08964 0.926528 2.85297 1.00319H17.9946C18.5057 1.13097 19.528 1.69319 19.528 2.91986V11.0657" stroke="#BCC2CE" stroke-width="0.976798"/>
<path d="M4.00293 14.7075H9.17792" stroke="#BCC2CE" stroke-width="0.976798"/>
<path d="M2.94873 16.5283H10.5196" stroke="#BCC2CE" stroke-width="0.976798"/>
<path d="M3.23633 18.062H10.5197" stroke="#BCC2CE" stroke-width="0.976798"/>
<path d="M4.67383 10.1068L6.68633 7.71094" stroke="#BCC2CE" stroke-width="0.976798"/>
<path d="M8.89038 7.23291L11.1904 8.86207" stroke="#BCC2CE" stroke-width="0.976798"/>
<path d="M13.0112 8.09472L14.7362 5.21973" stroke="#BCC2CE" stroke-width="0.976798"/>
<path d="M22.4895 17.5823C22.4895 20.3823 20.2196 22.6522 17.4195 22.6522C14.6195 22.6522 12.3496 20.3823 12.3496 17.5823C12.3496 14.7822 14.6195 12.5123 17.4195 12.5123C20.2196 12.5123 22.4895 14.7822 22.4895 17.5823Z" stroke="#BCC2CE" stroke-width="0.976798"/>
<path d="M17.9945 12.2153V17.582H11.957" stroke="#BCC2CE" stroke-width="0.976798"/>
<path d="M8.49792 6.7055C8.49792 7.20321 8.09444 7.60668 7.59673 7.60668C7.09903 7.60668 6.69555 7.20321 6.69555 6.7055C6.69555 6.20779 7.09903 5.80432 7.59673 5.80432C8.09444 5.80432 8.49792 6.20779 8.49792 6.7055Z" stroke="#BCC2CE" stroke-width="0.976798"/>
<path d="M4.66454 11.2099C4.66454 11.7076 4.26107 12.1111 3.76336 12.1111C3.26565 12.1111 2.86218 11.7076 2.86218 11.2099C2.86218 10.7122 3.26565 10.3087 3.76336 10.3087C4.26107 10.3087 4.66454 10.7122 4.66454 11.2099Z" stroke="#BCC2CE" stroke-width="0.976798"/>
<path d="M13.3854 9.3886C13.3854 9.88631 12.9819 10.2898 12.4842 10.2898C11.9865 10.2898 11.583 9.88631 11.583 9.3886C11.583 8.8909 11.9865 8.48742 12.4842 8.48742C12.9819 8.48742 13.3854 8.8909 13.3854 9.3886Z" stroke="#BCC2CE" stroke-width="0.976798"/>
</svg>
