<svg width="26" height="26" viewBox="0 0 26 26" fill="none" xmlns="http://www.w3.org/2000/svg">
<path d="M6.56223 11.713V13.258L5.01716 13.876L3.78111 13.258L2.44206 14.3396L3.16309 15.5756L2.44206 17.3267H1.25751L1 19.0778L2.44206 19.5928L3.16309 21.1378L2.44206 22.3739L3.78111 23.3524L5.01716 22.6314L6.40772 23.3524L6.81974 24.743H8.3648L8.67381 23.0949L10.2704 22.3739L11.6609 23.5584L12.897 22.3739L11.9184 20.8288L12.897 19.0778H14.133V17.3267L12.5365 16.9147L11.9184 15.5756L12.897 14.3396L11.6609 13.0005L9.96137 13.876L8.67381 13.258L8.3648 11.713H6.56223Z" stroke="currentColor"/>
<ellipse cx="7.59222" cy="18.2525" rx="2.4721" ry="2.4721" stroke="currentColor"/>
<path d="M7.07755 9.54935L5.58398 8.82832L6.66553 6.25321L8.15909 6.76824L9.49814 5.32618L8.62261 3.26609L10.2707 2.03004L11.9187 3.26609L13.7213 2.80257L14.0818 1H16.3994L16.7599 2.80257L18.3565 3.26609L20.3651 2.03004L21.8586 3.26609L21.1891 5.06867L22.2192 6.76824H24.3823L25.0003 8.2618L23.1977 9.54935V11.7124L25.0003 12.897L24.3823 14.5451L22.6312 14.133L21.1891 15.9871L21.8586 17.7382L20.0046 19.1802L18.717 17.7382L17.1205 18.2017L16.7599 20.1073L15.7814 20.4163" stroke="currentColor"/>
<path d="M10.9401 11.4548C10.2705 10.1157 11.5581 6.25305 15.4722 6.25305C17.3778 6.51056 19.9838 7.68481 19.4894 11.7638C19.0774 13.017 17.522 15.4513 14.5967 15.1629" stroke="currentColor"/>
</svg>
