<svg width="26" height="27" viewBox="0 0 26 27" fill="none" xmlns="http://www.w3.org/2000/svg">
<path fill-rule="evenodd" clip-rule="evenodd" d="M10.2771 21.1598H0L0.0224387 15.7969C1.30147 18.5344 5.29562 20.6213 10.2771 21.1598Z" fill="#393185"/>
<path fill-rule="evenodd" clip-rule="evenodd" d="M25.5798 15.752V21.1598H15.3027C20.3066 20.6212 24.3008 18.512 25.5798 15.752Z" fill="#393185"/>
<path fill-rule="evenodd" clip-rule="evenodd" d="M0.0897993 0L12.9474 6.19318L25.5806 0.224391V12.0273C24.0996 8.84099 18.9386 6.48489 12.7903 6.48489C6.68689 6.48489 1.57078 8.79612 0.0449219 11.9376L0.0897993 0Z" fill="#393185"/>
<path fill-rule="evenodd" clip-rule="evenodd" d="M12.8562 6.95557C19.027 6.95557 24.1431 9.51362 24.9509 12.8122H23.4475C22.6846 9.80533 18.2192 7.4941 12.8338 7.4941C6.90989 7.4941 2.10793 10.2765 2.10793 13.7322C2.10793 17.1878 6.90989 19.9702 12.8338 19.9702C18.2865 19.9702 22.7968 17.5917 23.4699 14.54H24.9734C24.2553 17.9058 19.0943 20.5312 12.8338 20.5312C6.10209 20.5312 0.626953 17.4795 0.626953 13.7322C0.626953 9.98484 6.10209 6.95557 12.8562 6.95557Z" fill="#393185"/>
<path fill-rule="evenodd" clip-rule="evenodd" d="M0.761719 13.5308H24.8388V14.0693H0.761719V13.5308Z" fill="#393185"/>
<path fill-rule="evenodd" clip-rule="evenodd" d="M18.6016 4.80176C19.4991 5.36273 20.0377 6.08079 20.0377 6.84371C20.0377 8.7286 16.8064 10.2545 12.7898 10.2545C8.77324 10.2545 5.56445 8.75104 5.56445 6.86615C5.56445 6.10322 6.10299 5.38517 7.00055 4.8242C6.23763 5.3403 5.78884 5.96859 5.78884 6.61932C5.78884 8.39201 8.93032 9.82811 12.7898 9.82811C16.6494 9.82811 19.7908 8.39201 19.7908 6.61932C19.8133 5.94615 19.3645 5.31786 18.6016 4.80176Z" fill="#393185"/>
<path fill-rule="evenodd" clip-rule="evenodd" d="M6.37109 19.1405C7.56036 18.1756 10.0062 17.5024 12.8335 17.5024C15.616 17.5024 18.0394 18.1532 19.2511 19.1181L18.8472 19.2751C17.6131 18.4449 15.3916 17.9063 12.8335 17.9063C10.2531 17.9063 8.00915 18.4673 6.79744 19.2976C6.775 19.2976 6.37109 19.1405 6.37109 19.1405Z" fill="#393185"/>
<path fill-rule="evenodd" clip-rule="evenodd" d="M12.5645 7.49463H13.0581V19.9708H12.5645V7.49463Z" fill="#393185"/>
<path fill-rule="evenodd" clip-rule="evenodd" d="M12.8118 7.2251C15.4371 7.2251 17.5689 10.0749 17.5689 13.5978C17.5689 17.1207 15.4371 19.9705 12.8118 19.9705C10.1864 19.9705 8.05469 17.1207 8.05469 13.5978C8.05469 10.0749 10.1864 7.2251 12.8118 7.2251ZM12.8118 7.78607C15.1903 7.78607 17.1201 10.4114 17.1201 13.6651C17.1201 16.9188 15.1903 19.5217 12.8118 19.5217C10.4332 19.5217 8.50347 16.8963 8.50347 13.6651C8.50347 10.4339 10.4332 7.78607 12.8118 7.78607Z" fill="#393185"/>
<path d="M0.379818 24.1664V22.5732H0.761282L1.2325 23.6952C1.27738 23.8074 1.29982 23.8747 1.32226 23.9196C1.3447 23.8523 1.36714 23.785 1.43445 23.6728L1.90568 22.5732H2.2647V24.1664H2.01787V22.8425L1.45689 24.1664H1.2325L0.671527 22.8201V24.1664C0.626648 24.1664 0.379818 24.1664 0.379818 24.1664ZM2.80324 24.1664L3.56617 22.5732H3.83544L4.64324 24.1664H4.35153L4.12714 23.6728H3.2969L3.07251 24.1664H2.80324ZM3.36422 23.5157H4.03739L3.83544 23.0669C3.76812 22.9323 3.72324 22.8201 3.7008 22.7303C3.67836 22.8425 3.63348 22.9323 3.58861 23.0445C3.56617 23.0445 3.36422 23.5157 3.36422 23.5157ZM5.18178 24.1664V22.5732H6.0569C6.23642 22.5732 6.37105 22.5957 6.46081 22.6181C6.55056 22.6406 6.61788 22.6854 6.6852 22.7752C6.75252 22.865 6.77495 22.9323 6.77495 23.022C6.77495 23.1342 6.73008 23.224 6.64032 23.3137C6.55056 23.381 6.41593 23.4484 6.23642 23.4484C6.30373 23.4708 6.34861 23.4932 6.39349 23.5381C6.46081 23.6054 6.55056 23.6728 6.61788 23.7625L6.95447 24.1889H6.61788L6.34861 23.8523C6.28129 23.7625 6.21398 23.6952 6.1691 23.6279C6.12422 23.583 6.07934 23.5381 6.03446 23.5157C5.98959 23.4932 5.96715 23.4708 5.92227 23.4708C5.89983 23.4708 5.83251 23.4708 5.78763 23.4708H5.49593V24.1889C5.45105 24.1664 5.18178 24.1664 5.18178 24.1664ZM5.45105 23.2689H6.01203C6.12422 23.2689 6.23642 23.2689 6.2813 23.2464C6.32617 23.224 6.39349 23.2015 6.43837 23.1567C6.48325 23.1118 6.48325 23.0669 6.48325 23.022C6.48325 22.9547 6.43837 22.8874 6.39349 22.8425C6.32617 22.7976 6.21398 22.7752 6.07934 22.7752H5.45105V23.2689ZM8.79447 22.5732H9.06374V23.4932C9.06374 23.6503 9.0413 23.785 8.99642 23.8747C8.95155 23.9645 8.86179 24.0542 8.74959 24.0991C8.6374 24.1664 8.48032 24.1889 8.30081 24.1889C8.1213 24.1889 7.96423 24.1664 7.85203 24.1215C7.73984 24.0767 7.65008 23.9869 7.6052 23.8971C7.56032 23.8074 7.53788 23.6728 7.53788 23.4932V22.5732H7.78471V23.4932C7.78471 23.6279 7.80715 23.7401 7.82959 23.8074C7.85203 23.8747 7.91935 23.9196 7.98667 23.9645C8.05398 24.0093 8.16618 24.0093 8.25593 24.0093C8.43545 24.0093 8.59252 23.9645 8.65984 23.8971C8.74959 23.8298 8.77203 23.6952 8.77203 23.4932C8.79447 23.4932 8.79447 22.5732 8.79447 22.5732ZM10.3203 24.1664V22.7528H9.69203V22.5732H11.2403V22.7528H10.5896V24.1664H10.3203ZM11.8911 24.1664V22.5732H12.1603V24.1664H11.8911ZM1.29982 26.0289V25.8493H2.13007V26.4328C1.99543 26.5225 1.8608 26.5674 1.72616 26.6123C1.59153 26.6572 1.45689 26.6796 1.29982 26.6796C1.12031 26.6796 0.940795 26.6347 0.783722 26.5898C0.626648 26.5225 0.514452 26.4328 0.424695 26.2981C0.334939 26.1635 0.3125 26.0289 0.3125 25.8718C0.3125 25.7147 0.357378 25.5801 0.424695 25.4454C0.514452 25.3108 0.626647 25.2211 0.761282 25.1537C0.918355 25.0864 1.07543 25.064 1.27738 25.064C1.41202 25.064 1.54665 25.0864 1.65884 25.1089C1.77104 25.1537 1.8608 25.1986 1.92811 25.2659C1.99543 25.3332 2.04031 25.423 2.08519 25.5352L1.8608 25.5801C1.83836 25.4903 1.79348 25.423 1.7486 25.3781C1.70372 25.3332 1.63641 25.2884 1.56909 25.2659C1.47933 25.2435 1.38958 25.2211 1.29982 25.2211C1.18762 25.2211 1.07543 25.2435 0.985672 25.2659C0.895916 25.2884 0.8286 25.3332 0.783722 25.3781C0.738844 25.423 0.693964 25.4903 0.649086 25.5352C0.604208 25.625 0.58177 25.7372 0.58177 25.8493C0.58177 25.984 0.604209 26.1186 0.671527 26.2084C0.738844 26.2981 0.828599 26.3879 0.940795 26.4328C1.05299 26.4776 1.16519 26.5001 1.29982 26.5001C1.41202 26.5001 1.52421 26.4776 1.63641 26.4552C1.7486 26.4103 1.81592 26.3879 1.88324 26.343V26.0513C1.8608 26.0289 1.29982 26.0289 1.29982 26.0289ZM3.07251 26.6572V25.064H3.94763C4.12714 25.064 4.26178 25.064 4.35153 25.1089C4.44129 25.1537 4.50861 25.1986 4.57592 25.2659C4.6208 25.3332 4.66568 25.423 4.66568 25.5128C4.66568 25.625 4.6208 25.7147 4.53105 25.8045C4.44129 25.8942 4.30666 25.9391 4.1047 25.9615C4.17202 25.984 4.23934 26.0064 4.26178 26.0513C4.3291 26.0962 4.39641 26.1859 4.48617 26.2757L4.82276 26.702H4.50861L4.23934 26.3654C4.17202 26.2757 4.1047 26.1859 4.05983 26.1411C4.01495 26.0962 3.97007 26.0513 3.92519 26.0289C3.88031 26.0064 3.85788 25.984 3.813 25.984C3.79056 25.984 3.74568 25.984 3.67836 25.984H3.38665V26.702C3.31934 26.6572 3.07251 26.6572 3.07251 26.6572ZM3.31934 25.7596H3.88031C3.99251 25.7596 4.08227 25.7596 4.14958 25.7372C4.2169 25.7147 4.26178 25.6923 4.30666 25.6474C4.35153 25.6025 4.35153 25.5576 4.35153 25.5128C4.35153 25.4454 4.30666 25.3781 4.23934 25.3332C4.17202 25.2884 4.05983 25.2659 3.92519 25.2659H3.2969V25.7596H3.31934ZM5.51837 25.8942C5.51837 25.625 5.60812 25.423 5.78763 25.2659C5.96715 25.1089 6.19154 25.0415 6.46081 25.0415C6.64032 25.0415 6.79739 25.0864 6.95447 25.1537C7.0891 25.2211 7.2013 25.3332 7.29105 25.4454C7.38081 25.5801 7.40325 25.7147 7.40325 25.8718C7.40325 26.0289 7.35837 26.1859 7.29105 26.2981C7.2013 26.4328 7.0891 26.5225 6.95447 26.5898C6.79739 26.6572 6.64032 26.6796 6.48325 26.6796C6.30373 26.6796 6.12422 26.6347 5.98959 26.5674C5.83251 26.5001 5.72032 26.3879 5.653 26.2757C5.54081 26.1635 5.51837 26.0289 5.51837 25.8942ZM5.7652 25.8942C5.7652 26.0962 5.83251 26.2308 5.94471 26.343C6.07934 26.4552 6.23642 26.5001 6.41593 26.5001C6.61788 26.5001 6.77495 26.4552 6.90959 26.3206C7.04422 26.2084 7.0891 26.0513 7.0891 25.8493C7.0891 25.7147 7.06666 25.6025 6.99935 25.5128C6.95447 25.423 6.86471 25.3332 6.75252 25.2884C6.64032 25.2435 6.52813 25.1986 6.39349 25.1986C6.21398 25.1986 6.0569 25.2435 5.92227 25.3557C5.83251 25.4679 5.7652 25.6474 5.7652 25.8942ZM9.53496 25.064H9.80423V25.984C9.80423 26.1411 9.78179 26.2757 9.73691 26.3654C9.69203 26.4552 9.60228 26.545 9.49008 26.5898C9.37789 26.6572 9.22081 26.6796 9.0413 26.6796C8.86179 26.6796 8.70471 26.6572 8.59252 26.6123C8.48032 26.5674 8.39057 26.4776 8.34569 26.3879C8.30081 26.2981 8.27837 26.1635 8.27837 25.984V25.064H8.54764V25.984C8.54764 26.1186 8.57008 26.2308 8.59252 26.2981C8.61496 26.3654 8.68228 26.4103 8.74959 26.4552C8.83935 26.5001 8.92911 26.5001 9.0413 26.5001C9.22081 26.5001 9.35545 26.4552 9.4452 26.3879C9.53496 26.3206 9.5574 26.1859 9.5574 25.984C9.53496 25.984 9.53496 25.064 9.53496 25.064ZM10.7915 26.6572V25.064H11.532C11.6667 25.064 11.7564 25.064 11.8237 25.0864C11.9135 25.0864 12.0033 25.1313 12.0706 25.1537C12.1379 25.1986 12.1828 25.2435 12.2277 25.3108C12.2725 25.3781 12.295 25.4454 12.295 25.5352C12.295 25.6698 12.2501 25.782 12.1379 25.8718C12.0257 25.9615 11.8462 26.0064 11.5545 26.0064H11.0384V26.6572H10.7915ZM11.0384 25.8269H11.532C11.7116 25.8269 11.8237 25.8045 11.8911 25.7372C11.9584 25.6923 12.0033 25.625 12.0033 25.5128C12.0033 25.4454 11.9808 25.4006 11.9359 25.3332C11.8911 25.2884 11.8462 25.2435 11.7789 25.2435C11.734 25.2435 11.6667 25.2211 11.532 25.2211H11.0384C11.0384 25.2435 11.0384 25.8269 11.0384 25.8269Z" fill="#020013"/>
<path d="M15.5721 11.7802L15.6619 11.8026L15.4824 11.8475C11.578 11.7802 9.10969 12.947 9.22189 14.5851C9.10969 12.9695 11.578 11.7802 15.46 11.8475H15.5721C7.38189 12.7002 8.18969 15.8417 15.0785 18.5792C22.0795 21.3168 24.66 23.3139 25.4453 24.9968L25.4902 25.6251L25.4453 25.5578V26.231H17.7263H15.9761C15.9761 24.7275 13.7995 22.6407 9.44628 19.9704C-0.651303 13.4182 8.18969 9.64847 15.5273 11.7577L15.5721 11.7802Z" fill="#8E88C1"/>
<path fill-rule="evenodd" clip-rule="evenodd" d="M15.5939 11.7801C8.25637 9.62599 -0.674385 13.3733 9.44564 19.9704C13.7988 22.6631 15.953 24.7499 15.9754 26.2309H17.7257C17.2544 24.3012 15.0105 22.1919 9.91686 19.8133C2.37733 14.585 6.12466 10.0972 15.5939 11.7801Z" fill="#393185"/>
<path fill-rule="evenodd" clip-rule="evenodd" d="M15.5721 11.8698C7.38184 12.7 8.18965 15.8415 15.0784 18.5791C19.2297 20.2171 21.8326 21.5635 23.4258 22.7527C24.5029 23.5605 25.1312 24.301 25.4453 24.9742L25.4902 25.6025C23.9194 23.2015 20.7331 20.8903 14.697 18.7137C6.08038 15.5722 8.57111 11.6903 15.5721 11.8698Z" fill="#393185"/>
<path fill-rule="evenodd" clip-rule="evenodd" d="M10.8605 11.9595L10.9502 12.2287C10.8156 12.2736 10.681 12.3185 10.5463 12.3634L10.3668 12.0941C10.5015 12.0492 10.681 12.0044 10.8605 11.9595ZM10.1873 12.4531C10.0527 12.498 9.94048 12.5429 9.82829 12.5878L9.62634 12.2961C9.73853 12.2512 9.87317 12.2063 10.0078 12.1839L10.1873 12.4531ZM9.51414 12.7224C9.31219 12.8122 9.15512 12.9019 8.9756 12.9917L8.72877 12.6551C8.90828 12.5653 9.0878 12.498 9.28975 12.4307L9.51414 12.7224ZM8.61658 13.2161C8.43706 13.3507 8.27999 13.4629 8.16779 13.5975L7.85365 13.1712C7.98828 13.059 8.1678 12.9468 8.34731 12.857L8.61658 13.2161ZM7.85365 14.1585C7.78633 14.338 7.78633 14.54 7.83121 14.7195L7.15804 14.8317C7.04584 14.3605 7.15804 13.9341 7.44975 13.5751L7.85365 14.1585ZM8.14536 15.4375C8.39219 15.7966 8.79609 16.178 9.31219 16.5819L8.72877 16.8961C8.14536 16.4024 7.74145 15.9761 7.47218 15.5497C7.47218 15.5722 8.14536 15.4375 8.14536 15.4375ZM10.1873 17.1878C10.7034 17.5019 11.2868 17.8385 11.9376 18.1751L11.1746 18.6014C10.5463 18.2424 10.0302 17.8834 9.55902 17.5468L10.1873 17.1878ZM12.9922 18.6688C13.8 19.0502 14.6078 19.4766 15.3932 19.9253L14.4059 20.4639C13.7102 20.06 12.9698 19.6112 12.1395 19.14L12.9922 18.6688ZM16.5151 20.621C17.4127 21.1819 18.2878 21.8102 19.0507 22.4385L18.1083 23.0219C17.3903 22.4385 16.5376 21.8551 15.5054 21.1819C15.5278 21.1595 16.5151 20.621 16.5151 20.621ZM20.2849 23.5156C21.2273 24.4132 21.9454 25.3556 22.3717 26.2532H20.9805C20.5542 25.5127 20.0605 24.8171 19.3425 24.1215L20.2849 23.5156Z" fill="white"/>
</svg>
