<svg width="20" height="21" viewBox="0 0 20 21" fill="none" xmlns="http://www.w3.org/2000/svg">
<path d="M1.93366 0C0.873445 0 0 0.873518 0 1.93366V19.0663C0 20.1265 0.873445 21 1.93366 21H9.20507C9.28628 20.9998 9.36665 20.9837 9.4416 20.9524C9.51655 20.9212 9.5846 20.8754 9.64186 20.8178C9.69911 20.7602 9.74444 20.6919 9.77526 20.6168C9.80609 20.5417 9.82179 20.4612 9.82147 20.38C9.82115 20.2166 9.75611 20.06 9.64058 19.9445C9.52505 19.8289 9.36845 19.7639 9.20507 19.7636H1.93366C1.53567 19.7636 1.23643 19.4628 1.23643 19.0663V1.93366C1.23643 1.5372 1.53567 1.23522 1.93366 1.23522H8.27503H14.6176C15.0156 1.23522 15.3148 1.5372 15.3148 1.93366V10.7141C15.3155 10.8771 15.3805 11.0332 15.4957 11.1484C15.611 11.2637 15.7671 11.3287 15.93 11.3293C16.0111 11.3296 16.0915 11.314 16.1666 11.2832C16.2416 11.2525 16.3099 11.2073 16.3675 11.1501C16.425 11.093 16.4708 11.0251 16.5021 10.9503C16.5335 10.8755 16.5497 10.7952 16.5501 10.7141V1.93366C16.5501 0.873518 15.6778 0 14.6176 0H8.27503H1.93366ZM6.08203 3.82992C5.91863 3.83249 5.76291 3.89973 5.64898 4.01689L3.98553 5.71291L3.56574 5.20627C3.51368 5.14395 3.44983 5.0925 3.37785 5.05488C3.30588 5.01726 3.22719 4.9942 3.14629 4.98703C3.06539 4.97986 2.98387 4.98872 2.9064 5.01309C2.82893 5.03747 2.75703 5.07688 2.69481 5.12908C2.63248 5.18115 2.58104 5.24499 2.54342 5.31697C2.5058 5.38895 2.48274 5.46763 2.47557 5.54853C2.4684 5.62943 2.47725 5.71095 2.50163 5.78842C2.526 5.86589 2.56541 5.93779 2.61761 6.00001L3.47406 7.02534C3.52931 7.09189 3.59793 7.1461 3.67546 7.18444C3.75299 7.22279 3.83771 7.24443 3.92413 7.24796C4.01056 7.25148 4.09676 7.23682 4.17715 7.20491C4.25755 7.173 4.33035 7.12457 4.39083 7.06274L6.52956 4.87818C6.64334 4.76119 6.7062 4.60391 6.7044 4.44072C6.70259 4.27753 6.63627 4.12169 6.51992 4.00725C6.40322 3.89245 6.24572 3.82866 6.08203 3.82992ZM8.12907 5.02413C8.04797 5.02381 7.96759 5.03947 7.89254 5.07021C7.81748 5.10096 7.74922 5.14619 7.69164 5.20331C7.63407 5.26044 7.58831 5.32835 7.55698 5.40316C7.52565 5.47797 7.50936 5.55822 7.50904 5.63932C7.50873 5.72084 7.52455 5.80161 7.55559 5.87698C7.58664 5.95234 7.6323 6.02082 7.68994 6.07846C7.74757 6.1361 7.81605 6.18176 7.89142 6.2128C7.96679 6.24385 8.04756 6.25967 8.12907 6.25935H13.4596C13.5407 6.25903 13.6209 6.24274 13.6958 6.21141C13.7706 6.18008 13.8385 6.13432 13.8956 6.07675C13.9527 6.01917 13.998 5.95091 14.0287 5.87586C14.0594 5.8008 14.0751 5.72043 14.0748 5.63932C14.0742 5.47636 14.0091 5.32025 13.8939 5.20502C13.7787 5.08978 13.6226 5.02476 13.4596 5.02413H8.12907ZM6.08323 8.79252C5.91976 8.79414 5.7636 8.86052 5.64898 8.97709L3.98553 10.6731L3.56574 10.1665C3.51368 10.1041 3.44983 10.0527 3.37785 10.0151C3.30588 9.97745 3.22719 9.9544 3.14629 9.94722C3.06539 9.94005 2.98387 9.94891 2.9064 9.97328C2.82893 9.99766 2.75703 10.0371 2.69481 10.0893C2.63248 10.1413 2.58104 10.2052 2.54342 10.2772C2.5058 10.3491 2.48274 10.4278 2.47557 10.5087C2.4684 10.5896 2.47725 10.6711 2.50163 10.7486C2.526 10.8261 2.56541 10.898 2.61761 10.9602L3.47406 11.9867C3.5294 12.0532 3.59808 12.1073 3.67566 12.1456C3.75323 12.1838 3.83797 12.2053 3.9244 12.2087C4.01082 12.2122 4.097 12.1974 4.17735 12.1654C4.2577 12.1334 4.33043 12.0848 4.39083 12.0229L6.52956 9.83838C6.64334 9.72139 6.7062 9.56412 6.7044 9.40093C6.70259 9.23774 6.63627 9.0819 6.51992 8.96746C6.40313 8.85384 6.24616 8.79094 6.08323 8.79252ZM8.12907 9.98432C8.04786 9.984 7.96739 9.9997 7.89226 10.0305C7.81713 10.0613 7.74881 10.1067 7.69122 10.1639C7.63363 10.2212 7.58789 10.2892 7.55663 10.3642C7.52537 10.4391 7.5092 10.5195 7.50904 10.6007C7.50873 10.6822 7.52455 10.763 7.55559 10.8384C7.58664 10.9137 7.6323 10.9822 7.68994 11.0399C7.74757 11.0975 7.81605 11.1432 7.89142 11.1742C7.96679 11.2052 8.04756 11.2211 8.12907 11.2207H13.4596C13.5407 11.2204 13.6209 11.2041 13.6958 11.1728C13.7706 11.1415 13.8385 11.0957 13.8956 11.0381C13.9527 10.9806 13.998 10.9123 14.0287 10.8373C14.0594 10.7622 14.0751 10.6818 14.0748 10.6007C14.0745 10.4376 14.0096 10.2811 13.8943 10.1656C13.7791 10.0501 13.6228 9.98496 13.4596 9.98432H8.12907ZM18.0012 11.8492C17.5139 11.8632 17.0288 12.0592 16.6598 12.4282L16.117 12.9759L14.585 14.503C14.5783 14.5093 14.565 14.524 14.5392 14.5525L11.3257 17.7672C11.2331 17.8597 11.1723 17.9792 11.152 18.1086L10.8142 20.2606C10.799 20.3569 10.8067 20.4554 10.8368 20.5482C10.8669 20.6409 10.9186 20.7252 10.9875 20.7942C11.0565 20.8631 11.1408 20.9148 11.2335 20.9449C11.3263 20.975 11.4248 20.9827 11.5211 20.9674L13.6731 20.6345C13.8027 20.6148 13.9227 20.5544 14.0157 20.462L17.257 17.2195L18.8118 15.6659L19.3547 15.123C20.1042 14.3735 20.1387 13.1399 19.3908 12.392C19.3871 12.3883 19.3766 12.3771 19.3583 12.3595C19.3571 12.3595 19.3558 12.3595 19.3546 12.3595C18.9785 12.0029 18.4882 11.8351 18.0012 11.8492ZM18.0313 13.0784C18.2039 13.0721 18.3719 13.1319 18.5018 13.2533H18.5067C18.5066 13.2532 18.5049 13.2571 18.5152 13.2678C18.7754 13.528 18.7779 13.9484 18.479 14.2473L18.1087 14.6212L17.1606 13.6755L17.5357 13.304C17.6821 13.1576 17.8588 13.0847 18.0313 13.0784ZM6.08202 13.7503C5.91861 13.7529 5.76289 13.8201 5.64897 13.9373L3.98552 15.6333L3.56573 15.1279C3.51375 15.0655 3.44997 15.0139 3.37803 14.9762C3.3061 14.9384 3.22743 14.9153 3.14653 14.908C3.06563 14.9007 2.98409 14.9095 2.90657 14.9337C2.82906 14.958 2.75709 14.9973 2.6948 15.0495C2.63247 15.1015 2.58102 15.1654 2.5434 15.2373C2.50578 15.3093 2.48273 15.388 2.47556 15.4689C2.46839 15.5498 2.47724 15.6313 2.50161 15.7088C2.52599 15.7863 2.5654 15.8582 2.6176 15.9204L3.47405 16.9469C3.52939 17.0134 3.59807 17.0675 3.67564 17.1057C3.75322 17.144 3.83796 17.1655 3.92438 17.1689C4.01081 17.1723 4.09698 17.1576 4.17733 17.1256C4.25768 17.0936 4.33042 17.045 4.39082 16.9831L6.52954 14.7998C6.64333 14.6828 6.70619 14.5255 6.70439 14.3623C6.70258 14.1991 6.63625 14.0433 6.5199 13.9288C6.46222 13.8718 6.39386 13.8267 6.31873 13.796C6.2436 13.7654 6.16315 13.7498 6.08202 13.7503ZM16.2895 14.5476L17.2364 15.4946L16.3812 16.3498L13.2859 19.4451L12.1689 19.6188L12.3426 18.497L15.4379 15.4005C15.444 15.3945 15.4501 15.3885 15.456 15.3823V15.3785C15.4576 15.3785 15.4593 15.3785 15.4609 15.3785L16.2895 14.5476ZM8.12906 14.9445C8.04785 14.9442 7.96738 14.9599 7.89225 14.9907C7.81711 15.0215 7.7488 15.0669 7.69121 15.1241C7.63362 15.1814 7.58788 15.2494 7.55662 15.3244C7.52536 15.3993 7.50919 15.4797 7.50903 15.5609C7.50871 15.6424 7.52453 15.7232 7.55558 15.7986C7.58663 15.8739 7.63228 15.9424 7.68992 16.0001C7.74756 16.0577 7.81604 16.1034 7.89141 16.1344C7.96678 16.1654 8.04755 16.1813 8.12906 16.1809H11.111C11.1921 16.1806 11.2723 16.1643 11.3471 16.133C11.4219 16.1017 11.4899 16.0559 11.547 15.9983C11.6041 15.9408 11.6493 15.8725 11.6801 15.7975C11.7108 15.7224 11.7265 15.642 11.7262 15.5609C11.7258 15.3977 11.661 15.2413 11.5457 15.1258C11.4304 15.0103 11.2741 14.9451 11.111 14.9445H8.12906Z" fill="currentColor"/>
</svg>
