<svg width="22" height="21" viewBox="0 0 22 21" fill="none" xmlns="http://www.w3.org/2000/svg">
<path fill-rule="evenodd" clip-rule="evenodd" d="M15.4972 12.179C15.4972 16.2391 12.2059 19.5304 8.14584 19.5304C4.08578 19.5304 0.794448 16.2391 0.794448 12.179C0.794448 8.11898 4.08578 4.82765 8.14584 4.82765C9.72608 4.82765 11.1899 5.32625 12.3885 6.17472L12.5532 5.32735C11.2827 4.50841 9.76978 4.0332 8.14584 4.0332C3.64702 4.0332 0 7.68022 0 12.179C0 16.6779 3.64702 20.3249 8.14584 20.3249C12.6447 20.3249 16.2917 16.6779 16.2917 12.179C16.2917 10.2895 15.6483 8.55017 14.5687 7.16825L14.2208 8.03796C15.0262 9.21727 15.4972 10.6432 15.4972 12.179Z" fill="#BCC2CE"/>
<path d="M12.0205 7.94959L11.9476 8.19397L12.1394 8.36201L12.8807 9.01137L13.2532 9.33762L13.4909 8.90329L15.1122 5.94115L16.7042 7.26926L16.1839 8.1373L16.0126 8.42315L16.2643 8.64154L16.9593 9.24451L17.3461 9.58015L17.575 9.12197L18.3961 7.47789L20.0383 6.6559L20.4089 6.47037L20.2078 6.10794L19.9762 5.6905L19.8627 5.48602H19.6288H18.2675L16.981 4.16502L20.0171 2.86238L20.5557 2.63129L20.1415 2.21661L19.3539 1.42811L19.1888 1.26288L18.9642 1.32677L15.1084 2.42336L13.4199 0.775228L13.3386 0.695897L13.2277 0.671521C12.8119 0.580145 12.4531 0.575444 12.1619 0.684164C11.848 0.801329 11.6582 1.03332 11.5739 1.30244C11.4956 1.55211 11.5116 1.81739 11.555 2.04063C11.5994 2.26901 11.6795 2.48884 11.7643 2.66762L11.7923 2.72672L11.8378 2.77371L13.1586 4.13723L12.0205 7.94959Z" stroke="#BCC2CE" stroke-width="0.794448"/>
<path d="M0.320312 12.2711C0.457602 12.1948 1.03422 12.3443 2.24236 13.5524C3.50848 14.7728 6.43427 16.7192 8.00852 14.7423L7.50512 14.2847C6.43732 13.8575 4.44815 12.7928 5.03392 11.9507C5.61968 11.1087 7.26105 9.46427 8.00852 8.74731C9.07632 7.83205 10.8926 6.003 9.13527 4.5752" stroke="#BCC2CE" stroke-width="0.794448"/>
<path d="M10.0683 19.9125C9.82428 19.3024 9.7297 17.7891 11.304 16.6176L12.9514 15.2905C13.3633 14.9091 14.2053 13.9176 14.2785 13.0023C14.3701 11.8582 14.6447 10.8972 15.926 10.943" stroke="#BCC2CE" stroke-width="0.794448"/>
</svg>
