<svg width="19" height="21" viewBox="0 0 19 21" fill="none" xmlns="http://www.w3.org/2000/svg">
<path d="M15.404 17.1205L17.4838 15.734C17.565 15.6799 17.6137 15.5888 17.6137 15.4912V6.48218C17.6137 6.37997 17.5603 6.2852 17.4728 6.23236L9.49793 1.41587C9.40554 1.36007 9.28989 1.35982 9.19726 1.41522L1.14205 6.23255C1.05394 6.28524 1 6.38035 1 6.48302V8.44537M13.5217 10.9006V18.0087C13.5217 18.1168 13.4619 18.2161 13.3664 18.2667L9.48935 20.3192C9.40118 20.3659 9.29527 20.3643 9.20854 20.315L1.14759 15.7313C1.05635 15.6794 1 15.5826 1 15.4776V8.44537M13.5217 10.9006L9.49724 8.53328C9.40512 8.47909 9.29075 8.47959 9.19911 8.53457L5.25573 10.9006M13.5217 10.9006L9.50089 13.3446C9.40696 13.4017 9.28893 13.4012 9.19551 13.3433L5.25573 10.9006M5.25573 10.9006L1 8.44537" stroke="#BCC2CE" stroke-width="0.95"/>
<path d="M15.3783 16.5635C15.1595 16.7083 15.0996 17.003 15.2444 17.2218C15.3892 17.4405 15.6839 17.5005 15.9027 17.3556L15.3783 16.5635ZM15.9027 17.3556L16.7074 16.8229L16.183 16.0307L15.3783 16.5635L15.9027 17.3556Z" fill="#BCC2CE"/>
</svg>
