<svg width="26" height="26" viewBox="0 0 26 26" fill="none" xmlns="http://www.w3.org/2000/svg">
<path d="M13.0002 5.63306C11.8055 5.63306 10.8335 6.60502 10.8335 7.79972C10.8335 8.99442 11.8055 9.96639 13.0002 9.96639C14.1949 9.96639 15.1668 8.99442 15.1668 7.79972C15.1668 6.60502 14.1949 5.63306 13.0002 5.63306ZM13.0002 9.09972C12.2834 9.09972 11.7002 8.51646 11.7002 7.79972C11.7002 7.08299 12.2834 6.49972 13.0002 6.49972C13.7169 6.49972 14.3002 7.08299 14.3002 7.79972C14.3002 8.51646 13.7169 9.09972 13.0002 9.09972Z" fill="#BCC2CE"/>
<path d="M17.3334 6.49987L16.6674 6.4821C16.6253 6.3651 16.5781 6.25114 16.5166 6.12157L16.9833 5.65487C17.1527 5.48544 17.1527 5.21157 16.9833 5.04214L15.7578 3.81624C15.6763 3.73477 15.5667 3.68927 15.4514 3.68927C15.3362 3.68927 15.2261 3.73477 15.1451 3.81624L14.6602 4.27384C14.5488 4.22184 14.4353 4.1746 14.3001 4.12694V3.46654C14.3001 3.22734 14.1064 3.0332 13.8667 3.0332H12.1334C11.8938 3.0332 11.7001 3.22734 11.7001 3.46654L11.6814 4.133C11.5644 4.1746 11.4513 4.22184 11.3218 4.28337L10.8551 3.81667C10.6926 3.65417 10.4048 3.65417 10.2423 3.81667L9.01687 5.04257C8.84743 5.212 8.84743 5.48587 9.01687 5.6553L9.4749 6.13977C9.42247 6.25114 9.37523 6.36554 9.32757 6.5003H8.66673C8.4271 6.5003 8.2334 6.69444 8.2334 6.93364V8.66697C8.2334 8.90617 8.4271 9.1003 8.66673 9.1003L9.33277 9.11807C9.3748 9.23507 9.42203 9.34904 9.48357 9.4786L9.01687 9.9453C8.84743 10.1147 8.84743 10.3886 9.01687 10.558L10.2423 11.7839C10.3238 11.8654 10.4334 11.9109 10.5487 11.9109C10.664 11.9109 10.774 11.8654 10.8551 11.7839L11.34 11.3263C11.4513 11.3783 11.5649 11.4256 11.7001 11.4732V12.1332C11.7001 12.3724 11.8938 12.5665 12.1334 12.5665H13.8667C14.1064 12.5665 14.3001 12.3724 14.3001 12.1332L14.3187 11.4667C14.4357 11.4251 14.5488 11.3779 14.6784 11.3164L15.1451 11.7831C15.3076 11.9456 15.5953 11.9456 15.7578 11.7831L16.9833 10.5572C17.1527 10.3877 17.1527 10.1139 16.9833 9.94444L16.5252 9.45997C16.5777 9.3486 16.6249 9.2342 16.6726 9.09944H17.3334C17.573 9.09944 17.7667 8.9053 17.7667 8.6661V6.93277C17.7667 6.694 17.573 6.49987 17.3334 6.49987ZM16.9001 8.2332H16.673C16.3029 8.2332 15.9805 8.4659 15.851 8.82687C15.8193 8.917 15.7829 9.00454 15.7418 9.0912C15.5793 9.43744 15.643 9.83004 15.9043 10.0909L16.0646 10.2512L15.4519 10.8644L15.2915 10.7041C15.0337 10.4462 14.6324 10.3808 14.2914 10.5416C14.2056 10.5823 14.1168 10.6191 14.0262 10.6512C13.6717 10.7786 13.4334 11.1084 13.4334 11.4728V11.6999H12.5667V11.4728C12.5667 11.1084 12.3284 10.7782 11.9744 10.6512C11.8838 10.6187 11.795 10.5819 11.7096 10.5416C11.3694 10.3817 10.9673 10.4454 10.709 10.7036L10.5487 10.864L9.93597 10.2508L10.0963 10.0905C10.3576 9.8296 10.4213 9.437 10.2584 9.0899C10.2176 9.0041 10.1812 8.91657 10.1492 8.82514C10.0196 8.4659 9.6972 8.2332 9.32713 8.2332H9.10007V7.36654H9.32713C9.6972 7.36654 10.0196 7.13384 10.1492 6.77287C10.1808 6.68274 10.2172 6.5952 10.2584 6.50854C10.4209 6.1623 10.3572 5.7697 10.0959 5.50884L9.93553 5.3485L10.5483 4.73534L10.7086 4.89567C10.9656 5.15307 11.3677 5.2185 11.7087 5.05817C11.7945 5.01744 11.8834 4.9806 11.9739 4.94854C12.3284 4.82114 12.5667 4.49137 12.5667 4.12694V3.89987H13.4334V4.12694C13.4334 4.49137 13.6717 4.82157 14.0258 4.94854C14.1163 4.98104 14.2052 5.01787 14.2905 5.05817C14.6311 5.21894 15.0333 5.15437 15.2911 4.8961L15.4514 4.73577L16.0642 5.34894L15.9038 5.50927C15.6425 5.77014 15.5788 6.16274 15.7418 6.50984C15.7825 6.59564 15.8189 6.68317 15.851 6.7746C15.9805 7.13384 16.3029 7.36654 16.673 7.36654H16.9001V8.2332Z" fill="#BCC2CE"/>
<path d="M25.8041 8.30418L13.2375 0.07085C13.0936 -0.0236167 12.9064 -0.0236167 12.7625 0.07085L0.195867 8.30418C0.0736666 8.38392 0 8.52042 0 8.66645V25.5664C0 25.8056 0.1937 25.9998 0.433333 25.9998H3.9C4.13963 25.9998 4.33333 25.8056 4.33333 25.5664V14.2998H21.6667V25.5664C21.6667 25.8056 21.8604 25.9998 22.1 25.9998H25.5667C25.8063 25.9998 26 25.8056 26 25.5664V8.66645C26 8.52042 25.9263 8.38392 25.8041 8.30418ZM22.5333 25.1331V13.8664C22.5333 13.6272 22.3396 13.4331 22.1 13.4331H3.9C3.66037 13.4331 3.46667 13.6272 3.46667 13.8664V25.1331H0.866667V11.2664H6.06667V10.3998H0.866667V8.90088L13 0.95095L25.1333 8.90045V10.3998H19.9333V11.2664H25.1333V25.1331H22.5333Z" fill="#BCC2CE"/>
<path d="M19.5002 16.4666H15.1669H10.8336C10.5939 16.4666 10.4002 16.6607 10.4002 16.8999V20.7999H6.50023C6.26059 20.7999 6.06689 20.994 6.06689 21.2332V25.5666C6.06689 25.8058 6.26059 25.9999 6.50023 25.9999H19.5002C19.7399 25.9999 19.9336 25.8058 19.9336 25.5666V16.8999C19.9336 16.6607 19.7399 16.4666 19.5002 16.4666ZM10.4002 25.1332H6.93356V21.6666H8.23356V22.9666H9.10023V21.6666H10.4002V25.1332ZM14.7336 25.1332H11.2669V21.6666H12.5669V22.9666H13.4336V21.6666H14.7336V25.1332ZM14.7336 20.7999H11.2669V17.3332H12.5669V18.6332H13.4336V17.3332H14.7336V20.7999ZM19.0669 25.1332H15.6002V21.6666H16.9002V22.9666H17.7669V21.6666H19.0669V25.1332ZM19.0669 20.7999H15.6002V17.3332H16.9002V18.6332H17.7669V17.3332H19.0669V20.7999Z" fill="#BCC2CE"/>
<path d="M19.0669 10.3999H18.2002V11.2666H19.0669V10.3999Z" fill="#BCC2CE"/>
<path d="M7.79977 10.3999H6.93311V11.2666H7.79977V10.3999Z" fill="#BCC2CE"/>
</svg>
